ISO-10303-21;
HEADER;
/* Generated by software containing ST-Developer
 * from STEP Tools, Inc. (www.steptools.com) 
 */

FILE_DESCRIPTION(
/* description */ (''),
/* implementation_level */ '2;1');

FILE_NAME(
/* name */ 'sortify_leg.stp',
/* time_stamp */ '2026-09-20T03:26:53-04:00',
/* author */ ('zhiwe'),
/* organization */ (''),
/* preprocessor_version */ 'ST-DEVELOPER v20.2',
/* originating_system */ 'Autodesk Inventor 2027',
/* authorisation */ '');

FILE_SCHEMA (('AUTOMOTIVE_DESIGN { 1 0 10303 214 3 1 1 }'));
ENDSEC;

DATA;
#10=MECHANICAL_DESIGN_GEOMETRIC_PRESENTATION_REPRESENTATION('',(#13),#1979);
#11=SHAPE_REPRESENTATION_RELATIONSHIP('SRR','None',#1986,#12);
#12=ADVANCED_BREP_SHAPE_REPRESENTATION('',(#14),#1978);
#13=STYLED_ITEM('',(#1995),#14);
#14=MANIFOLD_SOLID_BREP('Solid1',#1052);
#15=B_SPLINE_SURFACE_WITH_KNOTS('',3,3,((#1669,#1670,#1671,#1672,#1673,
#1674,#1675),(#1676,#1677,#1678,#1679,#1680,#1681,#1682),(#1683,#1684,#1685,
#1686,#1687,#1688,#1689),(#1690,#1691,#1692,#1693,#1694,#1695,#1696),(#1697,
#1698,#1699,#1700,#1701,#1702,#1703),(#1704,#1705,#1706,#1707,#1708,#1709,
#1710)),.UNSPECIFIED.,.F.,.F.,.F.,(4,1,1,4),(4,1,1,1,4),(0.,0.285714285714286,
0.571428571428571,1.),(-1.85051626799823E-15,0.224399475256412,0.448798950512826,
0.897597901025654,1.5707963267949),.UNSPECIFIED.);
#16=B_SPLINE_SURFACE_WITH_KNOTS('',3,3,((#1717,#1718,#1719,#1720,#1721,
#1722),(#1723,#1724,#1725,#1726,#1727,#1728),(#1729,#1730,#1731,#1732,#1733,
#1734),(#1735,#1736,#1737,#1738,#1739,#1740),(#1741,#1742,#1743,#1744,#1745,
#1746)),.UNSPECIFIED.,.F.,.F.,.F.,(4,1,4),(4,1,1,4),(0.,0.571428571428571,
1.),(0.,0.224399475256414,0.673198425769241,1.5707963267949),
 .UNSPECIFIED.);
#17=B_SPLINE_SURFACE_WITH_KNOTS('',3,3,((#1752,#1753,#1754,#1755,#1756,
#1757),(#1758,#1759,#1760,#1761,#1762,#1763),(#1764,#1765,#1766,#1767,#1768,
#1769),(#1770,#1771,#1772,#1773,#1774,#1775),(#1776,#1777,#1778,#1779,#1780,
#1781)),.UNSPECIFIED.,.F.,.F.,.F.,(4,1,4),(4,1,1,4),(0.,0.571428571428571,
1.),(-2.15105711021125E-15,0.448798950512826,0.67319842576924,1.5707963267949),
 .UNSPECIFIED.);
#18=B_SPLINE_SURFACE_WITH_KNOTS('',3,3,((#1787,#1788,#1789,#1790,#1791,
#1792,#1793,#1794),(#1795,#1796,#1797,#1798,#1799,#1800,#1801,#1802),(#1803,
#1804,#1805,#1806,#1807,#1808,#1809,#1810),(#1811,#1812,#1813,#1814,#1815,
#1816,#1817,#1818),(#1819,#1820,#1821,#1822,#1823,#1824,#1825,#1826),(#1827,
#1828,#1829,#1830,#1831,#1832,#1833,#1834)),.UNSPECIFIED.,.F.,.F.,.F.,(4,
1,1,4),(4,1,1,1,1,4),(0.,0.285714285714286,0.571428571428571,1.),(-1.81365339413373E-15,
0.224399475256412,0.448798950512826,0.67319842576924,1.12199737628207,1.5707963267949),
 .UNSPECIFIED.);
#19=B_SPLINE_CURVE_WITH_KNOTS('',3,(#1618,#1619,#1620,#1621,#1622,#1623,
#1624,#1625,#1626,#1627),.UNSPECIFIED.,.F.,.F.,(4,2,2,2,4),(0.,0.235125638265817,
0.470251276531633,0.623177729656973,0.776104182782312),.UNSPECIFIED.);
#20=B_SPLINE_CURVE_WITH_KNOTS('',3,(#1636,#1637,#1638,#1639,#1640,#1641,
#1642,#1643,#1644,#1645),.UNSPECIFIED.,.F.,.F.,(4,2,2,2,4),(2.02212896015404,
2.17505541327938,2.32798186640472,2.56310750467053,2.79823314293635),
 .UNSPECIFIED.);
#21=TOROIDAL_SURFACE('',#1113,8.,4.);
#22=TOROIDAL_SURFACE('',#1119,8.,4.);
#23=TOROIDAL_SURFACE('',#1147,6.,4.);
#24=ELLIPSE('',#1110,4.14110472164033,4.);
#25=ELLIPSE('',#1131,5.29150262212918,4.);
#26=ELLIPSE('',#1132,5.29150262212918,4.);
#27=ELLIPSE('',#1134,4.26507267252573,4.);
#28=ELLIPSE('',#1135,4.26507267252571,4.);
#29=ELLIPSE('',#1137,4.26507266981591,4.);
#30=ELLIPSE('',#1138,4.26507266981591,4.);
#31=ELLIPSE('',#1140,5.29150262212918,4.);
#32=ELLIPSE('',#1141,5.29150262212918,4.);
#33=ELLIPSE('',#1154,4.14110472164033,4.);
#34=SPHERICAL_SURFACE('',#1098,4.);
#35=SPHERICAL_SURFACE('',#1104,4.);
#36=LINE('',#1528,#115);
#37=LINE('',#1537,#116);
#38=LINE('',#1546,#117);
#39=LINE('',#1555,#118);
#40=LINE('',#1560,#119);
#41=LINE('',#1573,#120);
#42=LINE('',#1574,#121);
#43=LINE('',#1581,#122);
#44=LINE('',#1583,#123);
#45=LINE('',#1585,#124);
#46=LINE('',#1587,#125);
#47=LINE('',#1589,#126);
#48=LINE('',#1593,#127);
#49=LINE('',#1595,#128);
#50=LINE('',#1597,#129);
#51=LINE('',#1599,#130);
#52=LINE('',#1600,#131);
#53=LINE('',#1603,#132);
#54=LINE('',#1607,#133);
#55=LINE('',#1610,#134);
#56=LINE('',#1632,#135);
#57=LINE('',#1633,#136);
#58=LINE('',#1649,#137);
#59=LINE('',#1652,#138);
#60=LINE('',#1842,#139);
#61=LINE('',#1843,#140);
#62=LINE('',#1845,#141);
#63=LINE('',#1846,#142);
#64=LINE('',#1849,#143);
#65=LINE('',#1856,#144);
#66=LINE('',#1858,#145);
#67=LINE('',#1859,#146);
#68=LINE('',#1861,#147);
#69=LINE('',#1862,#148);
#70=LINE('',#1866,#149);
#71=LINE('',#1868,#150);
#72=LINE('',#1869,#151);
#73=LINE('',#1873,#152);
#74=LINE('',#1875,#153);
#75=LINE('',#1876,#154);
#76=LINE('',#1879,#155);
#77=LINE('',#1882,#156);
#78=LINE('',#1885,#157);
#79=LINE('',#1886,#158);
#80=LINE('',#1890,#159);
#81=LINE('',#1892,#160);
#82=LINE('',#1896,#161);
#83=LINE('',#1900,#162);
#84=LINE('',#1904,#163);
#85=LINE('',#1907,#164);
#86=LINE('',#1910,#165);
#87=LINE('',#1912,#166);
#88=LINE('',#1913,#167);
#89=LINE('',#1916,#168);
#90=LINE('',#1918,#169);
#91=LINE('',#1919,#170);
#92=LINE('',#1929,#171);
#93=LINE('',#1930,#172);
#94=LINE('',#1932,#173);
#95=LINE('',#1934,#174);
#96=LINE('',#1936,#175);
#97=LINE('',#1938,#176);
#98=LINE('',#1939,#177);
#99=LINE('',#1941,#178);
#100=LINE('',#1944,#179);
#101=LINE('',#1945,#180);
#102=LINE('',#1947,#181);
#103=LINE('',#1950,#182);
#104=LINE('',#1951,#183);
#105=LINE('',#1953,#184);
#106=LINE('',#1957,#185);
#107=LINE('',#1959,#186);
#108=LINE('',#1961,#187);
#109=LINE('',#1963,#188);
#110=LINE('',#1965,#189);
#111=LINE('',#1967,#190);
#112=LINE('',#1969,#191);
#113=LINE('',#1971,#192);
#114=LINE('',#1974,#193);
#115=VECTOR('',#1208,2.);
#116=VECTOR('',#1219,2.);
#117=VECTOR('',#1230,2.);
#118=VECTOR('',#1241,2.);
#119=VECTOR('',#1246,1.25);
#120=VECTOR('',#1261,10.);
#121=VECTOR('',#1262,10.);
#122=VECTOR('',#1271,10.);
#123=VECTOR('',#1272,10.);
#124=VECTOR('',#1273,10.);
#125=VECTOR('',#1274,10.);
#126=VECTOR('',#1275,10.);
#127=VECTOR('',#1278,10.);
#128=VECTOR('',#1279,10.);
#129=VECTOR('',#1280,10.);
#130=VECTOR('',#1281,10.);
#131=VECTOR('',#1282,10.);
#132=VECTOR('',#1285,10.);
#133=VECTOR('',#1290,10.);
#134=VECTOR('',#1293,10.);
#135=VECTOR('',#1306,10.);
#136=VECTOR('',#1307,10.);
#137=VECTOR('',#1314,10.);
#138=VECTOR('',#1317,10.);
#139=VECTOR('',#1360,10.);
#140=VECTOR('',#1361,10.);
#141=VECTOR('',#1364,10.);
#142=VECTOR('',#1365,10.);
#143=VECTOR('',#1368,10.);
#144=VECTOR('',#1379,10.);
#145=VECTOR('',#1382,10.);
#146=VECTOR('',#1383,10.);
#147=VECTOR('',#1386,10.);
#148=VECTOR('',#1387,10.);
#149=VECTOR('',#1392,10.);
#150=VECTOR('',#1395,10.);
#151=VECTOR('',#1396,10.);
#152=VECTOR('',#1401,10.);
#153=VECTOR('',#1402,10.);
#154=VECTOR('',#1403,10.);
#155=VECTOR('',#1406,10.);
#156=VECTOR('',#1409,10.);
#157=VECTOR('',#1412,10.);
#158=VECTOR('',#1413,10.);
#159=VECTOR('',#1418,10.);
#160=VECTOR('',#1419,10.);
#161=VECTOR('',#1422,10.);
#162=VECTOR('',#1425,10.);
#163=VECTOR('',#1428,10.);
#164=VECTOR('',#1431,10.);
#165=VECTOR('',#1432,10.);
#166=VECTOR('',#1433,10.);
#167=VECTOR('',#1434,10.);
#168=VECTOR('',#1435,10.);
#169=VECTOR('',#1436,10.);
#170=VECTOR('',#1437,10.);
#171=VECTOR('',#1448,10.);
#172=VECTOR('',#1449,10.);
#173=VECTOR('',#1452,10.);
#174=VECTOR('',#1455,10.);
#175=VECTOR('',#1458,10.);
#176=VECTOR('',#1461,10.);
#177=VECTOR('',#1462,10.);
#178=VECTOR('',#1465,10.);
#179=VECTOR('',#1470,10.);
#180=VECTOR('',#1471,10.);
#181=VECTOR('',#1474,10.);
#182=VECTOR('',#1479,10.);
#183=VECTOR('',#1480,10.);
#184=VECTOR('',#1483,10.);
#185=VECTOR('',#1490,1.25);
#186=VECTOR('',#1493,1.25);
#187=VECTOR('',#1496,1.25);
#188=VECTOR('',#1499,1.25);
#189=VECTOR('',#1502,1.25);
#190=VECTOR('',#1505,1.25);
#191=VECTOR('',#1508,1.25);
#192=VECTOR('',#1511,1.25);
#193=VECTOR('',#1516,10.);
#194=CYLINDRICAL_SURFACE('',#1078,2.);
#195=CYLINDRICAL_SURFACE('',#1083,2.);
#196=CYLINDRICAL_SURFACE('',#1088,2.);
#197=CYLINDRICAL_SURFACE('',#1093,2.);
#198=CYLINDRICAL_SURFACE('',#1095,1.25);
#199=CYLINDRICAL_SURFACE('',#1102,4.);
#200=CYLINDRICAL_SURFACE('',#1109,4.);
#201=CYLINDRICAL_SURFACE('',#1111,4.);
#202=CYLINDRICAL_SURFACE('',#1117,4.);
#203=CYLINDRICAL_SURFACE('',#1143,4.);
#204=CYLINDRICAL_SURFACE('',#1144,4.);
#205=CYLINDRICAL_SURFACE('',#1145,4.);
#206=CYLINDRICAL_SURFACE('',#1150,4.);
#207=CYLINDRICAL_SURFACE('',#1151,4.);
#208=CYLINDRICAL_SURFACE('',#1152,4.);
#209=CYLINDRICAL_SURFACE('',#1153,4.);
#210=CYLINDRICAL_SURFACE('',#1155,4.);
#211=CYLINDRICAL_SURFACE('',#1158,2.);
#212=CYLINDRICAL_SURFACE('',#1171,2.);
#213=CYLINDRICAL_SURFACE('',#1173,2.);
#214=CYLINDRICAL_SURFACE('',#1175,2.);
#215=CYLINDRICAL_SURFACE('',#1177,2.);
#216=CYLINDRICAL_SURFACE('',#1185,1.25);
#217=CYLINDRICAL_SURFACE('',#1186,1.25);
#218=CYLINDRICAL_SURFACE('',#1187,1.25);
#219=CYLINDRICAL_SURFACE('',#1188,1.25);
#220=CYLINDRICAL_SURFACE('',#1189,1.25);
#221=CYLINDRICAL_SURFACE('',#1190,1.25);
#222=CYLINDRICAL_SURFACE('',#1191,1.25);
#223=CYLINDRICAL_SURFACE('',#1192,1.25);
#224=CYLINDRICAL_SURFACE('',#1195,9.6);
#225=FACE_BOUND('',#312,.T.);
#226=FACE_BOUND('',#315,.T.);
#227=FACE_BOUND('',#318,.T.);
#228=FACE_BOUND('',#321,.T.);
#229=FACE_BOUND('',#334,.T.);
#230=FACE_BOUND('',#335,.T.);
#231=FACE_BOUND('',#336,.T.);
#232=FACE_BOUND('',#337,.T.);
#233=FACE_BOUND('',#338,.T.);
#234=FACE_BOUND('',#339,.T.);
#235=FACE_BOUND('',#340,.T.);
#236=FACE_BOUND('',#341,.T.);
#237=FACE_BOUND('',#342,.T.);
#238=FACE_BOUND('',#361,.T.);
#239=FACE_BOUND('',#362,.T.);
#240=FACE_BOUND('',#363,.T.);
#241=FACE_BOUND('',#364,.T.);
#242=FACE_BOUND('',#365,.T.);
#243=FACE_BOUND('',#366,.T.);
#244=FACE_BOUND('',#367,.T.);
#245=FACE_BOUND('',#368,.T.);
#246=FACE_BOUND('',#369,.T.);
#247=FACE_BOUND('',#370,.T.);
#248=FACE_BOUND('',#371,.T.);
#249=FACE_OUTER_BOUND('',#311,.T.);
#250=FACE_OUTER_BOUND('',#313,.T.);
#251=FACE_OUTER_BOUND('',#314,.T.);
#252=FACE_OUTER_BOUND('',#316,.T.);
#253=FACE_OUTER_BOUND('',#317,.T.);
#254=FACE_OUTER_BOUND('',#319,.T.);
#255=FACE_OUTER_BOUND('',#320,.T.);
#256=FACE_OUTER_BOUND('',#322,.T.);
#257=FACE_OUTER_BOUND('',#323,.T.);
#258=FACE_OUTER_BOUND('',#324,.T.);
#259=FACE_OUTER_BOUND('',#325,.T.);
#260=FACE_OUTER_BOUND('',#326,.T.);
#261=FACE_OUTER_BOUND('',#327,.T.);
#262=FACE_OUTER_BOUND('',#328,.T.);
#263=FACE_OUTER_BOUND('',#329,.T.);
#264=FACE_OUTER_BOUND('',#330,.T.);
#265=FACE_OUTER_BOUND('',#331,.T.);
#266=FACE_OUTER_BOUND('',#332,.T.);
#267=FACE_OUTER_BOUND('',#333,.T.);
#268=FACE_OUTER_BOUND('',#343,.T.);
#269=FACE_OUTER_BOUND('',#344,.T.);
#270=FACE_OUTER_BOUND('',#345,.T.);
#271=FACE_OUTER_BOUND('',#346,.T.);
#272=FACE_OUTER_BOUND('',#347,.T.);
#273=FACE_OUTER_BOUND('',#348,.T.);
#274=FACE_OUTER_BOUND('',#349,.T.);
#275=FACE_OUTER_BOUND('',#350,.T.);
#276=FACE_OUTER_BOUND('',#351,.T.);
#277=FACE_OUTER_BOUND('',#352,.T.);
#278=FACE_OUTER_BOUND('',#353,.T.);
#279=FACE_OUTER_BOUND('',#354,.T.);
#280=FACE_OUTER_BOUND('',#355,.T.);
#281=FACE_OUTER_BOUND('',#356,.T.);
#282=FACE_OUTER_BOUND('',#357,.T.);
#283=FACE_OUTER_BOUND('',#358,.T.);
#284=FACE_OUTER_BOUND('',#359,.T.);
#285=FACE_OUTER_BOUND('',#360,.T.);
#286=FACE_OUTER_BOUND('',#372,.T.);
#287=FACE_OUTER_BOUND('',#373,.T.);
#288=FACE_OUTER_BOUND('',#374,.T.);
#289=FACE_OUTER_BOUND('',#375,.T.);
#290=FACE_OUTER_BOUND('',#376,.T.);
#291=FACE_OUTER_BOUND('',#377,.T.);
#292=FACE_OUTER_BOUND('',#378,.T.);
#293=FACE_OUTER_BOUND('',#379,.T.);
#294=FACE_OUTER_BOUND('',#380,.T.);
#295=FACE_OUTER_BOUND('',#381,.T.);
#296=FACE_OUTER_BOUND('',#382,.T.);
#297=FACE_OUTER_BOUND('',#383,.T.);
#298=FACE_OUTER_BOUND('',#384,.T.);
#299=FACE_OUTER_BOUND('',#385,.T.);
#300=FACE_OUTER_BOUND('',#386,.T.);
#301=FACE_OUTER_BOUND('',#387,.T.);
#302=FACE_OUTER_BOUND('',#388,.T.);
#303=FACE_OUTER_BOUND('',#389,.T.);
#304=FACE_OUTER_BOUND('',#390,.T.);
#305=FACE_OUTER_BOUND('',#391,.T.);
#306=FACE_OUTER_BOUND('',#392,.T.);
#307=FACE_OUTER_BOUND('',#393,.T.);
#308=FACE_OUTER_BOUND('',#394,.T.);
#309=FACE_OUTER_BOUND('',#395,.T.);
#310=FACE_OUTER_BOUND('',#396,.T.);
#311=EDGE_LOOP('',(#680));
#312=EDGE_LOOP('',(#681));
#313=EDGE_LOOP('',(#682,#683,#684,#685));
#314=EDGE_LOOP('',(#686));
#315=EDGE_LOOP('',(#687));
#316=EDGE_LOOP('',(#688,#689,#690,#691));
#317=EDGE_LOOP('',(#692));
#318=EDGE_LOOP('',(#693));
#319=EDGE_LOOP('',(#694,#695,#696,#697));
#320=EDGE_LOOP('',(#698));
#321=EDGE_LOOP('',(#699));
#322=EDGE_LOOP('',(#700,#701,#702,#703));
#323=EDGE_LOOP('',(#704,#705,#706,#707));
#324=EDGE_LOOP('',(#708,#709,#710));
#325=EDGE_LOOP('',(#711,#712,#713,#714));
#326=EDGE_LOOP('',(#715,#716,#717));
#327=EDGE_LOOP('',(#718,#719,#720,#721,#722,#723,#724,#725,#726,#727,#728,
#729));
#328=EDGE_LOOP('',(#730,#731,#732,#733));
#329=EDGE_LOOP('',(#734,#735,#736,#737));
#330=EDGE_LOOP('',(#738,#739,#740,#741));
#331=EDGE_LOOP('',(#742,#743,#744,#745));
#332=EDGE_LOOP('',(#746,#747,#748,#749));
#333=EDGE_LOOP('',(#750,#751,#752,#753,#754,#755));
#334=EDGE_LOOP('',(#756));
#335=EDGE_LOOP('',(#757));
#336=EDGE_LOOP('',(#758));
#337=EDGE_LOOP('',(#759));
#338=EDGE_LOOP('',(#760));
#339=EDGE_LOOP('',(#761));
#340=EDGE_LOOP('',(#762));
#341=EDGE_LOOP('',(#763));
#342=EDGE_LOOP('',(#764));
#343=EDGE_LOOP('',(#765,#766,#767));
#344=EDGE_LOOP('',(#768,#769,#770));
#345=EDGE_LOOP('',(#771,#772,#773));
#346=EDGE_LOOP('',(#774,#775,#776));
#347=EDGE_LOOP('',(#777,#778,#779,#780,#781));
#348=EDGE_LOOP('',(#782,#783,#784,#785,#786));
#349=EDGE_LOOP('',(#787,#788,#789,#790));
#350=EDGE_LOOP('',(#791,#792,#793,#794));
#351=EDGE_LOOP('',(#795,#796,#797,#798));
#352=EDGE_LOOP('',(#799,#800,#801,#802,#803));
#353=EDGE_LOOP('',(#804,#805,#806,#807));
#354=EDGE_LOOP('',(#808,#809,#810,#811));
#355=EDGE_LOOP('',(#812,#813,#814,#815,#816));
#356=EDGE_LOOP('',(#817,#818,#819,#820));
#357=EDGE_LOOP('',(#821,#822,#823,#824,#825,#826,#827));
#358=EDGE_LOOP('',(#828,#829,#830,#831));
#359=EDGE_LOOP('',(#832,#833,#834,#835));
#360=EDGE_LOOP('',(#836,#837,#838,#839,#840,#841,#842,#843,#844,#845,#846,
#847,#848,#849));
#361=EDGE_LOOP('',(#850));
#362=EDGE_LOOP('',(#851));
#363=EDGE_LOOP('',(#852));
#364=EDGE_LOOP('',(#853));
#365=EDGE_LOOP('',(#854));
#366=EDGE_LOOP('',(#855,#856,#857));
#367=EDGE_LOOP('',(#858,#859,#860));
#368=EDGE_LOOP('',(#861));
#369=EDGE_LOOP('',(#862));
#370=EDGE_LOOP('',(#863));
#371=EDGE_LOOP('',(#864));
#372=EDGE_LOOP('',(#865,#866,#867,#868));
#373=EDGE_LOOP('',(#869,#870,#871,#872));
#374=EDGE_LOOP('',(#873,#874,#875,#876));
#375=EDGE_LOOP('',(#877,#878,#879,#880));
#376=EDGE_LOOP('',(#881,#882,#883,#884));
#377=EDGE_LOOP('',(#885,#886,#887,#888));
#378=EDGE_LOOP('',(#889,#890,#891,#892));
#379=EDGE_LOOP('',(#893,#894,#895,#896));
#380=EDGE_LOOP('',(#897,#898,#899,#900));
#381=EDGE_LOOP('',(#901,#902,#903,#904));
#382=EDGE_LOOP('',(#905,#906,#907,#908));
#383=EDGE_LOOP('',(#909,#910,#911,#912));
#384=EDGE_LOOP('',(#913,#914,#915,#916));
#385=EDGE_LOOP('',(#917,#918,#919,#920));
#386=EDGE_LOOP('',(#921,#922,#923,#924));
#387=EDGE_LOOP('',(#925,#926,#927,#928));
#388=EDGE_LOOP('',(#929,#930,#931,#932));
#389=EDGE_LOOP('',(#933,#934,#935,#936));
#390=EDGE_LOOP('',(#937,#938,#939,#940));
#391=EDGE_LOOP('',(#941,#942,#943,#944));
#392=EDGE_LOOP('',(#945,#946,#947,#948));
#393=EDGE_LOOP('',(#949,#950,#951,#952));
#394=EDGE_LOOP('',(#953,#954,#955,#956));
#395=EDGE_LOOP('',(#957,#958,#959,#960,#961,#962,#963));
#396=EDGE_LOOP('',(#964,#965,#966,#967));
#397=CIRCLE('',#1076,2.);
#398=CIRCLE('',#1077,1.25);
#399=CIRCLE('',#1079,2.);
#400=CIRCLE('',#1081,2.);
#401=CIRCLE('',#1082,1.25);
#402=CIRCLE('',#1084,2.);
#403=CIRCLE('',#1086,2.);
#404=CIRCLE('',#1087,1.25);
#405=CIRCLE('',#1089,2.);
#406=CIRCLE('',#1091,2.);
#407=CIRCLE('',#1092,1.25);
#408=CIRCLE('',#1094,2.);
#409=CIRCLE('',#1096,1.25);
#410=CIRCLE('',#1097,1.25);
#411=CIRCLE('',#1099,4.);
#412=CIRCLE('',#1100,4.);
#413=CIRCLE('',#1101,4.);
#414=CIRCLE('',#1103,4.);
#415=CIRCLE('',#1105,4.);
#416=CIRCLE('',#1106,4.);
#417=CIRCLE('',#1108,6.);
#418=CIRCLE('',#1112,4.);
#419=CIRCLE('',#1114,4.);
#420=CIRCLE('',#1115,4.);
#421=CIRCLE('',#1116,8.);
#422=CIRCLE('',#1118,4.);
#423=CIRCLE('',#1120,8.);
#424=CIRCLE('',#1122,9.6);
#425=CIRCLE('',#1123,1.25);
#426=CIRCLE('',#1124,1.25);
#427=CIRCLE('',#1125,1.25);
#428=CIRCLE('',#1126,1.25);
#429=CIRCLE('',#1127,1.25);
#430=CIRCLE('',#1128,1.25);
#431=CIRCLE('',#1129,1.25);
#432=CIRCLE('',#1130,1.25);
#433=CIRCLE('',#1133,2.00000000000001);
#434=CIRCLE('',#1136,1.99999999999999);
#435=CIRCLE('',#1139,2.00000000000001);
#436=CIRCLE('',#1142,2.00000000000001);
#437=CIRCLE('',#1146,4.);
#438=CIRCLE('',#1148,4.00000000000001);
#439=CIRCLE('',#1149,2.);
#440=CIRCLE('',#1159,2.);
#441=CIRCLE('',#1162,9.6);
#442=CIRCLE('',#1163,2.);
#443=CIRCLE('',#1164,2.);
#444=CIRCLE('',#1165,2.);
#445=CIRCLE('',#1166,2.);
#446=CIRCLE('',#1167,1.25);
#447=CIRCLE('',#1168,1.25);
#448=CIRCLE('',#1169,1.25);
#449=CIRCLE('',#1170,1.25);
#450=VERTEX_POINT('',#1521);
#451=VERTEX_POINT('',#1523);
#452=VERTEX_POINT('',#1526);
#453=VERTEX_POINT('',#1530);
#454=VERTEX_POINT('',#1532);
#455=VERTEX_POINT('',#1535);
#456=VERTEX_POINT('',#1539);
#457=VERTEX_POINT('',#1541);
#458=VERTEX_POINT('',#1544);
#459=VERTEX_POINT('',#1548);
#460=VERTEX_POINT('',#1550);
#461=VERTEX_POINT('',#1553);
#462=VERTEX_POINT('',#1557);
#463=VERTEX_POINT('',#1559);
#464=VERTEX_POINT('',#1563);
#465=VERTEX_POINT('',#1564);
#466=VERTEX_POINT('',#1566);
#467=VERTEX_POINT('',#1570);
#468=VERTEX_POINT('',#1571);
#469=VERTEX_POINT('',#1576);
#470=VERTEX_POINT('',#1580);
#471=VERTEX_POINT('',#1582);
#472=VERTEX_POINT('',#1584);
#473=VERTEX_POINT('',#1586);
#474=VERTEX_POINT('',#1588);
#475=VERTEX_POINT('',#1590);
#476=VERTEX_POINT('',#1592);
#477=VERTEX_POINT('',#1594);
#478=VERTEX_POINT('',#1596);
#479=VERTEX_POINT('',#1598);
#480=VERTEX_POINT('',#1602);
#481=VERTEX_POINT('',#1606);
#482=VERTEX_POINT('',#1608);
#483=VERTEX_POINT('',#1612);
#484=VERTEX_POINT('',#1613);
#485=VERTEX_POINT('',#1615);
#486=VERTEX_POINT('',#1617);
#487=VERTEX_POINT('',#1630);
#488=VERTEX_POINT('',#1635);
#489=VERTEX_POINT('',#1648);
#490=VERTEX_POINT('',#1650);
#491=VERTEX_POINT('',#1653);
#492=VERTEX_POINT('',#1655);
#493=VERTEX_POINT('',#1657);
#494=VERTEX_POINT('',#1659);
#495=VERTEX_POINT('',#1661);
#496=VERTEX_POINT('',#1663);
#497=VERTEX_POINT('',#1665);
#498=VERTEX_POINT('',#1667);
#499=VERTEX_POINT('',#1711);
#500=VERTEX_POINT('',#1712);
#501=VERTEX_POINT('',#1714);
#502=VERTEX_POINT('',#1747);
#503=VERTEX_POINT('',#1749);
#504=VERTEX_POINT('',#1782);
#505=VERTEX_POINT('',#1784);
#506=VERTEX_POINT('',#1835);
#507=VERTEX_POINT('',#1836);
#508=VERTEX_POINT('',#1838);
#509=VERTEX_POINT('',#1848);
#510=VERTEX_POINT('',#1852);
#511=VERTEX_POINT('',#1864);
#512=VERTEX_POINT('',#1872);
#513=VERTEX_POINT('',#1874);
#514=VERTEX_POINT('',#1878);
#515=VERTEX_POINT('',#1880);
#516=VERTEX_POINT('',#1884);
#517=VERTEX_POINT('',#1888);
#518=VERTEX_POINT('',#1891);
#519=VERTEX_POINT('',#1893);
#520=VERTEX_POINT('',#1895);
#521=VERTEX_POINT('',#1897);
#522=VERTEX_POINT('',#1899);
#523=VERTEX_POINT('',#1901);
#524=VERTEX_POINT('',#1903);
#525=VERTEX_POINT('',#1905);
#526=VERTEX_POINT('',#1908);
#527=VERTEX_POINT('',#1909);
#528=VERTEX_POINT('',#1911);
#529=VERTEX_POINT('',#1914);
#530=VERTEX_POINT('',#1915);
#531=VERTEX_POINT('',#1917);
#532=VERTEX_POINT('',#1920);
#533=VERTEX_POINT('',#1922);
#534=VERTEX_POINT('',#1924);
#535=VERTEX_POINT('',#1926);
#536=EDGE_CURVE('',#450,#450,#397,.T.);
#537=EDGE_CURVE('',#451,#451,#398,.T.);
#538=EDGE_CURVE('',#452,#452,#399,.T.);
#539=EDGE_CURVE('',#452,#450,#36,.T.);
#540=EDGE_CURVE('',#453,#453,#400,.T.);
#541=EDGE_CURVE('',#454,#454,#401,.T.);
#542=EDGE_CURVE('',#455,#455,#402,.T.);
#543=EDGE_CURVE('',#455,#453,#37,.T.);
#544=EDGE_CURVE('',#456,#456,#403,.T.);
#545=EDGE_CURVE('',#457,#457,#404,.T.);
#546=EDGE_CURVE('',#458,#458,#405,.T.);
#547=EDGE_CURVE('',#458,#456,#38,.T.);
#548=EDGE_CURVE('',#459,#459,#406,.T.);
#549=EDGE_CURVE('',#460,#460,#407,.T.);
#550=EDGE_CURVE('',#461,#461,#408,.T.);
#551=EDGE_CURVE('',#461,#459,#39,.T.);
#552=EDGE_CURVE('',#462,#462,#409,.T.);
#553=EDGE_CURVE('',#462,#463,#40,.T.);
#554=EDGE_CURVE('',#463,#463,#410,.T.);
#555=EDGE_CURVE('',#464,#465,#411,.T.);
#556=EDGE_CURVE('',#465,#466,#412,.T.);
#557=EDGE_CURVE('',#466,#464,#413,.T.);
#558=EDGE_CURVE('',#467,#468,#414,.T.);
#559=EDGE_CURVE('',#468,#465,#41,.T.);
#560=EDGE_CURVE('',#464,#467,#42,.T.);
#561=EDGE_CURVE('',#467,#469,#415,.T.);
#562=EDGE_CURVE('',#469,#468,#416,.T.);
#563=EDGE_CURVE('',#470,#464,#43,.T.);
#564=EDGE_CURVE('',#471,#470,#44,.T.);
#565=EDGE_CURVE('',#471,#472,#45,.T.);
#566=EDGE_CURVE('',#473,#472,#46,.T.);
#567=EDGE_CURVE('',#474,#473,#47,.T.);
#568=EDGE_CURVE('',#475,#474,#417,.T.);
#569=EDGE_CURVE('',#476,#475,#48,.T.);
#570=EDGE_CURVE('',#477,#476,#49,.T.);
#571=EDGE_CURVE('',#477,#478,#50,.T.);
#572=EDGE_CURVE('',#479,#478,#51,.T.);
#573=EDGE_CURVE('',#467,#479,#52,.T.);
#574=EDGE_CURVE('',#466,#480,#53,.T.);
#575=EDGE_CURVE('',#470,#480,#24,.T.);
#576=EDGE_CURVE('',#465,#481,#54,.T.);
#577=EDGE_CURVE('',#482,#481,#418,.T.);
#578=EDGE_CURVE('',#482,#466,#55,.T.);
#579=EDGE_CURVE('',#483,#484,#419,.T.);
#580=EDGE_CURVE('',#484,#485,#420,.T.);
#581=EDGE_CURVE('',#485,#486,#19,.T.);
#582=EDGE_CURVE('',#486,#483,#421,.T.);
#583=EDGE_CURVE('',#487,#481,#422,.T.);
#584=EDGE_CURVE('',#481,#484,#56,.T.);
#585=EDGE_CURVE('',#483,#487,#57,.T.);
#586=EDGE_CURVE('',#488,#482,#20,.T.);
#587=EDGE_CURVE('',#487,#488,#423,.T.);
#588=EDGE_CURVE('',#489,#486,#58,.T.);
#589=EDGE_CURVE('',#490,#489,#424,.T.);
#590=EDGE_CURVE('',#488,#490,#59,.T.);
#591=EDGE_CURVE('',#491,#491,#425,.T.);
#592=EDGE_CURVE('',#492,#492,#426,.T.);
#593=EDGE_CURVE('',#493,#493,#427,.T.);
#594=EDGE_CURVE('',#494,#494,#428,.T.);
#595=EDGE_CURVE('',#495,#495,#429,.T.);
#596=EDGE_CURVE('',#496,#496,#430,.T.);
#597=EDGE_CURVE('',#497,#497,#431,.T.);
#598=EDGE_CURVE('',#498,#498,#432,.T.);
#599=EDGE_CURVE('',#499,#500,#25,.T.);
#600=EDGE_CURVE('',#500,#501,#26,.T.);
#601=EDGE_CURVE('',#501,#499,#433,.T.);
#602=EDGE_CURVE('',#502,#476,#27,.T.);
#603=EDGE_CURVE('',#476,#503,#28,.T.);
#604=EDGE_CURVE('',#503,#502,#434,.T.);
#605=EDGE_CURVE('',#504,#473,#29,.T.);
#606=EDGE_CURVE('',#473,#505,#30,.T.);
#607=EDGE_CURVE('',#505,#504,#435,.T.);
#608=EDGE_CURVE('',#506,#507,#31,.T.);
#609=EDGE_CURVE('',#507,#508,#32,.T.);
#610=EDGE_CURVE('',#508,#506,#436,.T.);
#611=EDGE_CURVE('',#507,#471,#60,.T.);
#612=EDGE_CURVE('',#480,#508,#61,.T.);
#613=EDGE_CURVE('',#472,#507,#62,.T.);
#614=EDGE_CURVE('',#506,#505,#63,.T.);
#615=EDGE_CURVE('',#504,#509,#64,.T.);
#616=EDGE_CURVE('',#509,#474,#437,.T.);
#617=EDGE_CURVE('',#510,#475,#438,.T.);
#618=EDGE_CURVE('',#509,#510,#439,.T.);
#619=EDGE_CURVE('',#510,#503,#65,.T.);
#620=EDGE_CURVE('',#500,#477,#66,.T.);
#621=EDGE_CURVE('',#502,#501,#67,.T.);
#622=EDGE_CURVE('',#469,#485,#68,.T.);
#623=EDGE_CURVE('',#484,#468,#69,.T.);
#624=EDGE_CURVE('',#479,#511,#33,.T.);
#625=EDGE_CURVE('',#511,#469,#70,.T.);
#626=EDGE_CURVE('',#499,#511,#71,.T.);
#627=EDGE_CURVE('',#478,#500,#72,.T.);
#628=EDGE_CURVE('',#490,#512,#73,.T.);
#629=EDGE_CURVE('',#513,#512,#74,.T.);
#630=EDGE_CURVE('',#513,#480,#75,.T.);
#631=EDGE_CURVE('',#514,#501,#76,.T.);
#632=EDGE_CURVE('',#514,#515,#440,.T.);
#633=EDGE_CURVE('',#515,#499,#77,.T.);
#634=EDGE_CURVE('',#516,#515,#78,.T.);
#635=EDGE_CURVE('',#511,#516,#79,.T.);
#636=EDGE_CURVE('',#512,#517,#441,.T.);
#637=EDGE_CURVE('',#517,#516,#80,.T.);
#638=EDGE_CURVE('',#514,#518,#81,.T.);
#639=EDGE_CURVE('',#519,#518,#442,.T.);
#640=EDGE_CURVE('',#519,#520,#82,.T.);
#641=EDGE_CURVE('',#521,#520,#443,.T.);
#642=EDGE_CURVE('',#521,#522,#83,.T.);
#643=EDGE_CURVE('',#523,#522,#444,.T.);
#644=EDGE_CURVE('',#523,#524,#84,.T.);
#645=EDGE_CURVE('',#525,#524,#445,.T.);
#646=EDGE_CURVE('',#525,#513,#85,.T.);
#647=EDGE_CURVE('',#526,#527,#86,.T.);
#648=EDGE_CURVE('',#527,#528,#87,.T.);
#649=EDGE_CURVE('',#528,#526,#88,.T.);
#650=EDGE_CURVE('',#529,#530,#89,.T.);
#651=EDGE_CURVE('',#530,#531,#90,.T.);
#652=EDGE_CURVE('',#531,#529,#91,.T.);
#653=EDGE_CURVE('',#532,#532,#446,.T.);
#654=EDGE_CURVE('',#533,#533,#447,.T.);
#655=EDGE_CURVE('',#534,#534,#448,.T.);
#656=EDGE_CURVE('',#535,#535,#449,.T.);
#657=EDGE_CURVE('',#525,#508,#92,.T.);
#658=EDGE_CURVE('',#524,#506,#93,.T.);
#659=EDGE_CURVE('',#523,#505,#94,.T.);
#660=EDGE_CURVE('',#522,#504,#95,.T.);
#661=EDGE_CURVE('',#509,#521,#96,.T.);
#662=EDGE_CURVE('',#503,#519,#97,.T.);
#663=EDGE_CURVE('',#518,#502,#98,.T.);
#664=EDGE_CURVE('',#520,#510,#99,.T.);
#665=EDGE_CURVE('',#529,#478,#100,.T.);
#666=EDGE_CURVE('',#500,#531,#101,.T.);
#667=EDGE_CURVE('',#477,#530,#102,.T.);
#668=EDGE_CURVE('',#526,#507,#103,.T.);
#669=EDGE_CURVE('',#471,#528,#104,.T.);
#670=EDGE_CURVE('',#472,#527,#105,.T.);
#671=EDGE_CURVE('',#491,#535,#106,.T.);
#672=EDGE_CURVE('',#492,#454,#107,.T.);
#673=EDGE_CURVE('',#493,#534,#108,.T.);
#674=EDGE_CURVE('',#494,#451,#109,.T.);
#675=EDGE_CURVE('',#495,#460,#110,.T.);
#676=EDGE_CURVE('',#496,#533,#111,.T.);
#677=EDGE_CURVE('',#497,#457,#112,.T.);
#678=EDGE_CURVE('',#498,#532,#113,.T.);
#679=EDGE_CURVE('',#489,#517,#114,.T.);
#680=ORIENTED_EDGE('',*,*,#536,.T.);
#681=ORIENTED_EDGE('',*,*,#537,.F.);
#682=ORIENTED_EDGE('',*,*,#538,.F.);
#683=ORIENTED_EDGE('',*,*,#539,.T.);
#684=ORIENTED_EDGE('',*,*,#536,.F.);
#685=ORIENTED_EDGE('',*,*,#539,.F.);
#686=ORIENTED_EDGE('',*,*,#540,.T.);
#687=ORIENTED_EDGE('',*,*,#541,.F.);
#688=ORIENTED_EDGE('',*,*,#542,.F.);
#689=ORIENTED_EDGE('',*,*,#543,.T.);
#690=ORIENTED_EDGE('',*,*,#540,.F.);
#691=ORIENTED_EDGE('',*,*,#543,.F.);
#692=ORIENTED_EDGE('',*,*,#544,.T.);
#693=ORIENTED_EDGE('',*,*,#545,.F.);
#694=ORIENTED_EDGE('',*,*,#546,.F.);
#695=ORIENTED_EDGE('',*,*,#547,.T.);
#696=ORIENTED_EDGE('',*,*,#544,.F.);
#697=ORIENTED_EDGE('',*,*,#547,.F.);
#698=ORIENTED_EDGE('',*,*,#548,.T.);
#699=ORIENTED_EDGE('',*,*,#549,.F.);
#700=ORIENTED_EDGE('',*,*,#550,.F.);
#701=ORIENTED_EDGE('',*,*,#551,.T.);
#702=ORIENTED_EDGE('',*,*,#548,.F.);
#703=ORIENTED_EDGE('',*,*,#551,.F.);
#704=ORIENTED_EDGE('',*,*,#552,.F.);
#705=ORIENTED_EDGE('',*,*,#553,.T.);
#706=ORIENTED_EDGE('',*,*,#554,.F.);
#707=ORIENTED_EDGE('',*,*,#553,.F.);
#708=ORIENTED_EDGE('',*,*,#555,.T.);
#709=ORIENTED_EDGE('',*,*,#556,.T.);
#710=ORIENTED_EDGE('',*,*,#557,.T.);
#711=ORIENTED_EDGE('',*,*,#558,.T.);
#712=ORIENTED_EDGE('',*,*,#559,.T.);
#713=ORIENTED_EDGE('',*,*,#555,.F.);
#714=ORIENTED_EDGE('',*,*,#560,.T.);
#715=ORIENTED_EDGE('',*,*,#558,.F.);
#716=ORIENTED_EDGE('',*,*,#561,.T.);
#717=ORIENTED_EDGE('',*,*,#562,.T.);
#718=ORIENTED_EDGE('',*,*,#560,.F.);
#719=ORIENTED_EDGE('',*,*,#563,.F.);
#720=ORIENTED_EDGE('',*,*,#564,.F.);
#721=ORIENTED_EDGE('',*,*,#565,.T.);
#722=ORIENTED_EDGE('',*,*,#566,.F.);
#723=ORIENTED_EDGE('',*,*,#567,.F.);
#724=ORIENTED_EDGE('',*,*,#568,.F.);
#725=ORIENTED_EDGE('',*,*,#569,.F.);
#726=ORIENTED_EDGE('',*,*,#570,.F.);
#727=ORIENTED_EDGE('',*,*,#571,.T.);
#728=ORIENTED_EDGE('',*,*,#572,.F.);
#729=ORIENTED_EDGE('',*,*,#573,.F.);
#730=ORIENTED_EDGE('',*,*,#557,.F.);
#731=ORIENTED_EDGE('',*,*,#574,.T.);
#732=ORIENTED_EDGE('',*,*,#575,.F.);
#733=ORIENTED_EDGE('',*,*,#563,.T.);
#734=ORIENTED_EDGE('',*,*,#556,.F.);
#735=ORIENTED_EDGE('',*,*,#576,.T.);
#736=ORIENTED_EDGE('',*,*,#577,.F.);
#737=ORIENTED_EDGE('',*,*,#578,.T.);
#738=ORIENTED_EDGE('',*,*,#579,.T.);
#739=ORIENTED_EDGE('',*,*,#580,.T.);
#740=ORIENTED_EDGE('',*,*,#581,.T.);
#741=ORIENTED_EDGE('',*,*,#582,.T.);
#742=ORIENTED_EDGE('',*,*,#583,.T.);
#743=ORIENTED_EDGE('',*,*,#584,.T.);
#744=ORIENTED_EDGE('',*,*,#579,.F.);
#745=ORIENTED_EDGE('',*,*,#585,.T.);
#746=ORIENTED_EDGE('',*,*,#586,.T.);
#747=ORIENTED_EDGE('',*,*,#577,.T.);
#748=ORIENTED_EDGE('',*,*,#583,.F.);
#749=ORIENTED_EDGE('',*,*,#587,.T.);
#750=ORIENTED_EDGE('',*,*,#587,.F.);
#751=ORIENTED_EDGE('',*,*,#585,.F.);
#752=ORIENTED_EDGE('',*,*,#582,.F.);
#753=ORIENTED_EDGE('',*,*,#588,.F.);
#754=ORIENTED_EDGE('',*,*,#589,.F.);
#755=ORIENTED_EDGE('',*,*,#590,.F.);
#756=ORIENTED_EDGE('',*,*,#554,.T.);
#757=ORIENTED_EDGE('',*,*,#591,.T.);
#758=ORIENTED_EDGE('',*,*,#592,.T.);
#759=ORIENTED_EDGE('',*,*,#593,.T.);
#760=ORIENTED_EDGE('',*,*,#594,.T.);
#761=ORIENTED_EDGE('',*,*,#595,.T.);
#762=ORIENTED_EDGE('',*,*,#596,.T.);
#763=ORIENTED_EDGE('',*,*,#597,.T.);
#764=ORIENTED_EDGE('',*,*,#598,.T.);
#765=ORIENTED_EDGE('',*,*,#599,.T.);
#766=ORIENTED_EDGE('',*,*,#600,.T.);
#767=ORIENTED_EDGE('',*,*,#601,.T.);
#768=ORIENTED_EDGE('',*,*,#602,.T.);
#769=ORIENTED_EDGE('',*,*,#603,.T.);
#770=ORIENTED_EDGE('',*,*,#604,.T.);
#771=ORIENTED_EDGE('',*,*,#605,.T.);
#772=ORIENTED_EDGE('',*,*,#606,.T.);
#773=ORIENTED_EDGE('',*,*,#607,.T.);
#774=ORIENTED_EDGE('',*,*,#608,.T.);
#775=ORIENTED_EDGE('',*,*,#609,.T.);
#776=ORIENTED_EDGE('',*,*,#610,.T.);
#777=ORIENTED_EDGE('',*,*,#609,.F.);
#778=ORIENTED_EDGE('',*,*,#611,.T.);
#779=ORIENTED_EDGE('',*,*,#564,.T.);
#780=ORIENTED_EDGE('',*,*,#575,.T.);
#781=ORIENTED_EDGE('',*,*,#612,.T.);
#782=ORIENTED_EDGE('',*,*,#606,.F.);
#783=ORIENTED_EDGE('',*,*,#566,.T.);
#784=ORIENTED_EDGE('',*,*,#613,.T.);
#785=ORIENTED_EDGE('',*,*,#608,.F.);
#786=ORIENTED_EDGE('',*,*,#614,.T.);
#787=ORIENTED_EDGE('',*,*,#605,.F.);
#788=ORIENTED_EDGE('',*,*,#615,.T.);
#789=ORIENTED_EDGE('',*,*,#616,.T.);
#790=ORIENTED_EDGE('',*,*,#567,.T.);
#791=ORIENTED_EDGE('',*,*,#617,.T.);
#792=ORIENTED_EDGE('',*,*,#568,.T.);
#793=ORIENTED_EDGE('',*,*,#616,.F.);
#794=ORIENTED_EDGE('',*,*,#618,.T.);
#795=ORIENTED_EDGE('',*,*,#603,.F.);
#796=ORIENTED_EDGE('',*,*,#569,.T.);
#797=ORIENTED_EDGE('',*,*,#617,.F.);
#798=ORIENTED_EDGE('',*,*,#619,.T.);
#799=ORIENTED_EDGE('',*,*,#600,.F.);
#800=ORIENTED_EDGE('',*,*,#620,.T.);
#801=ORIENTED_EDGE('',*,*,#570,.T.);
#802=ORIENTED_EDGE('',*,*,#602,.F.);
#803=ORIENTED_EDGE('',*,*,#621,.T.);
#804=ORIENTED_EDGE('',*,*,#562,.F.);
#805=ORIENTED_EDGE('',*,*,#622,.T.);
#806=ORIENTED_EDGE('',*,*,#580,.F.);
#807=ORIENTED_EDGE('',*,*,#623,.T.);
#808=ORIENTED_EDGE('',*,*,#561,.F.);
#809=ORIENTED_EDGE('',*,*,#573,.T.);
#810=ORIENTED_EDGE('',*,*,#624,.T.);
#811=ORIENTED_EDGE('',*,*,#625,.T.);
#812=ORIENTED_EDGE('',*,*,#599,.F.);
#813=ORIENTED_EDGE('',*,*,#626,.T.);
#814=ORIENTED_EDGE('',*,*,#624,.F.);
#815=ORIENTED_EDGE('',*,*,#572,.T.);
#816=ORIENTED_EDGE('',*,*,#627,.T.);
#817=ORIENTED_EDGE('',*,*,#559,.F.);
#818=ORIENTED_EDGE('',*,*,#623,.F.);
#819=ORIENTED_EDGE('',*,*,#584,.F.);
#820=ORIENTED_EDGE('',*,*,#576,.F.);
#821=ORIENTED_EDGE('',*,*,#590,.T.);
#822=ORIENTED_EDGE('',*,*,#628,.T.);
#823=ORIENTED_EDGE('',*,*,#629,.F.);
#824=ORIENTED_EDGE('',*,*,#630,.T.);
#825=ORIENTED_EDGE('',*,*,#574,.F.);
#826=ORIENTED_EDGE('',*,*,#578,.F.);
#827=ORIENTED_EDGE('',*,*,#586,.F.);
#828=ORIENTED_EDGE('',*,*,#601,.F.);
#829=ORIENTED_EDGE('',*,*,#631,.F.);
#830=ORIENTED_EDGE('',*,*,#632,.T.);
#831=ORIENTED_EDGE('',*,*,#633,.T.);
#832=ORIENTED_EDGE('',*,*,#626,.F.);
#833=ORIENTED_EDGE('',*,*,#633,.F.);
#834=ORIENTED_EDGE('',*,*,#634,.F.);
#835=ORIENTED_EDGE('',*,*,#635,.F.);
#836=ORIENTED_EDGE('',*,*,#629,.T.);
#837=ORIENTED_EDGE('',*,*,#636,.T.);
#838=ORIENTED_EDGE('',*,*,#637,.T.);
#839=ORIENTED_EDGE('',*,*,#634,.T.);
#840=ORIENTED_EDGE('',*,*,#632,.F.);
#841=ORIENTED_EDGE('',*,*,#638,.T.);
#842=ORIENTED_EDGE('',*,*,#639,.F.);
#843=ORIENTED_EDGE('',*,*,#640,.T.);
#844=ORIENTED_EDGE('',*,*,#641,.F.);
#845=ORIENTED_EDGE('',*,*,#642,.T.);
#846=ORIENTED_EDGE('',*,*,#643,.F.);
#847=ORIENTED_EDGE('',*,*,#644,.T.);
#848=ORIENTED_EDGE('',*,*,#645,.F.);
#849=ORIENTED_EDGE('',*,*,#646,.T.);
#850=ORIENTED_EDGE('',*,*,#538,.T.);
#851=ORIENTED_EDGE('',*,*,#542,.T.);
#852=ORIENTED_EDGE('',*,*,#546,.T.);
#853=ORIENTED_EDGE('',*,*,#550,.T.);
#854=ORIENTED_EDGE('',*,*,#552,.T.);
#855=ORIENTED_EDGE('',*,*,#647,.T.);
#856=ORIENTED_EDGE('',*,*,#648,.T.);
#857=ORIENTED_EDGE('',*,*,#649,.T.);
#858=ORIENTED_EDGE('',*,*,#650,.T.);
#859=ORIENTED_EDGE('',*,*,#651,.T.);
#860=ORIENTED_EDGE('',*,*,#652,.T.);
#861=ORIENTED_EDGE('',*,*,#653,.T.);
#862=ORIENTED_EDGE('',*,*,#654,.T.);
#863=ORIENTED_EDGE('',*,*,#655,.T.);
#864=ORIENTED_EDGE('',*,*,#656,.T.);
#865=ORIENTED_EDGE('',*,*,#610,.F.);
#866=ORIENTED_EDGE('',*,*,#657,.F.);
#867=ORIENTED_EDGE('',*,*,#645,.T.);
#868=ORIENTED_EDGE('',*,*,#658,.T.);
#869=ORIENTED_EDGE('',*,*,#614,.F.);
#870=ORIENTED_EDGE('',*,*,#658,.F.);
#871=ORIENTED_EDGE('',*,*,#644,.F.);
#872=ORIENTED_EDGE('',*,*,#659,.T.);
#873=ORIENTED_EDGE('',*,*,#607,.F.);
#874=ORIENTED_EDGE('',*,*,#659,.F.);
#875=ORIENTED_EDGE('',*,*,#643,.T.);
#876=ORIENTED_EDGE('',*,*,#660,.T.);
#877=ORIENTED_EDGE('',*,*,#615,.F.);
#878=ORIENTED_EDGE('',*,*,#660,.F.);
#879=ORIENTED_EDGE('',*,*,#642,.F.);
#880=ORIENTED_EDGE('',*,*,#661,.F.);
#881=ORIENTED_EDGE('',*,*,#604,.F.);
#882=ORIENTED_EDGE('',*,*,#662,.T.);
#883=ORIENTED_EDGE('',*,*,#639,.T.);
#884=ORIENTED_EDGE('',*,*,#663,.T.);
#885=ORIENTED_EDGE('',*,*,#619,.F.);
#886=ORIENTED_EDGE('',*,*,#664,.F.);
#887=ORIENTED_EDGE('',*,*,#640,.F.);
#888=ORIENTED_EDGE('',*,*,#662,.F.);
#889=ORIENTED_EDGE('',*,*,#618,.F.);
#890=ORIENTED_EDGE('',*,*,#661,.T.);
#891=ORIENTED_EDGE('',*,*,#641,.T.);
#892=ORIENTED_EDGE('',*,*,#664,.T.);
#893=ORIENTED_EDGE('',*,*,#665,.F.);
#894=ORIENTED_EDGE('',*,*,#652,.F.);
#895=ORIENTED_EDGE('',*,*,#666,.F.);
#896=ORIENTED_EDGE('',*,*,#627,.F.);
#897=ORIENTED_EDGE('',*,*,#666,.T.);
#898=ORIENTED_EDGE('',*,*,#651,.F.);
#899=ORIENTED_EDGE('',*,*,#667,.F.);
#900=ORIENTED_EDGE('',*,*,#620,.F.);
#901=ORIENTED_EDGE('',*,*,#667,.T.);
#902=ORIENTED_EDGE('',*,*,#650,.F.);
#903=ORIENTED_EDGE('',*,*,#665,.T.);
#904=ORIENTED_EDGE('',*,*,#571,.F.);
#905=ORIENTED_EDGE('',*,*,#668,.F.);
#906=ORIENTED_EDGE('',*,*,#649,.F.);
#907=ORIENTED_EDGE('',*,*,#669,.F.);
#908=ORIENTED_EDGE('',*,*,#611,.F.);
#909=ORIENTED_EDGE('',*,*,#669,.T.);
#910=ORIENTED_EDGE('',*,*,#648,.F.);
#911=ORIENTED_EDGE('',*,*,#670,.F.);
#912=ORIENTED_EDGE('',*,*,#565,.F.);
#913=ORIENTED_EDGE('',*,*,#670,.T.);
#914=ORIENTED_EDGE('',*,*,#647,.F.);
#915=ORIENTED_EDGE('',*,*,#668,.T.);
#916=ORIENTED_EDGE('',*,*,#613,.F.);
#917=ORIENTED_EDGE('',*,*,#612,.F.);
#918=ORIENTED_EDGE('',*,*,#630,.F.);
#919=ORIENTED_EDGE('',*,*,#646,.F.);
#920=ORIENTED_EDGE('',*,*,#657,.T.);
#921=ORIENTED_EDGE('',*,*,#591,.F.);
#922=ORIENTED_EDGE('',*,*,#671,.T.);
#923=ORIENTED_EDGE('',*,*,#656,.F.);
#924=ORIENTED_EDGE('',*,*,#671,.F.);
#925=ORIENTED_EDGE('',*,*,#592,.F.);
#926=ORIENTED_EDGE('',*,*,#672,.T.);
#927=ORIENTED_EDGE('',*,*,#541,.T.);
#928=ORIENTED_EDGE('',*,*,#672,.F.);
#929=ORIENTED_EDGE('',*,*,#593,.F.);
#930=ORIENTED_EDGE('',*,*,#673,.T.);
#931=ORIENTED_EDGE('',*,*,#655,.F.);
#932=ORIENTED_EDGE('',*,*,#673,.F.);
#933=ORIENTED_EDGE('',*,*,#594,.F.);
#934=ORIENTED_EDGE('',*,*,#674,.T.);
#935=ORIENTED_EDGE('',*,*,#537,.T.);
#936=ORIENTED_EDGE('',*,*,#674,.F.);
#937=ORIENTED_EDGE('',*,*,#595,.F.);
#938=ORIENTED_EDGE('',*,*,#675,.T.);
#939=ORIENTED_EDGE('',*,*,#549,.T.);
#940=ORIENTED_EDGE('',*,*,#675,.F.);
#941=ORIENTED_EDGE('',*,*,#596,.F.);
#942=ORIENTED_EDGE('',*,*,#676,.T.);
#943=ORIENTED_EDGE('',*,*,#654,.F.);
#944=ORIENTED_EDGE('',*,*,#676,.F.);
#945=ORIENTED_EDGE('',*,*,#597,.F.);
#946=ORIENTED_EDGE('',*,*,#677,.T.);
#947=ORIENTED_EDGE('',*,*,#545,.T.);
#948=ORIENTED_EDGE('',*,*,#677,.F.);
#949=ORIENTED_EDGE('',*,*,#598,.F.);
#950=ORIENTED_EDGE('',*,*,#678,.T.);
#951=ORIENTED_EDGE('',*,*,#653,.F.);
#952=ORIENTED_EDGE('',*,*,#678,.F.);
#953=ORIENTED_EDGE('',*,*,#621,.F.);
#954=ORIENTED_EDGE('',*,*,#663,.F.);
#955=ORIENTED_EDGE('',*,*,#638,.F.);
#956=ORIENTED_EDGE('',*,*,#631,.T.);
#957=ORIENTED_EDGE('',*,*,#625,.F.);
#958=ORIENTED_EDGE('',*,*,#635,.T.);
#959=ORIENTED_EDGE('',*,*,#637,.F.);
#960=ORIENTED_EDGE('',*,*,#679,.F.);
#961=ORIENTED_EDGE('',*,*,#588,.T.);
#962=ORIENTED_EDGE('',*,*,#581,.F.);
#963=ORIENTED_EDGE('',*,*,#622,.F.);
#964=ORIENTED_EDGE('',*,*,#589,.T.);
#965=ORIENTED_EDGE('',*,*,#679,.T.);
#966=ORIENTED_EDGE('',*,*,#636,.F.);
#967=ORIENTED_EDGE('',*,*,#628,.F.);
#968=PLANE('',#1075);
#969=PLANE('',#1080);
#970=PLANE('',#1085);
#971=PLANE('',#1090);
#972=PLANE('',#1107);
#973=PLANE('',#1121);
#974=PLANE('',#1156);
#975=PLANE('',#1157);
#976=PLANE('',#1160);
#977=PLANE('',#1161);
#978=PLANE('',#1172);
#979=PLANE('',#1174);
#980=PLANE('',#1176);
#981=PLANE('',#1178);
#982=PLANE('',#1179);
#983=PLANE('',#1180);
#984=PLANE('',#1181);
#985=PLANE('',#1182);
#986=PLANE('',#1183);
#987=PLANE('',#1184);
#988=PLANE('',#1193);
#989=PLANE('',#1194);
#990=ADVANCED_FACE('',(#249,#225),#968,.T.);
#991=ADVANCED_FACE('',(#250),#194,.F.);
#992=ADVANCED_FACE('',(#251,#226),#969,.T.);
#993=ADVANCED_FACE('',(#252),#195,.F.);
#994=ADVANCED_FACE('',(#253,#227),#970,.T.);
#995=ADVANCED_FACE('',(#254),#196,.F.);
#996=ADVANCED_FACE('',(#255,#228),#971,.T.);
#997=ADVANCED_FACE('',(#256),#197,.F.);
#998=ADVANCED_FACE('',(#257),#198,.F.);
#999=ADVANCED_FACE('',(#258),#34,.T.);
#1000=ADVANCED_FACE('',(#259),#199,.T.);
#1001=ADVANCED_FACE('',(#260),#35,.T.);
#1002=ADVANCED_FACE('',(#261),#972,.F.);
#1003=ADVANCED_FACE('',(#262),#200,.T.);
#1004=ADVANCED_FACE('',(#263),#201,.T.);
#1005=ADVANCED_FACE('',(#264),#21,.F.);
#1006=ADVANCED_FACE('',(#265),#202,.F.);
#1007=ADVANCED_FACE('',(#266),#22,.F.);
#1008=ADVANCED_FACE('',(#267,#229,#230,#231,#232,#233,#234,#235,#236,#237),
#973,.F.);
#1009=ADVANCED_FACE('',(#268),#15,.F.);
#1010=ADVANCED_FACE('',(#269),#16,.F.);
#1011=ADVANCED_FACE('',(#270),#17,.F.);
#1012=ADVANCED_FACE('',(#271),#18,.F.);
#1013=ADVANCED_FACE('',(#272),#203,.T.);
#1014=ADVANCED_FACE('',(#273),#204,.T.);
#1015=ADVANCED_FACE('',(#274),#205,.T.);
#1016=ADVANCED_FACE('',(#275),#23,.T.);
#1017=ADVANCED_FACE('',(#276),#206,.T.);
#1018=ADVANCED_FACE('',(#277),#207,.T.);
#1019=ADVANCED_FACE('',(#278),#208,.T.);
#1020=ADVANCED_FACE('',(#279),#209,.T.);
#1021=ADVANCED_FACE('',(#280),#210,.T.);
#1022=ADVANCED_FACE('',(#281),#974,.T.);
#1023=ADVANCED_FACE('',(#282),#975,.T.);
#1024=ADVANCED_FACE('',(#283),#211,.T.);
#1025=ADVANCED_FACE('',(#284),#976,.T.);
#1026=ADVANCED_FACE('',(#285,#238,#239,#240,#241,#242,#243,#244,#245,#246,
#247,#248),#977,.T.);
#1027=ADVANCED_FACE('',(#286),#212,.T.);
#1028=ADVANCED_FACE('',(#287),#978,.T.);
#1029=ADVANCED_FACE('',(#288),#213,.T.);
#1030=ADVANCED_FACE('',(#289),#979,.F.);
#1031=ADVANCED_FACE('',(#290),#214,.T.);
#1032=ADVANCED_FACE('',(#291),#980,.F.);
#1033=ADVANCED_FACE('',(#292),#215,.F.);
#1034=ADVANCED_FACE('',(#293),#981,.T.);
#1035=ADVANCED_FACE('',(#294),#982,.T.);
#1036=ADVANCED_FACE('',(#295),#983,.T.);
#1037=ADVANCED_FACE('',(#296),#984,.T.);
#1038=ADVANCED_FACE('',(#297),#985,.T.);
#1039=ADVANCED_FACE('',(#298),#986,.T.);
#1040=ADVANCED_FACE('',(#299),#987,.T.);
#1041=ADVANCED_FACE('',(#300),#216,.F.);
#1042=ADVANCED_FACE('',(#301),#217,.F.);
#1043=ADVANCED_FACE('',(#302),#218,.F.);
#1044=ADVANCED_FACE('',(#303),#219,.F.);
#1045=ADVANCED_FACE('',(#304),#220,.F.);
#1046=ADVANCED_FACE('',(#305),#221,.F.);
#1047=ADVANCED_FACE('',(#306),#222,.F.);
#1048=ADVANCED_FACE('',(#307),#223,.F.);
#1049=ADVANCED_FACE('',(#308),#988,.T.);
#1050=ADVANCED_FACE('',(#309),#989,.T.);
#1051=ADVANCED_FACE('',(#310),#224,.T.);
#1052=CLOSED_SHELL('',(#990,#991,#992,#993,#994,#995,#996,#997,#998,#999,
#1000,#1001,#1002,#1003,#1004,#1005,#1006,#1007,#1008,#1009,#1010,#1011,
#1012,#1013,#1014,#1015,#1016,#1017,#1018,#1019,#1020,#1021,#1022,#1023,
#1024,#1025,#1026,#1027,#1028,#1029,#1030,#1031,#1032,#1033,#1034,#1035,
#1036,#1037,#1038,#1039,#1040,#1041,#1042,#1043,#1044,#1045,#1046,#1047,
#1048,#1049,#1050,#1051));
#1053=DERIVED_UNIT_ELEMENT(#1056,1.);
#1054=DERIVED_UNIT_ELEMENT(#1981,-3.);
#1055=DIMENSIONAL_EXPONENTS(0.,1.,0.,0.,0.,0.,0.);
#1056=(
CONVERSION_BASED_UNIT('gram',#1058)
MASS_UNIT()
NAMED_UNIT(#1055)
);
#1057=(
MASS_UNIT()
NAMED_UNIT(*)
SI_UNIT(.KILO.,.GRAM.)
);
#1058=MASS_MEASURE_WITH_UNIT(MASS_MEASURE(0.001),#1057);
#1059=DERIVED_UNIT((#1053,#1054));
#1060=MEASURE_REPRESENTATION_ITEM('density measure',
POSITIVE_RATIO_MEASURE(1.),#1059);
#1061=PROPERTY_DEFINITION_REPRESENTATION(#1066,#1063);
#1062=PROPERTY_DEFINITION_REPRESENTATION(#1067,#1064);
#1063=REPRESENTATION('material name',(#1065),#1978);
#1064=REPRESENTATION('density',(#1060),#1978);
#1065=DESCRIPTIVE_REPRESENTATION_ITEM('Generic','Generic');
#1066=PROPERTY_DEFINITION('material property','material name',#1988);
#1067=PROPERTY_DEFINITION('material property','density of part',#1988);
#1068=DATE_TIME_ROLE('creation_date');
#1069=APPLIED_DATE_AND_TIME_ASSIGNMENT(#1070,#1068,(#1988));
#1070=DATE_AND_TIME(#1071,#1072);
#1071=CALENDAR_DATE(2026,19,9);
#1072=LOCAL_TIME(0,0,0.,#1073);
#1073=COORDINATED_UNIVERSAL_TIME_OFFSET(0,0,.BEHIND.);
#1074=AXIS2_PLACEMENT_3D('',#1519,#1196,#1197);
#1075=AXIS2_PLACEMENT_3D('',#1520,#1198,#1199);
#1076=AXIS2_PLACEMENT_3D('',#1522,#1200,#1201);
#1077=AXIS2_PLACEMENT_3D('',#1524,#1202,#1203);
#1078=AXIS2_PLACEMENT_3D('',#1525,#1204,#1205);
#1079=AXIS2_PLACEMENT_3D('',#1527,#1206,#1207);
#1080=AXIS2_PLACEMENT_3D('',#1529,#1209,#1210);
#1081=AXIS2_PLACEMENT_3D('',#1531,#1211,#1212);
#1082=AXIS2_PLACEMENT_3D('',#1533,#1213,#1214);
#1083=AXIS2_PLACEMENT_3D('',#1534,#1215,#1216);
#1084=AXIS2_PLACEMENT_3D('',#1536,#1217,#1218);
#1085=AXIS2_PLACEMENT_3D('',#1538,#1220,#1221);
#1086=AXIS2_PLACEMENT_3D('',#1540,#1222,#1223);
#1087=AXIS2_PLACEMENT_3D('',#1542,#1224,#1225);
#1088=AXIS2_PLACEMENT_3D('',#1543,#1226,#1227);
#1089=AXIS2_PLACEMENT_3D('',#1545,#1228,#1229);
#1090=AXIS2_PLACEMENT_3D('',#1547,#1231,#1232);
#1091=AXIS2_PLACEMENT_3D('',#1549,#1233,#1234);
#1092=AXIS2_PLACEMENT_3D('',#1551,#1235,#1236);
#1093=AXIS2_PLACEMENT_3D('',#1552,#1237,#1238);
#1094=AXIS2_PLACEMENT_3D('',#1554,#1239,#1240);
#1095=AXIS2_PLACEMENT_3D('',#1556,#1242,#1243);
#1096=AXIS2_PLACEMENT_3D('',#1558,#1244,#1245);
#1097=AXIS2_PLACEMENT_3D('',#1561,#1247,#1248);
#1098=AXIS2_PLACEMENT_3D('',#1562,#1249,#1250);
#1099=AXIS2_PLACEMENT_3D('',#1565,#1251,#1252);
#1100=AXIS2_PLACEMENT_3D('',#1567,#1253,#1254);
#1101=AXIS2_PLACEMENT_3D('',#1568,#1255,#1256);
#1102=AXIS2_PLACEMENT_3D('',#1569,#1257,#1258);
#1103=AXIS2_PLACEMENT_3D('',#1572,#1259,#1260);
#1104=AXIS2_PLACEMENT_3D('',#1575,#1263,#1264);
#1105=AXIS2_PLACEMENT_3D('',#1577,#1265,#1266);
#1106=AXIS2_PLACEMENT_3D('',#1578,#1267,#1268);
#1107=AXIS2_PLACEMENT_3D('',#1579,#1269,#1270);
#1108=AXIS2_PLACEMENT_3D('',#1591,#1276,#1277);
#1109=AXIS2_PLACEMENT_3D('',#1601,#1283,#1284);
#1110=AXIS2_PLACEMENT_3D('',#1604,#1286,#1287);
#1111=AXIS2_PLACEMENT_3D('',#1605,#1288,#1289);
#1112=AXIS2_PLACEMENT_3D('',#1609,#1291,#1292);
#1113=AXIS2_PLACEMENT_3D('',#1611,#1294,#1295);
#1114=AXIS2_PLACEMENT_3D('',#1614,#1296,#1297);
#1115=AXIS2_PLACEMENT_3D('',#1616,#1298,#1299);
#1116=AXIS2_PLACEMENT_3D('',#1628,#1300,#1301);
#1117=AXIS2_PLACEMENT_3D('',#1629,#1302,#1303);
#1118=AXIS2_PLACEMENT_3D('',#1631,#1304,#1305);
#1119=AXIS2_PLACEMENT_3D('',#1634,#1308,#1309);
#1120=AXIS2_PLACEMENT_3D('',#1646,#1310,#1311);
#1121=AXIS2_PLACEMENT_3D('',#1647,#1312,#1313);
#1122=AXIS2_PLACEMENT_3D('',#1651,#1315,#1316);
#1123=AXIS2_PLACEMENT_3D('',#1654,#1318,#1319);
#1124=AXIS2_PLACEMENT_3D('',#1656,#1320,#1321);
#1125=AXIS2_PLACEMENT_3D('',#1658,#1322,#1323);
#1126=AXIS2_PLACEMENT_3D('',#1660,#1324,#1325);
#1127=AXIS2_PLACEMENT_3D('',#1662,#1326,#1327);
#1128=AXIS2_PLACEMENT_3D('',#1664,#1328,#1329);
#1129=AXIS2_PLACEMENT_3D('',#1666,#1330,#1331);
#1130=AXIS2_PLACEMENT_3D('',#1668,#1332,#1333);
#1131=AXIS2_PLACEMENT_3D('',#1713,#1334,#1335);
#1132=AXIS2_PLACEMENT_3D('',#1715,#1336,#1337);
#1133=AXIS2_PLACEMENT_3D('',#1716,#1338,#1339);
#1134=AXIS2_PLACEMENT_3D('',#1748,#1340,#1341);
#1135=AXIS2_PLACEMENT_3D('',#1750,#1342,#1343);
#1136=AXIS2_PLACEMENT_3D('',#1751,#1344,#1345);
#1137=AXIS2_PLACEMENT_3D('',#1783,#1346,#1347);
#1138=AXIS2_PLACEMENT_3D('',#1785,#1348,#1349);
#1139=AXIS2_PLACEMENT_3D('',#1786,#1350,#1351);
#1140=AXIS2_PLACEMENT_3D('',#1837,#1352,#1353);
#1141=AXIS2_PLACEMENT_3D('',#1839,#1354,#1355);
#1142=AXIS2_PLACEMENT_3D('',#1840,#1356,#1357);
#1143=AXIS2_PLACEMENT_3D('',#1841,#1358,#1359);
#1144=AXIS2_PLACEMENT_3D('',#1844,#1362,#1363);
#1145=AXIS2_PLACEMENT_3D('',#1847,#1366,#1367);
#1146=AXIS2_PLACEMENT_3D('',#1850,#1369,#1370);
#1147=AXIS2_PLACEMENT_3D('',#1851,#1371,#1372);
#1148=AXIS2_PLACEMENT_3D('',#1853,#1373,#1374);
#1149=AXIS2_PLACEMENT_3D('',#1854,#1375,#1376);
#1150=AXIS2_PLACEMENT_3D('',#1855,#1377,#1378);
#1151=AXIS2_PLACEMENT_3D('',#1857,#1380,#1381);
#1152=AXIS2_PLACEMENT_3D('',#1860,#1384,#1385);
#1153=AXIS2_PLACEMENT_3D('',#1863,#1388,#1389);
#1154=AXIS2_PLACEMENT_3D('',#1865,#1390,#1391);
#1155=AXIS2_PLACEMENT_3D('',#1867,#1393,#1394);
#1156=AXIS2_PLACEMENT_3D('',#1870,#1397,#1398);
#1157=AXIS2_PLACEMENT_3D('',#1871,#1399,#1400);
#1158=AXIS2_PLACEMENT_3D('',#1877,#1404,#1405);
#1159=AXIS2_PLACEMENT_3D('',#1881,#1407,#1408);
#1160=AXIS2_PLACEMENT_3D('',#1883,#1410,#1411);
#1161=AXIS2_PLACEMENT_3D('',#1887,#1414,#1415);
#1162=AXIS2_PLACEMENT_3D('',#1889,#1416,#1417);
#1163=AXIS2_PLACEMENT_3D('',#1894,#1420,#1421);
#1164=AXIS2_PLACEMENT_3D('',#1898,#1423,#1424);
#1165=AXIS2_PLACEMENT_3D('',#1902,#1426,#1427);
#1166=AXIS2_PLACEMENT_3D('',#1906,#1429,#1430);
#1167=AXIS2_PLACEMENT_3D('',#1921,#1438,#1439);
#1168=AXIS2_PLACEMENT_3D('',#1923,#1440,#1441);
#1169=AXIS2_PLACEMENT_3D('',#1925,#1442,#1443);
#1170=AXIS2_PLACEMENT_3D('',#1927,#1444,#1445);
#1171=AXIS2_PLACEMENT_3D('',#1928,#1446,#1447);
#1172=AXIS2_PLACEMENT_3D('',#1931,#1450,#1451);
#1173=AXIS2_PLACEMENT_3D('',#1933,#1453,#1454);
#1174=AXIS2_PLACEMENT_3D('',#1935,#1456,#1457);
#1175=AXIS2_PLACEMENT_3D('',#1937,#1459,#1460);
#1176=AXIS2_PLACEMENT_3D('',#1940,#1463,#1464);
#1177=AXIS2_PLACEMENT_3D('',#1942,#1466,#1467);
#1178=AXIS2_PLACEMENT_3D('',#1943,#1468,#1469);
#1179=AXIS2_PLACEMENT_3D('',#1946,#1472,#1473);
#1180=AXIS2_PLACEMENT_3D('',#1948,#1475,#1476);
#1181=AXIS2_PLACEMENT_3D('',#1949,#1477,#1478);
#1182=AXIS2_PLACEMENT_3D('',#1952,#1481,#1482);
#1183=AXIS2_PLACEMENT_3D('',#1954,#1484,#1485);
#1184=AXIS2_PLACEMENT_3D('',#1955,#1486,#1487);
#1185=AXIS2_PLACEMENT_3D('',#1956,#1488,#1489);
#1186=AXIS2_PLACEMENT_3D('',#1958,#1491,#1492);
#1187=AXIS2_PLACEMENT_3D('',#1960,#1494,#1495);
#1188=AXIS2_PLACEMENT_3D('',#1962,#1497,#1498);
#1189=AXIS2_PLACEMENT_3D('',#1964,#1500,#1501);
#1190=AXIS2_PLACEMENT_3D('',#1966,#1503,#1504);
#1191=AXIS2_PLACEMENT_3D('',#1968,#1506,#1507);
#1192=AXIS2_PLACEMENT_3D('',#1970,#1509,#1510);
#1193=AXIS2_PLACEMENT_3D('',#1972,#1512,#1513);
#1194=AXIS2_PLACEMENT_3D('',#1973,#1514,#1515);
#1195=AXIS2_PLACEMENT_3D('',#1975,#1517,#1518);
#1196=DIRECTION('axis',(0.,0.,1.));
#1197=DIRECTION('refdir',(1.,0.,0.));
#1198=DIRECTION('center_axis',(0.,1.,0.));
#1199=DIRECTION('ref_axis',(1.,0.,0.));
#1200=DIRECTION('center_axis',(0.,1.,0.));
#1201=DIRECTION('ref_axis',(1.,0.,0.));
#1202=DIRECTION('center_axis',(0.,1.,0.));
#1203=DIRECTION('ref_axis',(-1.,0.,0.));
#1204=DIRECTION('center_axis',(0.,1.,0.));
#1205=DIRECTION('ref_axis',(1.,0.,0.));
#1206=DIRECTION('center_axis',(0.,-1.,0.));
#1207=DIRECTION('ref_axis',(1.,0.,0.));
#1208=DIRECTION('',(0.,-1.,0.));
#1209=DIRECTION('center_axis',(0.,1.,0.));
#1210=DIRECTION('ref_axis',(1.,0.,0.));
#1211=DIRECTION('center_axis',(0.,1.,0.));
#1212=DIRECTION('ref_axis',(1.,0.,0.));
#1213=DIRECTION('center_axis',(0.,1.,0.));
#1214=DIRECTION('ref_axis',(-1.,0.,0.));
#1215=DIRECTION('center_axis',(0.,1.,0.));
#1216=DIRECTION('ref_axis',(1.,0.,0.));
#1217=DIRECTION('center_axis',(0.,-1.,0.));
#1218=DIRECTION('ref_axis',(1.,0.,0.));
#1219=DIRECTION('',(0.,-1.,0.));
#1220=DIRECTION('center_axis',(0.,1.,0.));
#1221=DIRECTION('ref_axis',(1.,0.,0.));
#1222=DIRECTION('center_axis',(0.,1.,0.));
#1223=DIRECTION('ref_axis',(1.,0.,0.));
#1224=DIRECTION('center_axis',(0.,1.,0.));
#1225=DIRECTION('ref_axis',(-1.,0.,0.));
#1226=DIRECTION('center_axis',(0.,1.,0.));
#1227=DIRECTION('ref_axis',(1.,0.,0.));
#1228=DIRECTION('center_axis',(0.,-1.,0.));
#1229=DIRECTION('ref_axis',(1.,0.,0.));
#1230=DIRECTION('',(0.,-1.,0.));
#1231=DIRECTION('center_axis',(0.,1.,0.));
#1232=DIRECTION('ref_axis',(1.,0.,0.));
#1233=DIRECTION('center_axis',(0.,1.,0.));
#1234=DIRECTION('ref_axis',(1.,0.,0.));
#1235=DIRECTION('center_axis',(0.,1.,0.));
#1236=DIRECTION('ref_axis',(-1.,0.,0.));
#1237=DIRECTION('center_axis',(0.,1.,0.));
#1238=DIRECTION('ref_axis',(1.,0.,0.));
#1239=DIRECTION('center_axis',(0.,-1.,0.));
#1240=DIRECTION('ref_axis',(1.,0.,0.));
#1241=DIRECTION('',(0.,-1.,0.));
#1242=DIRECTION('center_axis',(0.,1.,0.));
#1243=DIRECTION('ref_axis',(1.,0.,0.));
#1244=DIRECTION('center_axis',(0.,-1.,0.));
#1245=DIRECTION('ref_axis',(1.,0.,0.));
#1246=DIRECTION('',(0.,-1.,0.));
#1247=DIRECTION('center_axis',(0.,1.,0.));
#1248=DIRECTION('ref_axis',(1.,0.,0.));
#1249=DIRECTION('center_axis',(0.408248290463862,-0.816496580927726,-0.408248290463863));
#1250=DIRECTION('ref_axis',(-0.577350269189625,-0.577350269189624,0.577350269189628));
#1251=DIRECTION('center_axis',(-1.,0.,5.55111512312576E-16));
#1252=DIRECTION('ref_axis',(0.,-1.,0.));
#1253=DIRECTION('center_axis',(0.,-1.,0.));
#1254=DIRECTION('ref_axis',(-0.707106781186547,0.,0.707106781186548));
#1255=DIRECTION('center_axis',(9.99200722162641E-17,0.,1.));
#1256=DIRECTION('ref_axis',(-0.707106781186548,-0.707106781186547,0.));
#1257=DIRECTION('center_axis',(-1.,0.,4.62592926927148E-16));
#1258=DIRECTION('ref_axis',(3.92523114670943E-16,-0.707106781186548,0.707106781186548));
#1259=DIRECTION('center_axis',(-1.,0.,0.));
#1260=DIRECTION('ref_axis',(0.,-1.,0.));
#1261=DIRECTION('',(-1.,0.,4.62592926927148E-16));
#1262=DIRECTION('',(1.,0.,-4.62592926927148E-16));
#1263=DIRECTION('center_axis',(-0.408248290463862,-0.816496580927727,-0.408248290463862));
#1264=DIRECTION('ref_axis',(0.577350269189627,-0.577350269189625,0.577350269189626));
#1265=DIRECTION('center_axis',(-4.44089209850063E-17,0.,1.));
#1266=DIRECTION('ref_axis',(0.707106781186548,-0.707106781186547,0.));
#1267=DIRECTION('center_axis',(0.,-1.,0.));
#1268=DIRECTION('ref_axis',(0.707106781186547,0.,0.707106781186548));
#1269=DIRECTION('center_axis',(0.,1.,0.));
#1270=DIRECTION('ref_axis',(0.,0.,1.));
#1271=DIRECTION('',(9.99200722162641E-17,0.,1.));
#1272=DIRECTION('',(0.500000000000001,0.,0.866025403784438));
#1273=DIRECTION('',(-2.10750518671395E-16,0.,-1.));
#1274=DIRECTION('',(-1.,0.,0.));
#1275=DIRECTION('',(-0.292230730474536,0.,-0.956347844754365));
#1276=DIRECTION('center_axis',(0.,-1.,0.));
#1277=DIRECTION('ref_axis',(2.52255404065149E-9,0.,1.));
#1278=DIRECTION('',(-0.292230725649662,0.,0.956347846228699));
#1279=DIRECTION('',(-1.,0.,0.));
#1280=DIRECTION('',(-2.10750518671395E-16,0.,1.));
#1281=DIRECTION('',(0.5,0.,-0.866025403784438));
#1282=DIRECTION('',(4.44089209850063E-17,0.,-1.));
#1283=DIRECTION('center_axis',(-9.99200722162641E-17,0.,-1.));
#1284=DIRECTION('ref_axis',(-0.707106781186548,-0.707106781186547,0.));
#1285=DIRECTION('',(-9.99200722162641E-17,0.,-1.));
#1286=DIRECTION('center_axis',(-0.258819045102523,-2.21662290062348E-15,
-0.965925826289068));
#1287=DIRECTION('ref_axis',(0.965925826289068,-8.2725492863476E-15,-0.258819045102523));
#1288=DIRECTION('center_axis',(0.,-1.,0.));
#1289=DIRECTION('ref_axis',(-0.707106781186547,0.,0.707106781186548));
#1290=DIRECTION('',(0.,1.,0.));
#1291=DIRECTION('center_axis',(0.,1.,0.));
#1292=DIRECTION('ref_axis',(-0.707106781186547,0.,0.707106781186548));
#1293=DIRECTION('',(0.,-1.,0.));
#1294=DIRECTION('center_axis',(0.,-1.,0.));
#1295=DIRECTION('ref_axis',(0.,0.,-1.));
#1296=DIRECTION('center_axis',(-1.,0.,8.32667268468868E-16));
#1297=DIRECTION('ref_axis',(0.,1.,0.));
#1298=DIRECTION('center_axis',(0.,1.,0.));
#1299=DIRECTION('ref_axis',(0.707106781186547,0.,0.707106781186548));
#1300=DIRECTION('center_axis',(0.,-1.,0.));
#1301=DIRECTION('ref_axis',(0.707106781186547,0.,0.707106781186548));
#1302=DIRECTION('center_axis',(1.,0.,-4.62592926927148E-16));
#1303=DIRECTION('ref_axis',(-3.92523114670943E-16,0.707106781186546,-0.707106781186549));
#1304=DIRECTION('center_axis',(-1.,0.,5.55111512312577E-16));
#1305=DIRECTION('ref_axis',(0.,1.,0.));
#1306=DIRECTION('',(1.,0.,-4.62592926927148E-16));
#1307=DIRECTION('',(-1.,0.,4.62592926927148E-16));
#1308=DIRECTION('center_axis',(0.,-1.,0.));
#1309=DIRECTION('ref_axis',(0.,0.,-1.));
#1310=DIRECTION('center_axis',(0.,-1.,0.));
#1311=DIRECTION('ref_axis',(-0.707106781186547,0.,0.707106781186548));
#1312=DIRECTION('center_axis',(0.,1.,0.));
#1313=DIRECTION('ref_axis',(0.,0.,1.));
#1314=DIRECTION('',(4.44089209850063E-17,0.,-1.));
#1315=DIRECTION('center_axis',(0.,1.,0.));
#1316=DIRECTION('ref_axis',(-1.,0.,0.));
#1317=DIRECTION('',(9.99200722162641E-17,0.,1.));
#1318=DIRECTION('center_axis',(0.,1.,0.));
#1319=DIRECTION('ref_axis',(-1.,0.,0.));
#1320=DIRECTION('center_axis',(0.,1.,0.));
#1321=DIRECTION('ref_axis',(-1.,0.,0.));
#1322=DIRECTION('center_axis',(0.,1.,0.));
#1323=DIRECTION('ref_axis',(-1.,0.,0.));
#1324=DIRECTION('center_axis',(0.,1.,0.));
#1325=DIRECTION('ref_axis',(-1.,0.,0.));
#1326=DIRECTION('center_axis',(0.,1.,0.));
#1327=DIRECTION('ref_axis',(-1.,0.,0.));
#1328=DIRECTION('center_axis',(0.,1.,0.));
#1329=DIRECTION('ref_axis',(-1.,0.,0.));
#1330=DIRECTION('center_axis',(0.,1.,0.));
#1331=DIRECTION('ref_axis',(-1.,0.,0.));
#1332=DIRECTION('center_axis',(0.,1.,0.));
#1333=DIRECTION('ref_axis',(-1.,0.,0.));
#1334=DIRECTION('center_axis',(-0.188982236504613,0.,-0.981980506061966));
#1335=DIRECTION('ref_axis',(0.981980506061966,0.,-0.188982236504613));
#1336=DIRECTION('center_axis',(0.755928946018456,0.,0.654653670707976));
#1337=DIRECTION('ref_axis',(0.654653670707976,0.,-0.755928946018456));
#1338=DIRECTION('center_axis',(3.8459253727671E-15,-1.,-2.2204460492503E-15));
#1339=DIRECTION('ref_axis',(0.,2.2204460492503E-15,-1.));
#1340=DIRECTION('center_axis',(-0.937850373750196,0.,0.347039877329129));
#1341=DIRECTION('ref_axis',(-0.347039877329129,0.,-0.937850373750196));
#1342=DIRECTION('center_axis',(0.605959534511008,-6.72750227205264E-16,
-0.795495469839522));
#1343=DIRECTION('ref_axis',(-0.795495469839522,0.,-0.605959534511008));
#1344=DIRECTION('center_axis',(0.,-1.,0.));
#1345=DIRECTION('ref_axis',(-0.956347846228701,0.,-0.292230725649657));
#1346=DIRECTION('center_axis',(-0.605959537158511,0.,-0.795495467822818));
#1347=DIRECTION('ref_axis',(0.795495467822817,0.,-0.605959537158511));
#1348=DIRECTION('center_axis',(0.93785037434606,0.,0.34703987571885));
#1349=DIRECTION('ref_axis',(0.34703987571885,0.,-0.93785037434606));
#1350=DIRECTION('center_axis',(1.64329693104735E-15,-1.,-2.2204460492503E-15));
#1351=DIRECTION('ref_axis',(0.,2.2204460492503E-15,-1.));
#1352=DIRECTION('center_axis',(-0.755928946018455,0.,0.654653670707976));
#1353=DIRECTION('ref_axis',(-0.654653670707976,0.,-0.755928946018455));
#1354=DIRECTION('center_axis',(0.18898223650461,0.,-0.981980506061967));
#1355=DIRECTION('ref_axis',(-0.981980506061967,0.,-0.18898223650461));
#1356=DIRECTION('center_axis',(-3.84592537276713E-15,-1.,-2.2204460492503E-15));
#1357=DIRECTION('ref_axis',(-0.866025403784436,2.2204460492503E-15,0.500000000000005));
#1358=DIRECTION('center_axis',(-0.500000000000001,0.,-0.866025403784438));
#1359=DIRECTION('ref_axis',(-0.612372435695794,-0.707106781186546,0.353553390593279));
#1360=DIRECTION('',(0.500000000000001,0.,0.866025403784438));
#1361=DIRECTION('',(-0.500000000000001,0.,-0.866025403784438));
#1362=DIRECTION('center_axis',(1.,0.,0.));
#1363=DIRECTION('ref_axis',(0.,-0.707106781186545,-0.70710678118655));
#1364=DIRECTION('',(-1.,0.,0.));
#1365=DIRECTION('',(1.,0.,0.));
#1366=DIRECTION('center_axis',(0.292230730474536,0.,0.956347844754365));
#1367=DIRECTION('ref_axis',(0.676240046198952,-0.707106781186547,-0.206638331189642));
#1368=DIRECTION('',(0.292230730474536,0.,0.956347844754365));
#1369=DIRECTION('center_axis',(-0.292230730474534,0.,-0.956347844754366));
#1370=DIRECTION('ref_axis',(0.956347844754366,0.,-0.292230730474534));
#1371=DIRECTION('center_axis',(0.,1.,0.));
#1372=DIRECTION('ref_axis',(0.,0.,1.));
#1373=DIRECTION('center_axis',(-0.292230725649662,0.,0.956347846228699));
#1374=DIRECTION('ref_axis',(-0.9563478462287,0.,-0.292230725649662));
#1375=DIRECTION('center_axis',(0.,1.,0.));
#1376=DIRECTION('ref_axis',(2.52255404065149E-9,0.,1.));
#1377=DIRECTION('center_axis',(0.292230725649662,0.,-0.956347846228699));
#1378=DIRECTION('ref_axis',(-0.676240047241463,-0.707106781186547,-0.206638327777944));
#1379=DIRECTION('',(0.292230725649662,0.,-0.956347846228699));
#1380=DIRECTION('center_axis',(1.,0.,0.));
#1381=DIRECTION('ref_axis',(0.,-0.707106781186545,-0.70710678118655));
#1382=DIRECTION('',(-1.,0.,0.));
#1383=DIRECTION('',(1.,0.,0.));
#1384=DIRECTION('center_axis',(0.,-1.,0.));
#1385=DIRECTION('ref_axis',(0.707106781186548,0.,0.707106781186548));
#1386=DIRECTION('',(0.,1.,0.));
#1387=DIRECTION('',(0.,-1.,0.));
#1388=DIRECTION('center_axis',(-4.44089209850063E-17,0.,1.));
#1389=DIRECTION('ref_axis',(0.707106781186548,-0.707106781186547,0.));
#1390=DIRECTION('center_axis',(-0.258819045102523,-7.18367157710795E-17,
0.965925826289068));
#1391=DIRECTION('ref_axis',(-0.965925826289068,-2.68098273106551E-16,-0.258819045102523));
#1392=DIRECTION('',(-4.44089209850063E-17,0.,1.));
#1393=DIRECTION('center_axis',(-0.5,0.,0.866025403784438));
#1394=DIRECTION('ref_axis',(0.612372435695795,-0.707106781186548,0.353553390593273));
#1395=DIRECTION('',(-0.5,0.,0.866025403784438));
#1396=DIRECTION('',(0.500000000000001,0.,-0.866025403784438));
#1397=DIRECTION('center_axis',(4.62592926927148E-16,0.,1.));
#1398=DIRECTION('ref_axis',(-1.,0.,4.62592926927148E-16));
#1399=DIRECTION('center_axis',(-1.,0.,9.99200722162641E-17));
#1400=DIRECTION('ref_axis',(9.99200722162641E-17,0.,1.));
#1401=DIRECTION('',(0.,1.,0.));
#1402=DIRECTION('',(9.99200722162641E-17,0.,1.));
#1403=DIRECTION('',(0.,-1.,0.));
#1404=DIRECTION('center_axis',(0.,1.,0.));
#1405=DIRECTION('ref_axis',(0.866025403784437,0.,-0.500000000000004));
#1406=DIRECTION('',(0.,-1.,0.));
#1407=DIRECTION('center_axis',(0.,-1.,0.));
#1408=DIRECTION('ref_axis',(0.866025403784437,0.,-0.500000000000004));
#1409=DIRECTION('',(0.,-1.,0.));
#1410=DIRECTION('center_axis',(0.866025403784438,0.,0.5));
#1411=DIRECTION('ref_axis',(0.5,0.,-0.866025403784438));
#1412=DIRECTION('',(0.5,0.,-0.866025403784438));
#1413=DIRECTION('',(0.,1.,0.));
#1414=DIRECTION('center_axis',(0.,1.,0.));
#1415=DIRECTION('ref_axis',(0.,0.,1.));
#1416=DIRECTION('center_axis',(0.,1.,0.));
#1417=DIRECTION('ref_axis',(-1.,0.,0.));
#1418=DIRECTION('',(4.44089209850063E-17,0.,-1.));
#1419=DIRECTION('',(-1.,0.,0.));
#1420=DIRECTION('center_axis',(0.,-1.,0.));
#1421=DIRECTION('ref_axis',(-0.594882036352733,0.,-0.803813014839164));
#1422=DIRECTION('',(-0.292230725649662,0.,0.956347846228699));
#1423=DIRECTION('center_axis',(0.,1.,0.));
#1424=DIRECTION('ref_axis',(2.5225484203349E-9,0.,1.));
#1425=DIRECTION('',(-0.292230730474536,0.,-0.956347844754365));
#1426=DIRECTION('center_axis',(0.,-1.,0.));
#1427=DIRECTION('ref_axis',(0.594882034325072,0.,-0.803813016339785));
#1428=DIRECTION('',(-1.,0.,0.));
#1429=DIRECTION('center_axis',(0.,-1.,0.));
#1430=DIRECTION('ref_axis',(-0.866025403784434,0.,-0.500000000000007));
#1431=DIRECTION('',(0.500000000000001,0.,0.866025403784438));
#1432=DIRECTION('',(1.,0.,0.));
#1433=DIRECTION('',(2.10750518671395E-16,0.,1.));
#1434=DIRECTION('',(-0.500000000000001,0.,-0.866025403784438));
#1435=DIRECTION('',(2.10750518671395E-16,0.,-1.));
#1436=DIRECTION('',(1.,0.,0.));
#1437=DIRECTION('',(-0.500000000000001,0.,0.866025403784438));
#1438=DIRECTION('center_axis',(0.,-1.,0.));
#1439=DIRECTION('ref_axis',(-1.,0.,0.));
#1440=DIRECTION('center_axis',(0.,-1.,0.));
#1441=DIRECTION('ref_axis',(-1.,0.,0.));
#1442=DIRECTION('center_axis',(0.,-1.,0.));
#1443=DIRECTION('ref_axis',(-1.,0.,0.));
#1444=DIRECTION('center_axis',(0.,-1.,0.));
#1445=DIRECTION('ref_axis',(-1.,0.,0.));
#1446=DIRECTION('center_axis',(0.,1.,0.));
#1447=DIRECTION('ref_axis',(-0.866025403784434,0.,-0.500000000000007));
#1448=DIRECTION('',(0.,-1.,0.));
#1449=DIRECTION('',(0.,-1.,0.));
#1450=DIRECTION('center_axis',(0.,0.,-1.));
#1451=DIRECTION('ref_axis',(-1.,0.,0.));
#1452=DIRECTION('',(0.,-1.,0.));
#1453=DIRECTION('center_axis',(0.,-1.,0.));
#1454=DIRECTION('ref_axis',(0.594882034325072,0.,-0.803813016339785));
#1455=DIRECTION('',(0.,-1.,0.));
#1456=DIRECTION('center_axis',(-0.956347844754365,0.,0.292230730474536));
#1457=DIRECTION('ref_axis',(0.292230730474536,0.,0.956347844754365));
#1458=DIRECTION('',(0.,1.,0.));
#1459=DIRECTION('center_axis',(0.,1.,0.));
#1460=DIRECTION('ref_axis',(-0.594882036352733,0.,-0.803813014839164));
#1461=DIRECTION('',(0.,1.,0.));
#1462=DIRECTION('',(0.,-1.,0.));
#1463=DIRECTION('center_axis',(0.956347846228699,0.,0.292230725649662));
#1464=DIRECTION('ref_axis',(0.292230725649662,0.,-0.956347846228699));
#1465=DIRECTION('',(0.,-1.,0.));
#1466=DIRECTION('center_axis',(0.,1.,0.));
#1467=DIRECTION('ref_axis',(2.5225484203349E-9,0.,1.));
#1468=DIRECTION('center_axis',(-0.866025403784438,0.,-0.500000000000001));
#1469=DIRECTION('ref_axis',(-0.500000000000001,0.,0.866025403784438));
#1470=DIRECTION('',(0.,-1.,0.));
#1471=DIRECTION('',(0.,1.,0.));
#1472=DIRECTION('center_axis',(0.,0.,1.));
#1473=DIRECTION('ref_axis',(1.,0.,0.));
#1474=DIRECTION('',(0.,1.,0.));
#1475=DIRECTION('center_axis',(1.,0.,2.10750518671395E-16));
#1476=DIRECTION('ref_axis',(2.10750518671395E-16,0.,-1.));
#1477=DIRECTION('center_axis',(0.866025403784438,0.,-0.500000000000001));
#1478=DIRECTION('ref_axis',(-0.500000000000001,0.,-0.866025403784438));
#1479=DIRECTION('',(0.,-1.,0.));
#1480=DIRECTION('',(0.,1.,0.));
#1481=DIRECTION('center_axis',(-1.,0.,2.10750518671395E-16));
#1482=DIRECTION('ref_axis',(2.10750518671395E-16,0.,1.));
#1483=DIRECTION('',(0.,1.,0.));
#1484=DIRECTION('center_axis',(0.,0.,1.));
#1485=DIRECTION('ref_axis',(1.,0.,0.));
#1486=DIRECTION('center_axis',(-0.866025403784438,0.,0.500000000000001));
#1487=DIRECTION('ref_axis',(0.500000000000001,0.,0.866025403784438));
#1488=DIRECTION('center_axis',(0.,1.,0.));
#1489=DIRECTION('ref_axis',(-1.,0.,0.));
#1490=DIRECTION('',(0.,1.,0.));
#1491=DIRECTION('center_axis',(0.,1.,0.));
#1492=DIRECTION('ref_axis',(-1.,0.,0.));
#1493=DIRECTION('',(0.,1.,0.));
#1494=DIRECTION('center_axis',(0.,1.,0.));
#1495=DIRECTION('ref_axis',(-1.,0.,0.));
#1496=DIRECTION('',(0.,1.,0.));
#1497=DIRECTION('center_axis',(0.,1.,0.));
#1498=DIRECTION('ref_axis',(-1.,0.,0.));
#1499=DIRECTION('',(0.,1.,0.));
#1500=DIRECTION('center_axis',(0.,1.,0.));
#1501=DIRECTION('ref_axis',(-1.,0.,0.));
#1502=DIRECTION('',(0.,1.,0.));
#1503=DIRECTION('center_axis',(0.,1.,0.));
#1504=DIRECTION('ref_axis',(-1.,0.,0.));
#1505=DIRECTION('',(0.,1.,0.));
#1506=DIRECTION('center_axis',(0.,1.,0.));
#1507=DIRECTION('ref_axis',(-1.,0.,0.));
#1508=DIRECTION('',(0.,1.,0.));
#1509=DIRECTION('center_axis',(0.,1.,0.));
#1510=DIRECTION('ref_axis',(-1.,0.,0.));
#1511=DIRECTION('',(0.,1.,0.));
#1512=DIRECTION('center_axis',(0.,0.,-1.));
#1513=DIRECTION('ref_axis',(-1.,0.,0.));
#1514=DIRECTION('center_axis',(1.,0.,4.44089209850063E-17));
#1515=DIRECTION('ref_axis',(4.44089209850063E-17,0.,-1.));
#1516=DIRECTION('',(0.,1.,0.));
#1517=DIRECTION('center_axis',(0.,1.,0.));
#1518=DIRECTION('ref_axis',(-1.,0.,0.));
#1519=CARTESIAN_POINT('',(0.,0.,0.));
#1520=CARTESIAN_POINT('Origin',(4.94974746830583,5.,4.94974746830583));
#1521=CARTESIAN_POINT('',(2.94974746830583,5.,4.94974746830583));
#1522=CARTESIAN_POINT('Origin',(4.94974746830583,5.,4.94974746830583));
#1523=CARTESIAN_POINT('',(6.19974746830583,5.,4.94974746830583));
#1524=CARTESIAN_POINT('Origin',(4.94974746830583,5.,4.94974746830583));
#1525=CARTESIAN_POINT('Origin',(4.94974746830583,6.,4.94974746830583));
#1526=CARTESIAN_POINT('',(2.94974746830583,7.,4.94974746830583));
#1527=CARTESIAN_POINT('Origin',(4.94974746830583,7.,4.94974746830583));
#1528=CARTESIAN_POINT('',(2.94974746830583,6.,4.94974746830583));
#1529=CARTESIAN_POINT('Origin',(-4.94974746830583,5.,4.94974746830583));
#1530=CARTESIAN_POINT('',(-6.94974746830583,5.,4.94974746830583));
#1531=CARTESIAN_POINT('Origin',(-4.94974746830583,5.,4.94974746830583));
#1532=CARTESIAN_POINT('',(-3.69974746830583,5.,4.94974746830583));
#1533=CARTESIAN_POINT('Origin',(-4.94974746830583,5.,4.94974746830583));
#1534=CARTESIAN_POINT('Origin',(-4.94974746830583,6.,4.94974746830583));
#1535=CARTESIAN_POINT('',(-6.94974746830583,7.,4.94974746830583));
#1536=CARTESIAN_POINT('Origin',(-4.94974746830583,7.,4.94974746830583));
#1537=CARTESIAN_POINT('',(-6.94974746830583,6.,4.94974746830583));
#1538=CARTESIAN_POINT('Origin',(4.94974746830583,5.,-4.94974746830583));
#1539=CARTESIAN_POINT('',(2.94974746830583,5.,-4.94974746830583));
#1540=CARTESIAN_POINT('Origin',(4.94974746830583,5.,-4.94974746830583));
#1541=CARTESIAN_POINT('',(6.19974746830583,5.,-4.94974746830583));
#1542=CARTESIAN_POINT('Origin',(4.94974746830583,5.,-4.94974746830583));
#1543=CARTESIAN_POINT('Origin',(4.94974746830583,6.,-4.94974746830583));
#1544=CARTESIAN_POINT('',(2.94974746830583,7.,-4.94974746830583));
#1545=CARTESIAN_POINT('Origin',(4.94974746830583,7.,-4.94974746830583));
#1546=CARTESIAN_POINT('',(2.94974746830583,6.,-4.94974746830583));
#1547=CARTESIAN_POINT('Origin',(-4.94974746830583,5.,-4.94974746830583));
#1548=CARTESIAN_POINT('',(-6.94974746830583,5.,-4.94974746830583));
#1549=CARTESIAN_POINT('Origin',(-4.94974746830583,5.,-4.94974746830583));
#1550=CARTESIAN_POINT('',(-3.69974746830583,5.,-4.94974746830583));
#1551=CARTESIAN_POINT('Origin',(-4.94974746830583,5.,-4.94974746830583));
#1552=CARTESIAN_POINT('Origin',(-4.94974746830583,6.,-4.94974746830583));
#1553=CARTESIAN_POINT('',(-6.94974746830583,7.,-4.94974746830583));
#1554=CARTESIAN_POINT('Origin',(-4.94974746830583,7.,-4.94974746830583));
#1555=CARTESIAN_POINT('',(-6.94974746830583,6.,-4.94974746830583));
#1556=CARTESIAN_POINT('Origin',(0.,-128.793660911882,0.));
#1557=CARTESIAN_POINT('',(-1.25,6.99999999999999,1.53080849893419E-16));
#1558=CARTESIAN_POINT('Origin',(0.,6.99999999999999,0.));
#1559=CARTESIAN_POINT('',(-1.25,0.,1.53080849893419E-16));
#1560=CARTESIAN_POINT('',(-1.25,-128.793660911882,1.53080849893419E-16));
#1561=CARTESIAN_POINT('Origin',(0.,0.,0.));
#1562=CARTESIAN_POINT('Origin',(-5.6,-39.,-54.3328794900564));
#1563=CARTESIAN_POINT('',(-5.6,-43.,-54.3328794900564));
#1564=CARTESIAN_POINT('',(-5.6,-39.,-50.3328794900564));
#1565=CARTESIAN_POINT('Origin',(-5.6,-39.,-54.3328794900564));
#1566=CARTESIAN_POINT('',(-9.6,-39.,-54.3328794900564));
#1567=CARTESIAN_POINT('Origin',(-5.6,-39.,-54.3328794900564));
#1568=CARTESIAN_POINT('Origin',(-5.6,-39.,-54.3328794900564));
#1569=CARTESIAN_POINT('Origin',(4.8,-39.,-54.3328794900564));
#1570=CARTESIAN_POINT('',(5.6,-43.,-54.3328794900564));
#1571=CARTESIAN_POINT('',(5.6,-39.,-50.3328794900564));
#1572=CARTESIAN_POINT('Origin',(5.6,-39.,-54.3328794900564));
#1573=CARTESIAN_POINT('',(4.8,-39.,-50.3328794900564));
#1574=CARTESIAN_POINT('',(4.8,-43.,-54.3328794900564));
#1575=CARTESIAN_POINT('Origin',(5.6,-39.,-54.3328794900564));
#1576=CARTESIAN_POINT('',(9.6,-39.,-54.3328794900564));
#1577=CARTESIAN_POINT('Origin',(5.6,-39.,-54.3328794900564));
#1578=CARTESIAN_POINT('Origin',(5.6,-39.,-54.3328794900564));
#1579=CARTESIAN_POINT('Origin',(-1.11022302462516E-14,-43.,-75.1664397450282));
#1580=CARTESIAN_POINT('',(-5.60000000000001,-43.,-61.0717967697245));
#1581=CARTESIAN_POINT('',(-5.60000000000001,-43.,-87.5832198725141));
#1582=CARTESIAN_POINT('',(-13.6000000000572,-43.,-74.9282032304889));
#1583=CARTESIAN_POINT('',(-19.7665342946949,-43.,-85.6089539353029));
#1584=CARTESIAN_POINT('',(-13.6000000000572,-43.,-95.9999999999428));
#1585=CARTESIAN_POINT('',(-13.6000000000572,-43.,-95.9999999999428));
#1586=CARTESIAN_POINT('',(-12.5603005785296,-43.,-96.));
#1587=CARTESIAN_POINT('',(4.8,-43.,-96.));
#1588=CARTESIAN_POINT('',(-5.73808699914011,-43.,-73.6737742724439));
#1589=CARTESIAN_POINT('',(-9.54530708379187,-43.,-86.1331987708524));
#1590=CARTESIAN_POINT('',(5.73808714675828,-43.,-73.6737743013932));
#1591=CARTESIAN_POINT('Origin',(6.93860813250069E-8,-43.,-75.4271586552911));
#1592=CARTESIAN_POINT('',(12.5603005941463,-43.,-96.));
#1593=CARTESIAN_POINT('',(4.74530719849457,-43.,-70.424824475223));
#1594=CARTESIAN_POINT('',(13.6000000000572,-43.,-95.9999999999428));
#1595=CARTESIAN_POINT('',(4.8,-43.,-96.));
#1596=CARTESIAN_POINT('',(13.6000000000572,-43.,-74.9282032304889));
#1597=CARTESIAN_POINT('',(13.6000000000572,-43.,-74.9282032304889));
#1598=CARTESIAN_POINT('',(5.6,-43.,-61.0717967697245));
#1599=CARTESIAN_POINT('',(8.21952891090234,-43.,-65.6089539353029));
#1600=CARTESIAN_POINT('',(5.6,-43.,-37.5832198725141));
#1601=CARTESIAN_POINT('Origin',(-5.60000000000001,-39.,-87.5832198725141));
#1602=CARTESIAN_POINT('',(-9.6,-39.,-60.));
#1603=CARTESIAN_POINT('',(-9.60000000000001,-39.,-87.5832198725141));
#1604=CARTESIAN_POINT('Origin',(-5.60000000000001,-39.,-61.0717967697245));
#1605=CARTESIAN_POINT('Origin',(-5.6,3.5,-54.3328794900564));
#1606=CARTESIAN_POINT('',(-5.6,-4.,-50.3328794900564));
#1607=CARTESIAN_POINT('',(-5.6,3.5,-50.3328794900564));
#1608=CARTESIAN_POINT('',(-9.6,-4.,-54.3328794900564));
#1609=CARTESIAN_POINT('Origin',(-5.6,-4.,-54.3328794900564));
#1610=CARTESIAN_POINT('',(-9.6,3.5,-54.3328794900564));
#1611=CARTESIAN_POINT('Origin',(5.6,-4.,-54.3328794900564));
#1612=CARTESIAN_POINT('',(5.6,0.,-46.3328794900564));
#1613=CARTESIAN_POINT('',(5.6,-4.,-50.3328794900564));
#1614=CARTESIAN_POINT('Origin',(5.6,-4.,-46.3328794900564));
#1615=CARTESIAN_POINT('',(9.6,-4.,-54.3328794900564));
#1616=CARTESIAN_POINT('Origin',(5.6,-4.,-54.3328794900564));
#1617=CARTESIAN_POINT('',(9.6,0.,-47.4046762597809));
#1618=CARTESIAN_POINT('Ctrl Pts',(9.6,-4.,-54.3328794900564));
#1619=CARTESIAN_POINT('Ctrl Pts',(9.6,-3.44580355583809,-53.7786830458945));
#1620=CARTESIAN_POINT('Ctrl Pts',(9.6,-2.83463605057575,-53.1697781461305));
#1621=CARTESIAN_POINT('Ctrl Pts',(9.6,-1.71575507310698,-51.873453645453));
#1622=CARTESIAN_POINT('Ctrl Pts',(9.6,-1.21290621112622,-51.1818432627789));
#1623=CARTESIAN_POINT('Ctrl Pts',(9.6,-0.599875643299197,-50.0428288608851));
#1624=CARTESIAN_POINT('Ctrl Pts',(9.6,-0.378324523427114,-49.5291136217539));
#1625=CARTESIAN_POINT('Ctrl Pts',(9.6,-0.0778173125255517,-48.4650753863372));
#1626=CARTESIAN_POINT('Ctrl Pts',(9.6,4.13626121200902E-16,-47.914431103532));
#1627=CARTESIAN_POINT('Ctrl Pts',(9.6,5.55111512312578E-16,-47.4046762597809));
#1628=CARTESIAN_POINT('Origin',(5.6,0.,-54.3328794900564));
#1629=CARTESIAN_POINT('Origin',(4.79999999999999,-4.,-46.3328794900564));
#1630=CARTESIAN_POINT('',(-5.6,0.,-46.3328794900563));
#1631=CARTESIAN_POINT('Origin',(-5.6,-4.,-46.3328794900563));
#1632=CARTESIAN_POINT('',(4.79999999999999,-4.,-50.3328794900564));
#1633=CARTESIAN_POINT('',(4.79999999999999,0.,-46.3328794900564));
#1634=CARTESIAN_POINT('Origin',(-5.6,-4.,-54.3328794900564));
#1635=CARTESIAN_POINT('',(-9.6,0.,-47.4046762597809));
#1636=CARTESIAN_POINT('Ctrl Pts',(-9.6,5.55111512312578E-16,-47.4046762597809));
#1637=CARTESIAN_POINT('Ctrl Pts',(-9.6,1.87249495422219E-16,-47.914431103532));
#1638=CARTESIAN_POINT('Ctrl Pts',(-9.6,-0.0778173125255517,-48.4650753863372));
#1639=CARTESIAN_POINT('Ctrl Pts',(-9.6,-0.378324523427112,-49.5291136217539));
#1640=CARTESIAN_POINT('Ctrl Pts',(-9.6,-0.599875643299196,-50.0428288608851));
#1641=CARTESIAN_POINT('Ctrl Pts',(-9.6,-1.21290621112622,-51.1818432627789));
#1642=CARTESIAN_POINT('Ctrl Pts',(-9.6,-1.71575507310699,-51.873453645453));
#1643=CARTESIAN_POINT('Ctrl Pts',(-9.6,-2.83463605057576,-53.1697781461305));
#1644=CARTESIAN_POINT('Ctrl Pts',(-9.6,-3.44580355583809,-53.7786830458945));
#1645=CARTESIAN_POINT('Ctrl Pts',(-9.6,-4.,-54.3328794900564));
#1646=CARTESIAN_POINT('Origin',(-5.6,0.,-54.3328794900564));
#1647=CARTESIAN_POINT('Origin',(0.,0.,0.));
#1648=CARTESIAN_POINT('',(9.6,0.,0.));
#1649=CARTESIAN_POINT('',(9.6,0.,0.));
#1650=CARTESIAN_POINT('',(-9.6,0.,0.));
#1651=CARTESIAN_POINT('Origin',(0.,0.,0.));
#1652=CARTESIAN_POINT('',(-9.60000000000001,0.,-100.));
#1653=CARTESIAN_POINT('',(-5.75,0.,-1.01033360929657E-15));
#1654=CARTESIAN_POINT('Origin',(-7.,0.,-8.57252759403147E-16));
#1655=CARTESIAN_POINT('',(-3.69974746830583,0.,4.94974746830583));
#1656=CARTESIAN_POINT('Origin',(-4.94974746830583,0.,4.94974746830583));
#1657=CARTESIAN_POINT('',(1.25,0.,7.));
#1658=CARTESIAN_POINT('Origin',(-1.28587913910472E-15,0.,7.));
#1659=CARTESIAN_POINT('',(6.19974746830583,0.,4.94974746830583));
#1660=CARTESIAN_POINT('Origin',(4.94974746830583,0.,4.94974746830583));
#1661=CARTESIAN_POINT('',(-3.69974746830583,0.,-4.94974746830583));
#1662=CARTESIAN_POINT('Origin',(-4.94974746830583,0.,-4.94974746830583));
#1663=CARTESIAN_POINT('',(1.25,0.,-7.));
#1664=CARTESIAN_POINT('Origin',(4.28626379701574E-16,0.,-7.));
#1665=CARTESIAN_POINT('',(6.19974746830583,0.,-4.94974746830583));
#1666=CARTESIAN_POINT('Origin',(4.94974746830583,0.,-4.94974746830583));
#1667=CARTESIAN_POINT('',(8.25,0.,-1.53080849893419E-16));
#1668=CARTESIAN_POINT('Origin',(7.,0.,0.));
#1669=CARTESIAN_POINT('Ctrl Pts',(30.9619599600162,-39.,-97.));
#1670=CARTESIAN_POINT('Ctrl Pts',(30.9619599600162,-39.2991993003419,-97.));
#1671=CARTESIAN_POINT('Ctrl Pts',(30.8740298765854,-39.8974671244824,-96.9830778475538));
#1672=CARTESIAN_POINT('Ctrl Pts',(30.3580574257225,-41.033613776999,-96.8837789030871));
#1673=CARTESIAN_POINT('Ctrl Pts',(28.868511606752,-42.475549854797,-96.5971156765694));
#1674=CARTESIAN_POINT('Ctrl Pts',(26.9318214143173,-43.,-96.2243994752564));
#1675=CARTESIAN_POINT('Ctrl Pts',(25.7658075373096,-43.,-96.));
#1676=CARTESIAN_POINT('Ctrl Pts',(31.1614261602441,-39.,-97.3454855931875));
#1677=CARTESIAN_POINT('Ctrl Pts',(31.1614261602441,-39.3510402743611,-97.3454855931875));
#1678=CARTESIAN_POINT('Ctrl Pts',(31.0339326530853,-40.0503132007678,-97.311474592169));
#1679=CARTESIAN_POINT('Ctrl Pts',(30.3752008601083,-41.2456301617734,-97.1476620437877));
#1680=CARTESIAN_POINT('Ctrl Pts',(28.7686500898889,-42.5599294926555,-96.7644008365695));
#1681=CARTESIAN_POINT('Ctrl Pts',(26.8948051007615,-43.,-96.2885136110439));
#1682=CARTESIAN_POINT('Ctrl Pts',(25.7658075373096,-43.,-96.));
#1683=CARTESIAN_POINT('Ctrl Pts',(31.3453364777364,-39.,-98.1553457872531));
#1684=CARTESIAN_POINT('Ctrl Pts',(31.3453364777364,-39.4355926754995,-98.1553457872531));
#1685=CARTESIAN_POINT('Ctrl Pts',(31.1556388912873,-40.299232459729,-98.07828103226));
#1686=CARTESIAN_POINT('Ctrl Pts',(30.2899358235171,-41.5748781943066,-97.7431774275021));
#1687=CARTESIAN_POINT('Ctrl Pts',(28.5652432976116,-42.6764057313638,-97.1015463943663));
#1688=CARTESIAN_POINT('Ctrl Pts',(26.8207724736499,-43.,-96.416741882619));
#1689=CARTESIAN_POINT('Ctrl Pts',(25.7658075373096,-43.,-95.9999999999999));
#1690=CARTESIAN_POINT('Ctrl Pts',(30.8143240508647,-39.,-99.5203573546616));
#1691=CARTESIAN_POINT('Ctrl Pts',(30.8143240508647,-39.4686641236117,-99.5203573546616));
#1692=CARTESIAN_POINT('Ctrl Pts',(30.6198528321889,-40.3965487344204,-99.3887878853551));
#1693=CARTESIAN_POINT('Ctrl Pts',(29.774930203808,-41.6989201724201,-98.8037737982937));
#1694=CARTESIAN_POINT('Ctrl Pts',(28.2160495620401,-42.7158949216514,-97.7002695728092));
#1695=CARTESIAN_POINT('Ctrl Pts',(26.6912153762046,-43.,-96.6411413578755));
#1696=CARTESIAN_POINT('Ctrl Pts',(25.7658075373096,-43.,-96.));
#1697=CARTESIAN_POINT('Ctrl Pts',(29.8283077531311,-39.,-100.));
#1698=CARTESIAN_POINT('Ctrl Pts',(29.8283077531311,-39.3774899739156,-100.));
#1699=CARTESIAN_POINT('Ctrl Pts',(29.7176716172406,-40.1281404450285,-99.8936596204149));
#1700=CARTESIAN_POINT('Ctrl Pts',(29.1822578488341,-41.3528273105732,-99.3571920615938));
#1701=CARTESIAN_POINT('Ctrl Pts',(27.976214464797,-42.6017515830797,-98.1305632760052));
#1702=CARTESIAN_POINT('Ctrl Pts',(26.5986745923151,-43.,-96.8014266973443));
#1703=CARTESIAN_POINT('Ctrl Pts',(25.7658075373096,-43.,-96.));
#1704=CARTESIAN_POINT('Ctrl Pts',(29.2299091524473,-39.,-100.));
#1705=CARTESIAN_POINT('Ctrl Pts',(29.2299091524473,-39.2991993003419,-100.));
#1706=CARTESIAN_POINT('Ctrl Pts',(29.1712890968268,-39.8974671244823,-99.9323113902152));
#1707=CARTESIAN_POINT('Ctrl Pts',(28.8273074629182,-41.033613776999,-99.5351156123483));
#1708=CARTESIAN_POINT('Ctrl Pts',(27.8342769169378,-42.475549854797,-98.3884627062778));
#1709=CARTESIAN_POINT('Ctrl Pts',(26.5431501219814,-43.,-96.8975979010256));
#1710=CARTESIAN_POINT('Ctrl Pts',(25.7658075373096,-43.,-96.));
#1711=CARTESIAN_POINT('',(30.9619599600162,-39.,-97.));
#1712=CARTESIAN_POINT('',(25.7658075372105,-43.,-95.9999999999428));
#1713=CARTESIAN_POINT('Origin',(25.7658075373095,-39.,-96.));
#1714=CARTESIAN_POINT('',(29.2299091524473,-39.,-100.));
#1715=CARTESIAN_POINT('Origin',(25.7658075373095,-39.,-96.));
#1716=CARTESIAN_POINT('Origin',(29.2299091524473,-39.,-98.));
#1717=CARTESIAN_POINT('Ctrl Pts',(11.0801502970731,-39.,-100.));
#1718=CARTESIAN_POINT('Ctrl Pts',(11.0801502970731,-39.2991993003419,-100.));
#1719=CARTESIAN_POINT('Ctrl Pts',(11.1178886068405,-40.1931948112909,-99.8980149249925));
#1720=CARTESIAN_POINT('Ctrl Pts',(11.4605342082954,-42.1401626298708,-98.9720397665712));
#1721=CARTESIAN_POINT('Ctrl Pts',(12.1174406608612,-43.,-97.1967972013675));
#1722=CARTESIAN_POINT('Ctrl Pts',(12.5603005941463,-43.,-96.));
#1723=CARTESIAN_POINT('Ctrl Pts',(10.5947263842012,-39.,-100.));
#1724=CARTESIAN_POINT('Ctrl Pts',(10.5947263842012,-39.326333496995,-100.));
#1725=CARTESIAN_POINT('Ctrl Pts',(10.652660537051,-40.3078342767739,-99.8828116119111));
#1726=CARTESIAN_POINT('Ctrl Pts',(11.1753420079473,-42.2942342293406,-98.8089862593766));
#1727=CARTESIAN_POINT('Ctrl Pts',(12.0084354774421,-43.,-97.1161251740574));
#1728=CARTESIAN_POINT('Ctrl Pts',(12.5603005941463,-43.,-96.));
#1729=CARTESIAN_POINT('Ctrl Pts',(9.74931787769532,-39.,-99.6763014817918));
#1730=CARTESIAN_POINT('Ctrl Pts',(9.74931787769532,-39.3485925289611,-99.6763014817918));
#1731=CARTESIAN_POINT('Ctrl Pts',(9.84184860770501,-40.4025685162971,-99.5555734322236));
#1732=CARTESIAN_POINT('Ctrl Pts',(10.6733873697347,-42.4132584513988,-98.4744263712842));
#1733=CARTESIAN_POINT('Ctrl Pts',(11.8176764064587,-43.,-96.9749491262647));
#1734=CARTESIAN_POINT('Ctrl Pts',(12.5603005941463,-43.,-96.));
#1735=CARTESIAN_POINT('Ctrl Pts',(9.27384644134544,-39.,-98.9326370364866));
#1736=CARTESIAN_POINT('Ctrl Pts',(9.27384644134544,-39.3193763694564,-98.9326370364866));
#1737=CARTESIAN_POINT('Ctrl Pts',(9.36687646498003,-40.2784509542035,-98.8488692388346));
#1738=CARTESIAN_POINT('Ctrl Pts',(10.2178993893612,-42.2555262617253,-98.0902710581492));
#1739=CARTESIAN_POINT('Ctrl Pts',(11.6269173354753,-43.,-96.8337730784719));
#1740=CARTESIAN_POINT('Ctrl Pts',(12.5603005941463,-43.,-96.));
#1741=CARTESIAN_POINT('Ctrl Pts',(9.16745460461574,-39.,-98.5844614512993));
#1742=CARTESIAN_POINT('Ctrl Pts',(9.16745460461574,-39.2991993003419,-98.5844614512993));
#1743=CARTESIAN_POINT('Ctrl Pts',(9.25395951779852,-40.1931948112909,-98.5185673275581));
#1744=CARTESIAN_POINT('Ctrl Pts',(10.0393822934622,-42.1401626298708,-97.9202805521079));
#1745=CARTESIAN_POINT('Ctrl Pts',(11.545163447911,-43.,-96.7732690579893));
#1746=CARTESIAN_POINT('Ctrl Pts',(12.5603005941463,-43.,-96.));
#1747=CARTESIAN_POINT('',(11.0801502970731,-39.,-100.));
#1748=CARTESIAN_POINT('Origin',(12.5603005941463,-39.,-96.));
#1749=CARTESIAN_POINT('',(9.16745460461575,-39.,-98.5844614512993));
#1750=CARTESIAN_POINT('Origin',(12.5603005941463,-39.,-96.));
#1751=CARTESIAN_POINT('Origin',(11.0801502970731,-39.,-98.));
#1752=CARTESIAN_POINT('Ctrl Pts',(-9.16745459975606,-39.,-98.5844614609491));
#1753=CARTESIAN_POINT('Ctrl Pts',(-9.16745459975606,-39.5983986006838,-98.5844614609491));
#1754=CARTESIAN_POINT('Ctrl Pts',(-9.34365753366695,-40.4912787059079,-98.4502408995537));
#1755=CARTESIAN_POINT('Ctrl Pts',(-10.2911564723248,-42.2844865350331,-97.7284944640917));
#1756=CARTESIAN_POINT('Ctrl Pts',(-11.5451634355128,-43.,-96.7732690608765));
#1757=CARTESIAN_POINT('Ctrl Pts',(-12.5603005785296,-43.,-96.));
#1758=CARTESIAN_POINT('Ctrl Pts',(-9.30931038384279,-39.,-99.0486955719783));
#1759=CARTESIAN_POINT('Ctrl Pts',(-9.30931038384278,-39.6526669934847,-99.0486955719783));
#1760=CARTESIAN_POINT('Ctrl Pts',(-9.51003526362469,-40.6208726624417,-98.8606130800792));
#1761=CARTESIAN_POINT('Ctrl Pts',(-10.510876055747,-42.4070217089901,-97.9277603963479));
#1762=CARTESIAN_POINT('Ctrl Pts',(-11.6541686187638,-43.,-96.8539410876367));
#1763=CARTESIAN_POINT('Ctrl Pts',(-12.5603005785296,-43.,-96.));
#1764=CARTESIAN_POINT('Ctrl Pts',(-9.86593310597149,-39.,-99.7626055183243));
#1765=CARTESIAN_POINT('Ctrl Pts',(-9.86593310597149,-39.6971850569707,-99.7626055183243));
#1766=CARTESIAN_POINT('Ctrl Pts',(-10.0537622112868,-40.7267909111394,-99.4990822767125));
#1767=CARTESIAN_POINT('Ctrl Pts',(-10.9312974989624,-42.5009002211898,-98.26819510611));
#1768=CARTESIAN_POINT('Ctrl Pts',(-11.8449276894531,-43.,-96.9951171344671));
#1769=CARTESIAN_POINT('Ctrl Pts',(-12.5603005785296,-43.,-96.));
#1770=CARTESIAN_POINT('Ctrl Pts',(-10.7160823560523,-39.,-100.));
#1771=CARTESIAN_POINT('Ctrl Pts',(-10.7160823560523,-39.6387527385399,-100.));
#1772=CARTESIAN_POINT('Ctrl Pts',(-10.8261779640531,-40.5878029489629,-99.7629164930848));
#1773=CARTESIAN_POINT('Ctrl Pts',(-11.3784904464819,-42.3763111051887,-98.5624653026993));
#1774=CARTESIAN_POINT('Ctrl Pts',(-12.0356867601425,-43.,-97.1362931812974));
#1775=CARTESIAN_POINT('Ctrl Pts',(-12.5603005785296,-43.,-96.));
#1776=CARTESIAN_POINT('Ctrl Pts',(-11.0801502892648,-39.,-100.));
#1777=CARTESIAN_POINT('Ctrl Pts',(-11.0801502892648,-39.5983986006838,-100.));
#1778=CARTESIAN_POINT('Ctrl Pts',(-11.1570199217884,-40.4912787059079,-99.7922653312137));
#1779=CARTESIAN_POINT('Ctrl Pts',(-11.5703722628338,-42.2844865350331,-98.6752102752687));
#1780=CARTESIAN_POINT('Ctrl Pts',(-12.1174406475807,-43.,-97.1967972013675));
#1781=CARTESIAN_POINT('Ctrl Pts',(-12.5603005785296,-43.,-96.));
#1782=CARTESIAN_POINT('',(-9.16745459975606,-39.,-98.5844614609491));
#1783=CARTESIAN_POINT('Origin',(-12.5603005785296,-39.,-96.));
#1784=CARTESIAN_POINT('',(-11.0801502892648,-39.,-100.));
#1785=CARTESIAN_POINT('Origin',(-12.5603005785296,-39.,-96.));
#1786=CARTESIAN_POINT('Origin',(-11.0801502892648,-39.,-98.));
#1787=CARTESIAN_POINT('Ctrl Pts',(-29.2299091524473,-39.,-100.));
#1788=CARTESIAN_POINT('Ctrl Pts',(-29.2299091524473,-39.2991993003419,-100.));
#1789=CARTESIAN_POINT('Ctrl Pts',(-29.1716232185599,-39.8976476777726,-99.9326972007603));
#1790=CARTESIAN_POINT('Ctrl Pts',(-28.9130961412112,-40.749997971837,-99.6341758453601));
#1791=CARTESIAN_POINT('Ctrl Pts',(-28.3587309229454,-41.7703018838112,-98.9940500293699));
#1792=CARTESIAN_POINT('Ctrl Pts',(-27.320377215319,-42.7267999755104,-97.7950624441455));
#1793=CARTESIAN_POINT('Ctrl Pts',(-26.2840359270908,-43.,-96.5983986006838));
#1794=CARTESIAN_POINT('Ctrl Pts',(-25.7658075373096,-43.,-96.));
#1795=CARTESIAN_POINT('Ctrl Pts',(-29.6288415529032,-39.,-100.));
#1796=CARTESIAN_POINT('Ctrl Pts',(-29.6288415529032,-39.3510402743611,-100.));
#1797=CARTESIAN_POINT('Ctrl Pts',(-29.5356785487558,-40.049616687162,-99.906391838315));
#1798=CARTESIAN_POINT('Ctrl Pts',(-29.1827167938869,-40.9478703940382,-99.540732062147));
#1799=CARTESIAN_POINT('Ctrl Pts',(-28.5205687523183,-41.9268618010237,-98.8431217772996));
#1800=CARTESIAN_POINT('Ctrl Pts',(-27.3934883158978,-42.7670450847295,-97.6660866405903));
#1801=CARTESIAN_POINT('Ctrl Pts',(-26.3087134694613,-43.,-96.5556558434921));
#1802=CARTESIAN_POINT('Ctrl Pts',(-25.7658075373096,-43.,-96.));
#1803=CARTESIAN_POINT('Ctrl Pts',(-30.4221562132239,-39.,-99.7543409099335));
#1804=CARTESIAN_POINT('Ctrl Pts',(-30.4221562132239,-39.4355926754994,-99.7543409099335));
#1805=CARTESIAN_POINT('Ctrl Pts',(-30.2600208111773,-40.2966418993174,-99.6277163875751));
#1806=CARTESIAN_POINT('Ctrl Pts',(-29.7201534826484,-41.2589057821893,-99.1936114995268));
#1807=CARTESIAN_POINT('Ctrl Pts',(-28.8440722684597,-42.1605167715766,-98.4728607530685));
#1808=CARTESIAN_POINT('Ctrl Pts',(-27.5398035157316,-42.822915071368,-97.4088650579937));
#1809=CARTESIAN_POINT('Ctrl Pts',(-26.3580685542024,-43.,-96.4701703291087));
#1810=CARTESIAN_POINT('Ctrl Pts',(-25.7658075373096,-43.,-96.));
#1811=CARTESIAN_POINT('Ctrl Pts',(-31.3387846936235,-39.,-98.6119648748332));
#1812=CARTESIAN_POINT('Ctrl Pts',(-31.3387846936235,-39.4686641236117,-98.6119648748332));
#1813=CARTESIAN_POINT('Ctrl Pts',(-31.1263117393173,-40.3930951650242,-98.5088998604889));
#1814=CARTESIAN_POINT('Ctrl Pts',(-30.4336695787595,-41.3772478336684,-98.1812158216182));
#1815=CARTESIAN_POINT('Ctrl Pts',(-29.3441457069833,-42.2456910834846,-97.676674950084));
#1816=CARTESIAN_POINT('Ctrl Pts',(-27.7985999047893,-42.8419715476896,-96.9601715469872));
#1817=CARTESIAN_POINT('Ctrl Pts',(-26.4444399524992,-43.,-96.3205706789377));
#1818=CARTESIAN_POINT('Ctrl Pts',(-25.7658075373095,-43.,-96.));
#1819=CARTESIAN_POINT('Ctrl Pts',(-31.2611592603581,-39.,-97.5182283897812));
#1820=CARTESIAN_POINT('Ctrl Pts',(-31.2611592603581,-39.3774899739157,-97.5182283897812));
#1821=CARTESIAN_POINT('Ctrl Pts',(-31.1135757871944,-40.1269454147057,-97.4756491088152));
#1822=CARTESIAN_POINT('Ctrl Pts',(-30.5658328653768,-41.0480635687013,-97.3292275623032));
#1823=CARTESIAN_POINT('Ctrl Pts',(-29.578231852803,-42.005466105763,-97.0726392893494));
#1824=CARTESIAN_POINT('Ctrl Pts',(-27.9833979535623,-42.7869914829549,-96.6410189214886));
#1825=CARTESIAN_POINT('Ctrl Pts',(-26.5061338084256,-43.,-96.2137137859585));
#1826=CARTESIAN_POINT('Ctrl Pts',(-25.7658075373096,-43.,-96.));
#1827=CARTESIAN_POINT('Ctrl Pts',(-30.9619599600162,-39.,-97.));
#1828=CARTESIAN_POINT('Ctrl Pts',(-30.9619599600162,-39.2991993003419,-97.));
#1829=CARTESIAN_POINT('Ctrl Pts',(-30.8745310591851,-39.8976476777726,-96.98317430019));
#1830=CARTESIAN_POINT('Ctrl Pts',(-30.486740443162,-40.749997971837,-96.90854396134));
#1831=CARTESIAN_POINT('Ctrl Pts',(-29.6551926157633,-41.7703018838112,-96.7485125073424));
#1832=CARTESIAN_POINT('Ctrl Pts',(-28.0976620543237,-42.7267999755104,-96.4487656110364));
#1833=CARTESIAN_POINT('Ctrl Pts',(-26.5431501219814,-43.,-96.1495996501709));
#1834=CARTESIAN_POINT('Ctrl Pts',(-25.7658075373096,-43.,-96.));
#1835=CARTESIAN_POINT('',(-29.2299091524473,-39.,-100.));
#1836=CARTESIAN_POINT('',(-25.7658075372105,-43.,-95.9999999999428));
#1837=CARTESIAN_POINT('Origin',(-25.7658075373096,-39.,-96.));
#1838=CARTESIAN_POINT('',(-30.9619599600162,-39.,-97.));
#1839=CARTESIAN_POINT('Origin',(-25.7658075373096,-39.,-96.));
#1840=CARTESIAN_POINT('Origin',(-29.2299091524473,-39.,-98.));
#1841=CARTESIAN_POINT('Origin',(-19.7665342946949,-39.,-85.6089539353029));
#1842=CARTESIAN_POINT('',(-13.6000000000572,-43.,-74.9282032304889));
#1843=CARTESIAN_POINT('',(-23.2306359098326,-39.,-83.6089539353029));
#1844=CARTESIAN_POINT('Origin',(4.8,-39.,-96.));
#1845=CARTESIAN_POINT('',(-25.7658075372105,-43.,-95.9999999999428));
#1846=CARTESIAN_POINT('',(4.8,-39.,-100.));
#1847=CARTESIAN_POINT('Origin',(-9.54530708379187,-39.,-86.1331987708524));
#1848=CARTESIAN_POINT('',(-1.91269562012265,-39.,-74.8426971943421));
#1849=CARTESIAN_POINT('',(-5.71991570477441,-39.,-87.3021216927506));
#1850=CARTESIAN_POINT('Origin',(-5.73808699914011,-39.,-73.6737742724439));
#1851=CARTESIAN_POINT('Origin',(6.93860813250069E-8,-39.,-75.4271586552911));
#1852=CARTESIAN_POINT('',(1.91269576184347,-39.,-74.8426972039918));
#1853=CARTESIAN_POINT('Origin',(5.73808714675828,-39.,-73.6737743013932));
#1854=CARTESIAN_POINT('Origin',(6.93860813250069E-8,-39.,-75.4271586552911));
#1855=CARTESIAN_POINT('Origin',(4.74530719849457,-39.,-70.424824475223));
#1856=CARTESIAN_POINT('',(0.91991581357977,-39.,-71.5937473778217));
#1857=CARTESIAN_POINT('Origin',(4.8,-39.,-96.));
#1858=CARTESIAN_POINT('',(13.6000000000572,-43.,-95.9999999999428));
#1859=CARTESIAN_POINT('',(4.8,-39.,-100.));
#1860=CARTESIAN_POINT('Origin',(5.6,3.5,-54.3328794900564));
#1861=CARTESIAN_POINT('',(9.6,3.5,-54.3328794900564));
#1862=CARTESIAN_POINT('',(5.6,3.5,-50.3328794900564));
#1863=CARTESIAN_POINT('Origin',(5.6,-39.,-37.5832198725141));
#1864=CARTESIAN_POINT('',(9.6,-39.,-60.));
#1865=CARTESIAN_POINT('Origin',(5.6,-39.,-61.0717967697245));
#1866=CARTESIAN_POINT('',(9.6,-39.,-37.5832198725141));
#1867=CARTESIAN_POINT('Origin',(8.21952891090234,-39.,-65.6089539353029));
#1868=CARTESIAN_POINT('',(11.6836305260401,-39.,-63.6089539353029));
#1869=CARTESIAN_POINT('',(25.7658075372105,-43.,-95.9999999999428));
#1870=CARTESIAN_POINT('Origin',(9.6,7.,-50.3328794900564));
#1871=CARTESIAN_POINT('Origin',(-9.60000000000001,0.,-100.));
#1872=CARTESIAN_POINT('',(-9.6,7.,0.));
#1873=CARTESIAN_POINT('',(-9.6,0.,0.));
#1874=CARTESIAN_POINT('',(-9.6,7.,-60.));
#1875=CARTESIAN_POINT('',(-9.60000000000001,7.,-100.));
#1876=CARTESIAN_POINT('',(-9.6,7.,-60.));
#1877=CARTESIAN_POINT('Origin',(29.2299091524473,0.,-98.));
#1878=CARTESIAN_POINT('',(29.2299091524473,7.,-100.));
#1879=CARTESIAN_POINT('',(29.2299091524473,7.,-100.));
#1880=CARTESIAN_POINT('',(30.9619599600162,7.,-97.));
#1881=CARTESIAN_POINT('Origin',(29.2299091524473,7.,-98.));
#1882=CARTESIAN_POINT('',(30.9619599600162,0.,-97.));
#1883=CARTESIAN_POINT('Origin',(9.6,0.,-60.));
#1884=CARTESIAN_POINT('',(9.6,7.,-60.));
#1885=CARTESIAN_POINT('',(9.6,7.,-60.));
#1886=CARTESIAN_POINT('',(9.6,0.,-60.));
#1887=CARTESIAN_POINT('Origin',(0.,7.,0.));
#1888=CARTESIAN_POINT('',(9.6,7.,0.));
#1889=CARTESIAN_POINT('Origin',(0.,7.,0.));
#1890=CARTESIAN_POINT('',(9.6,7.,0.));
#1891=CARTESIAN_POINT('',(11.0801502970732,7.,-100.));
#1892=CARTESIAN_POINT('',(32.6940107675851,7.,-100.));
#1893=CARTESIAN_POINT('',(9.16745460461576,7.,-98.5844614512993));
#1894=CARTESIAN_POINT('Origin',(11.0801502970732,7.,-98.));
#1895=CARTESIAN_POINT('',(1.91269576184348,7.,-74.8426972039918));
#1896=CARTESIAN_POINT('',(-9.58362543618601,7.,-37.2200892703228));
#1897=CARTESIAN_POINT('',(-1.91269562012265,7.,-74.8426971943421));
#1898=CARTESIAN_POINT('Origin',(6.93860813250069E-8,7.,-75.4271586552911));
#1899=CARTESIAN_POINT('',(-9.16745459975607,7.,-98.5844614609491));
#1900=CARTESIAN_POINT('',(4.78362570221746,7.,-52.9284636912345));
#1901=CARTESIAN_POINT('',(-11.0801502892648,7.,-100.));
#1902=CARTESIAN_POINT('Origin',(-11.0801502892648,7.,-98.));
#1903=CARTESIAN_POINT('',(-29.2299091524473,7.,-100.));
#1904=CARTESIAN_POINT('',(32.6940107675851,7.,-100.));
#1905=CARTESIAN_POINT('',(-30.9619599600162,7.,-97.));
#1906=CARTESIAN_POINT('Origin',(-29.2299091524473,7.,-98.));
#1907=CARTESIAN_POINT('',(-32.6940107675851,7.,-100.));
#1908=CARTESIAN_POINT('',(-25.7658075372105,7.,-95.9999999999428));
#1909=CARTESIAN_POINT('',(-13.6000000000572,7.,-95.9999999999428));
#1910=CARTESIAN_POINT('',(-25.7658075372105,7.,-95.9999999999428));
#1911=CARTESIAN_POINT('',(-13.6000000000572,7.,-74.9282032304889));
#1912=CARTESIAN_POINT('',(-13.6000000000572,7.,-95.9999999999428));
#1913=CARTESIAN_POINT('',(-13.6000000000572,7.,-74.9282032304889));
#1914=CARTESIAN_POINT('',(13.6000000000572,7.,-74.9282032304889));
#1915=CARTESIAN_POINT('',(13.6000000000572,7.,-95.9999999999428));
#1916=CARTESIAN_POINT('',(13.6000000000572,7.,-74.9282032304889));
#1917=CARTESIAN_POINT('',(25.7658075372105,7.,-95.9999999999428));
#1918=CARTESIAN_POINT('',(13.6000000000572,7.,-95.9999999999428));
#1919=CARTESIAN_POINT('',(25.7658075372105,7.,-95.9999999999428));
#1920=CARTESIAN_POINT('',(8.25,6.99999999999999,-1.53080849893419E-16));
#1921=CARTESIAN_POINT('Origin',(7.,7.,0.));
#1922=CARTESIAN_POINT('',(1.25,6.99999999999999,-7.));
#1923=CARTESIAN_POINT('Origin',(4.28626379701574E-16,7.,-7.));
#1924=CARTESIAN_POINT('',(1.25,6.99999999999999,7.));
#1925=CARTESIAN_POINT('Origin',(-1.28587913910472E-15,7.,7.));
#1926=CARTESIAN_POINT('',(-5.75,6.99999999999999,-1.01033360929657E-15));
#1927=CARTESIAN_POINT('Origin',(-7.,7.,-8.57252759403147E-16));
#1928=CARTESIAN_POINT('Origin',(-29.2299091524473,0.,-98.));
#1929=CARTESIAN_POINT('',(-30.9619599600162,7.,-97.));
#1930=CARTESIAN_POINT('',(-29.2299091524473,0.,-100.));
#1931=CARTESIAN_POINT('Origin',(9.6,0.,-100.));
#1932=CARTESIAN_POINT('',(-11.0801502892648,7.,-100.));
#1933=CARTESIAN_POINT('Origin',(-11.0801502892648,0.,-98.));
#1934=CARTESIAN_POINT('',(-9.16745459975607,0.,-98.5844614609491));
#1935=CARTESIAN_POINT('Origin',(-9.60000000000001,0.,-100.));
#1936=CARTESIAN_POINT('',(-1.91269562012265,0.,-74.8426971943421));
#1937=CARTESIAN_POINT('Origin',(11.0801502970732,0.,-98.));
#1938=CARTESIAN_POINT('',(9.16745460461575,0.,-98.5844614512993));
#1939=CARTESIAN_POINT('',(11.0801502970732,7.,-100.));
#1940=CARTESIAN_POINT('Origin',(8.66501881358061E-8,0.,-68.583251400011));
#1941=CARTESIAN_POINT('',(1.91269576184347,0.,-74.8426972039918));
#1942=CARTESIAN_POINT('Origin',(6.93860813250069E-8,0.,-75.4271586552911));
#1943=CARTESIAN_POINT('Origin',(25.7658075372105,0.,-95.9999999999428));
#1944=CARTESIAN_POINT('',(13.6000000000572,7.,-74.9282032304889));
#1945=CARTESIAN_POINT('',(25.7658075372105,0.,-95.9999999999428));
#1946=CARTESIAN_POINT('Origin',(13.6000000000572,0.,-95.9999999999428));
#1947=CARTESIAN_POINT('',(13.6000000000572,0.,-95.9999999999428));
#1948=CARTESIAN_POINT('Origin',(13.6000000000572,0.,-74.9282032304889));
#1949=CARTESIAN_POINT('Origin',(-13.6000000000572,0.,-74.9282032304889));
#1950=CARTESIAN_POINT('',(-25.7658075372105,7.,-95.9999999999428));
#1951=CARTESIAN_POINT('',(-13.6000000000572,0.,-74.9282032304889));
#1952=CARTESIAN_POINT('Origin',(-13.6000000000572,0.,-95.9999999999428));
#1953=CARTESIAN_POINT('',(-13.6000000000572,0.,-95.9999999999428));
#1954=CARTESIAN_POINT('Origin',(-25.7658075372105,0.,-95.9999999999428));
#1955=CARTESIAN_POINT('Origin',(-32.6940107675851,0.,-100.));
#1956=CARTESIAN_POINT('Origin',(-7.,111.489012911587,-8.57252759403147E-16));
#1957=CARTESIAN_POINT('',(-5.75,111.489012911587,-1.01033360929657E-15));
#1958=CARTESIAN_POINT('Origin',(-4.94974746830583,111.489012911587,4.94974746830583));
#1959=CARTESIAN_POINT('',(-3.69974746830583,111.489012911587,4.94974746830583));
#1960=CARTESIAN_POINT('Origin',(-1.28587913910472E-15,111.489012911587,
7.));
#1961=CARTESIAN_POINT('',(1.25,111.489012911587,7.));
#1962=CARTESIAN_POINT('Origin',(4.94974746830583,111.489012911587,4.94974746830583));
#1963=CARTESIAN_POINT('',(6.19974746830583,111.489012911587,4.94974746830583));
#1964=CARTESIAN_POINT('Origin',(-4.94974746830583,111.489012911587,-4.94974746830583));
#1965=CARTESIAN_POINT('',(-3.69974746830583,111.489012911587,-4.94974746830583));
#1966=CARTESIAN_POINT('Origin',(4.28626379701574E-16,111.489012911587,-7.));
#1967=CARTESIAN_POINT('',(1.25,111.489012911587,-7.));
#1968=CARTESIAN_POINT('Origin',(4.94974746830583,111.489012911587,-4.94974746830583));
#1969=CARTESIAN_POINT('',(6.19974746830583,111.489012911587,-4.94974746830583));
#1970=CARTESIAN_POINT('Origin',(7.,111.489012911587,0.));
#1971=CARTESIAN_POINT('',(8.25,111.489012911587,-1.53080849893419E-16));
#1972=CARTESIAN_POINT('Origin',(9.6,0.,-100.));
#1973=CARTESIAN_POINT('Origin',(9.6,0.,0.));
#1974=CARTESIAN_POINT('',(9.6,0.,0.));
#1975=CARTESIAN_POINT('Origin',(0.,0.,0.));
#1976=UNCERTAINTY_MEASURE_WITH_UNIT(LENGTH_MEASURE(0.01),#1980,
'DISTANCE_ACCURACY_VALUE',
'Maximum model space distance between geometric entities at asserted c
onnectivities');
#1977=UNCERTAINTY_MEASURE_WITH_UNIT(LENGTH_MEASURE(0.01),#1980,
'DISTANCE_ACCURACY_VALUE',
'Maximum model space distance between geometric entities at asserted c
onnectivities');
#1978=(
GEOMETRIC_REPRESENTATION_CONTEXT(3)
GLOBAL_UNCERTAINTY_ASSIGNED_CONTEXT((#1976))
GLOBAL_UNIT_ASSIGNED_CONTEXT((#1980,#1982,#1983))
REPRESENTATION_CONTEXT('','3D')
);
#1979=(
GEOMETRIC_REPRESENTATION_CONTEXT(3)
GLOBAL_UNCERTAINTY_ASSIGNED_CONTEXT((#1977))
GLOBAL_UNIT_ASSIGNED_CONTEXT((#1980,#1982,#1983))
REPRESENTATION_CONTEXT('','3D')
);
#1980=(
LENGTH_UNIT()
NAMED_UNIT(*)
SI_UNIT(.MILLI.,.METRE.)
);
#1981=(
LENGTH_UNIT()
NAMED_UNIT(*)
SI_UNIT(.CENTI.,.METRE.)
);
#1982=(
NAMED_UNIT(*)
PLANE_ANGLE_UNIT()
SI_UNIT($,.RADIAN.)
);
#1983=(
NAMED_UNIT(*)
SI_UNIT($,.STERADIAN.)
SOLID_ANGLE_UNIT()
);
#1984=SHAPE_DEFINITION_REPRESENTATION(#1985,#1986);
#1985=PRODUCT_DEFINITION_SHAPE('',$,#1988);
#1986=SHAPE_REPRESENTATION('',(#1074),#1978);
#1987=PRODUCT_DEFINITION_CONTEXT('part definition',#1992,'design');
#1988=PRODUCT_DEFINITION('leg','leg',#1989,#1987);
#1989=PRODUCT_DEFINITION_FORMATION('',$,#1994);
#1990=PRODUCT_RELATED_PRODUCT_CATEGORY('leg','leg',(#1994));
#1991=APPLICATION_PROTOCOL_DEFINITION('international standard',
'automotive_design',2009,#1992);
#1992=APPLICATION_CONTEXT(
'Core Data for Automotive Mechanical Design Process');
#1993=PRODUCT_CONTEXT('part definition',#1992,'mechanical');
#1994=PRODUCT('leg','leg',$,(#1993));
#1995=PRESENTATION_STYLE_ASSIGNMENT((#1996));
#1996=SURFACE_STYLE_USAGE(.BOTH.,#1999);
#1997=SURFACE_STYLE_RENDERING_WITH_PROPERTIES($,#2003,(#1998));
#1998=SURFACE_STYLE_TRANSPARENT(0.);
#1999=SURFACE_SIDE_STYLE('',(#2000,#1997));
#2000=SURFACE_STYLE_FILL_AREA(#2001);
#2001=FILL_AREA_STYLE('',(#2002));
#2002=FILL_AREA_STYLE_COLOUR('',#2003);
#2003=COLOUR_RGB('',0.749019607843137,0.749019607843137,0.749019607843137);
ENDSEC;
END-ISO-10303-21;
