ISO-10303-21;
HEADER;
/* Generated by software containing ST-Developer
 * from STEP Tools, Inc. (www.steptools.com) 
 */

FILE_DESCRIPTION(
/* description */ (''),
/* implementation_level */ '2;1');

FILE_NAME(
/* name */ 'sortify_floor.stp',
/* time_stamp */ '2026-09-20T03:30:27-04:00',
/* author */ ('zhiwe'),
/* organization */ (''),
/* preprocessor_version */ 'ST-DEVELOPER v20.2',
/* originating_system */ 'Autodesk Inventor 2027',
/* authorisation */ '');

FILE_SCHEMA (('AUTOMOTIVE_DESIGN { 1 0 10303 214 3 1 1 }'));
ENDSEC;

DATA;
#10=MECHANICAL_DESIGN_GEOMETRIC_PRESENTATION_REPRESENTATION('',(#13),#1415);
#11=SHAPE_REPRESENTATION_RELATIONSHIP('SRR','None',#1422,#12);
#12=ADVANCED_BREP_SHAPE_REPRESENTATION('',(#14),#1414);
#13=STYLED_ITEM('',(#1431),#14);
#14=MANIFOLD_SOLID_BREP('Solid1',#622);
#15=PLANE('',#655);
#16=PLANE('',#661);
#17=PLANE('',#662);
#18=PLANE('',#663);
#19=PLANE('',#664);
#20=PLANE('',#673);
#21=PLANE('',#676);
#22=PLANE('',#682);
#23=PLANE('',#684);
#24=PLANE('',#687);
#25=PLANE('',#695);
#26=PLANE('',#702);
#27=PLANE('',#703);
#28=PLANE('',#704);
#29=PLANE('',#705);
#30=CIRCLE('',#651,25.9999999999996);
#31=CIRCLE('',#652,25.9999999999996);
#32=CIRCLE('',#654,25.9999999999996);
#33=CIRCLE('',#656,26.);
#34=CIRCLE('',#658,26.);
#35=CIRCLE('',#660,26.);
#36=CIRCLE('',#670,20.);
#37=CIRCLE('',#672,20.);
#38=CIRCLE('',#675,20.);
#39=CIRCLE('',#680,26.);
#40=CIRCLE('',#681,26.);
#41=CIRCLE('',#683,20.);
#42=CIRCLE('',#688,20.);
#43=CIRCLE('',#689,20.);
#44=CIRCLE('',#691,20.);
#45=CIRCLE('',#692,26.);
#46=CIRCLE('',#694,20.);
#47=CIRCLE('',#696,26.);
#48=CIRCLE('',#698,20.);
#49=CIRCLE('',#701,20.);
#50=LINE('',#977,#91);
#51=LINE('',#992,#92);
#52=LINE('',#1014,#93);
#53=LINE('',#1029,#94);
#54=LINE('',#1037,#95);
#55=LINE('',#1046,#96);
#56=LINE('',#1063,#97);
#57=LINE('',#1067,#98);
#58=LINE('',#1069,#99);
#59=LINE('',#1070,#100);
#60=LINE('',#1073,#101);
#61=LINE('',#1075,#102);
#62=LINE('',#1076,#103);
#63=LINE('',#1078,#104);
#64=LINE('',#1083,#105);
#65=LINE('',#1085,#106);
#66=LINE('',#1098,#107);
#67=LINE('',#1117,#108);
#68=LINE('',#1119,#109);
#69=LINE('',#1124,#110);
#70=LINE('',#1138,#111);
#71=LINE('',#1141,#112);
#72=LINE('',#1143,#113);
#73=LINE('',#1144,#114);
#74=LINE('',#1157,#115);
#75=LINE('',#1162,#116);
#76=LINE('',#1166,#117);
#77=LINE('',#1179,#118);
#78=LINE('',#1202,#119);
#79=LINE('',#1205,#120);
#80=LINE('',#1208,#121);
#81=LINE('',#1269,#122);
#82=LINE('',#1379,#123);
#83=LINE('',#1382,#124);
#84=LINE('',#1384,#125);
#85=LINE('',#1387,#126);
#86=LINE('',#1399,#127);
#87=LINE('',#1401,#128);
#88=LINE('',#1404,#129);
#89=LINE('',#1407,#130);
#90=LINE('',#1410,#131);
#91=VECTOR('',#718,10.);
#92=VECTOR('',#719,10.);
#93=VECTOR('',#724,10.);
#94=VECTOR('',#731,10.);
#95=VECTOR('',#736,10.);
#96=VECTOR('',#741,10.);
#97=VECTOR('',#744,10.);
#98=VECTOR('',#749,10.);
#99=VECTOR('',#750,10.);
#100=VECTOR('',#751,10.);
#101=VECTOR('',#754,10.);
#102=VECTOR('',#755,10.);
#103=VECTOR('',#756,10.);
#104=VECTOR('',#759,10.);
#105=VECTOR('',#764,10.);
#106=VECTOR('',#765,20.);
#107=VECTOR('',#768,20.);
#108=VECTOR('',#771,20.);
#109=VECTOR('',#772,10.);
#110=VECTOR('',#779,10.);
#111=VECTOR('',#784,10.);
#112=VECTOR('',#787,10.);
#113=VECTOR('',#788,10.);
#114=VECTOR('',#789,10.);
#115=VECTOR('',#794,10.);
#116=VECTOR('',#799,10.);
#117=VECTOR('',#804,10.);
#118=VECTOR('',#807,10.);
#119=VECTOR('',#818,10.);
#120=VECTOR('',#821,10.);
#121=VECTOR('',#824,10.);
#122=VECTOR('',#833,10.);
#123=VECTOR('',#840,10.);
#124=VECTOR('',#843,10.);
#125=VECTOR('',#844,10.);
#126=VECTOR('',#847,10.);
#127=VECTOR('',#852,10.);
#128=VECTOR('',#855,10.);
#129=VECTOR('',#858,10.);
#130=VECTOR('',#863,10.);
#131=VECTOR('',#868,10.);
#132=CYLINDRICAL_SURFACE('',#649,20.);
#133=CYLINDRICAL_SURFACE('',#650,25.9999999999996);
#134=CYLINDRICAL_SURFACE('',#653,25.9999999999996);
#135=CYLINDRICAL_SURFACE('',#657,26.);
#136=CYLINDRICAL_SURFACE('',#659,26.);
#137=CYLINDRICAL_SURFACE('',#669,20.);
#138=CYLINDRICAL_SURFACE('',#671,20.);
#139=CYLINDRICAL_SURFACE('',#674,20.);
#140=CYLINDRICAL_SURFACE('',#679,26.);
#141=CYLINDRICAL_SURFACE('',#690,20.);
#142=CYLINDRICAL_SURFACE('',#693,20.);
#143=CYLINDRICAL_SURFACE('',#697,20.);
#144=CYLINDRICAL_SURFACE('',#699,26.);
#145=CYLINDRICAL_SURFACE('',#700,20.);
#146=FACE_OUTER_BOUND('',#179,.T.);
#147=FACE_OUTER_BOUND('',#180,.T.);
#148=FACE_OUTER_BOUND('',#181,.T.);
#149=FACE_OUTER_BOUND('',#182,.T.);
#150=FACE_OUTER_BOUND('',#183,.T.);
#151=FACE_OUTER_BOUND('',#184,.T.);
#152=FACE_OUTER_BOUND('',#185,.T.);
#153=FACE_OUTER_BOUND('',#186,.T.);
#154=FACE_OUTER_BOUND('',#187,.T.);
#155=FACE_OUTER_BOUND('',#188,.T.);
#156=FACE_OUTER_BOUND('',#189,.T.);
#157=FACE_OUTER_BOUND('',#190,.T.);
#158=FACE_OUTER_BOUND('',#191,.T.);
#159=FACE_OUTER_BOUND('',#192,.T.);
#160=FACE_OUTER_BOUND('',#193,.T.);
#161=FACE_OUTER_BOUND('',#194,.T.);
#162=FACE_OUTER_BOUND('',#195,.T.);
#163=FACE_OUTER_BOUND('',#196,.T.);
#164=FACE_OUTER_BOUND('',#197,.T.);
#165=FACE_OUTER_BOUND('',#198,.T.);
#166=FACE_OUTER_BOUND('',#199,.T.);
#167=FACE_OUTER_BOUND('',#200,.T.);
#168=FACE_OUTER_BOUND('',#201,.T.);
#169=FACE_OUTER_BOUND('',#202,.T.);
#170=FACE_OUTER_BOUND('',#203,.T.);
#171=FACE_OUTER_BOUND('',#204,.T.);
#172=FACE_OUTER_BOUND('',#205,.T.);
#173=FACE_OUTER_BOUND('',#206,.T.);
#174=FACE_OUTER_BOUND('',#207,.T.);
#175=FACE_OUTER_BOUND('',#208,.T.);
#176=FACE_OUTER_BOUND('',#209,.T.);
#177=FACE_OUTER_BOUND('',#210,.T.);
#178=FACE_OUTER_BOUND('',#211,.T.);
#179=EDGE_LOOP('',(#399,#400,#401,#402));
#180=EDGE_LOOP('',(#403,#404,#405,#406));
#181=EDGE_LOOP('',(#407,#408,#409,#410,#411,#412));
#182=EDGE_LOOP('',(#413,#414,#415,#416,#417,#418));
#183=EDGE_LOOP('',(#419,#420,#421,#422));
#184=EDGE_LOOP('',(#423,#424,#425,#426));
#185=EDGE_LOOP('',(#427,#428,#429,#430,#431,#432));
#186=EDGE_LOOP('',(#433,#434,#435,#436));
#187=EDGE_LOOP('',(#437,#438,#439,#440));
#188=EDGE_LOOP('',(#441,#442,#443,#444));
#189=EDGE_LOOP('',(#445,#446,#447,#448));
#190=EDGE_LOOP('',(#449,#450,#451,#452,#453,#454,#455,#456,#457,#458,#459,
#460,#461,#462));
#191=EDGE_LOOP('',(#463,#464,#465,#466,#467,#468,#469,#470));
#192=EDGE_LOOP('',(#471,#472,#473,#474));
#193=EDGE_LOOP('',(#475,#476,#477,#478,#479,#480));
#194=EDGE_LOOP('',(#481,#482,#483,#484));
#195=EDGE_LOOP('',(#485,#486,#487,#488,#489));
#196=EDGE_LOOP('',(#490,#491,#492,#493,#494,#495,#496,#497,#498));
#197=EDGE_LOOP('',(#499,#500,#501));
#198=EDGE_LOOP('',(#502,#503,#504,#505,#506));
#199=EDGE_LOOP('',(#507,#508,#509));
#200=EDGE_LOOP('',(#510,#511,#512,#513));
#201=EDGE_LOOP('',(#514,#515,#516,#517));
#202=EDGE_LOOP('',(#518,#519,#520,#521));
#203=EDGE_LOOP('',(#522,#523,#524,#525,#526,#527));
#204=EDGE_LOOP('',(#528,#529,#530,#531,#532,#533));
#205=EDGE_LOOP('',(#534,#535,#536,#537,#538,#539));
#206=EDGE_LOOP('',(#540,#541,#542,#543,#544,#545,#546,#547,#548));
#207=EDGE_LOOP('',(#549,#550,#551,#552,#553,#554,#555,#556));
#208=EDGE_LOOP('',(#557,#558,#559,#560,#561,#562,#563,#564));
#209=EDGE_LOOP('',(#565,#566,#567,#568));
#210=EDGE_LOOP('',(#569,#570,#571,#572,#573,#574));
#211=EDGE_LOOP('',(#575,#576,#577,#578,#579,#580,#581,#582,#583,#584));
#212=B_SPLINE_CURVE_WITH_KNOTS('',3,(#900,#901,#902,#903,#904,#905,#906,
#907,#908,#909,#910,#911),.UNSPECIFIED.,.F.,.F.,(4,2,2,2,2,4),(0.,0.738851948835304,
1.35160660389276,1.92571826909426,2.2589317922474,2.65978243521695),
 .UNSPECIFIED.);
#213=B_SPLINE_CURVE_WITH_KNOTS('',3,(#914,#915,#916,#917,#918,#919,#920,
#921,#922,#923),.UNSPECIFIED.,.F.,.F.,(4,2,2,2,4),(-0.00272298157734922,
0.,0.932095576695778,1.84666963519678,2.65585582604547),.UNSPECIFIED.);
#214=B_SPLINE_CURVE_WITH_KNOTS('',3,(#952,#953,#954,#955,#956,#957,#958,
#959,#960,#961,#962,#963),.UNSPECIFIED.,.F.,.F.,(4,2,2,2,2,4),(0.,0.285902459819075,
0.87607066273926,1.40025483971897,1.94245680911852,2.55067380742889),
 .UNSPECIFIED.);
#215=B_SPLINE_CURVE_WITH_KNOTS('',3,(#966,#967,#968,#969,#970,#971,#972,
#973,#974,#975),.UNSPECIFIED.,.F.,.F.,(4,2,2,2,4),(0.,0.803673939913596,
1.71201783560901,2.63776389163189,2.64046832399868),.UNSPECIFIED.);
#216=B_SPLINE_CURVE_WITH_KNOTS('',3,(#979,#980,#981,#982,#983,#984,#985,
#986,#987,#988,#989,#990),.UNSPECIFIED.,.F.,.F.,(4,2,2,2,2,4),(6.35259528871928,
6.52429602798119,6.94897337270953,7.46901306806107,7.98905276341261,8.32204459709975),
 .UNSPECIFIED.);
#217=B_SPLINE_CURVE_WITH_KNOTS('',3,(#993,#994,#995,#996,#997,#998,#999,
#1000,#1001,#1002,#1003,#1004),.UNSPECIFIED.,.F.,.F.,(4,2,2,2,2,4),(9.73621971113133,
10.0692115448186,10.5892512401701,11.1092909355217,11.53396828025,11.7056690195119),
 .UNSPECIFIED.);
#218=B_SPLINE_CURVE_WITH_KNOTS('',3,(#1007,#1008,#1009,#1010),
 .UNSPECIFIED.,.F.,.F.,(4,4),(2.07929271885923,2.10637611946342),
 .UNSPECIFIED.);
#219=B_SPLINE_CURVE_WITH_KNOTS('',3,(#1018,#1019,#1020,#1021,#1022,#1023,
#1024,#1025),.UNSPECIFIED.,.F.,.F.,(4,2,2,4),(0.969973214081502,1.50306941993684,
2.0379784353961,2.07929271885923),.UNSPECIFIED.);
#220=B_SPLINE_CURVE_WITH_KNOTS('',3,(#1030,#1031,#1032,#1033),
 .UNSPECIFIED.,.F.,.F.,(4,4),(5.67015019883159,5.67196295019088),
 .UNSPECIFIED.);
#221=B_SPLINE_CURVE_WITH_KNOTS('',3,(#1040,#1041,#1042,#1043),
 .UNSPECIFIED.,.F.,.F.,(4,4),(9.18372361832253,9.21080701892669),
 .UNSPECIFIED.);
#222=B_SPLINE_CURVE_WITH_KNOTS('',3,(#1049,#1050,#1051,#1052,#1053,#1054,
#1055,#1056),.UNSPECIFIED.,.F.,.F.,(4,2,2,4),(9.21080701892669,9.25212130238985,
9.78703031784911,10.3201265237045),.UNSPECIFIED.);
#223=B_SPLINE_CURVE_WITH_KNOTS('',3,(#1058,#1059,#1060,#1061),
 .UNSPECIFIED.,.F.,.F.,(4,4),(5.67196295019091,5.6737757015502),
 .UNSPECIFIED.);
#224=B_SPLINE_CURVE_WITH_KNOTS('',3,(#1089,#1090,#1091,#1092,#1093,#1094,
#1095,#1096),.UNSPECIFIED.,.F.,.F.,(4,1,1,1,1,4),(-14.2294147962789,-13.789591483709,
-12.9099448585691,-12.4701215459992,-12.2502098897142,-12.2474926033748),
 .UNSPECIFIED.);
#225=B_SPLINE_CURVE_WITH_KNOTS('',3,(#1100,#1101,#1102,#1103,#1104,#1105,
#1106,#1107,#1108,#1109,#1110,#1111,#1112,#1113),.UNSPECIFIED.,.F.,.F.,
(4,1,1,1,1,1,1,1,1,1,1,4),(-14.6933122032299,-14.6907274878463,-14.4708767272914,
-14.0311752061815,-13.9212498259041,-13.5914736850717,-13.3716229245168,
-12.9319214034069,-12.8219960231294,-12.7670333329907,-12.7395519879213,
-12.712070642852),.UNSPECIFIED.);
#226=B_SPLINE_CURVE_WITH_KNOTS('',3,(#1127,#1128,#1129,#1130,#1131,#1132,
#1133,#1134,#1135),.UNSPECIFIED.,.F.,.F.,(4,3,2,4),(-0.229037883413707,
0.,0.396918256087884,0.40687244300981),.UNSPECIFIED.);
#227=B_SPLINE_CURVE_WITH_KNOTS('',3,(#1149,#1150,#1151,#1152,#1153,#1154,
#1155,#1156),.UNSPECIFIED.,.F.,.F.,(4,2,2,4),(6.02851355271834,6.03846773963715,
6.43538599572503,6.66442387913874),.UNSPECIFIED.);
#228=B_SPLINE_CURVE_WITH_KNOTS('',3,(#1168,#1169,#1170,#1171,#1172,#1173,
#1174,#1175),.UNSPECIFIED.,.F.,.F.,(4,2,2,4),(9.21064835762064,9.25196264108377,
9.78687165654304,10.3217806720023),.UNSPECIFIED.);
#229=B_SPLINE_CURVE_WITH_KNOTS('',3,(#1182,#1183,#1184,#1185,#1186,#1187,
#1188,#1189,#1190,#1191,#1192,#1193,#1194,#1195),.UNSPECIFIED.,.F.,.F.,
(4,2,2,2,2,2,4),(0.,0.698428436125169,1.1241898638825,1.34390660269603,
1.45756081740914,1.5990213853228,1.60461717859848),.UNSPECIFIED.);
#230=B_SPLINE_CURVE_WITH_KNOTS('',3,(#1361,#1362,#1363,#1364,#1365,#1366,
#1367,#1368,#1369,#1370,#1371,#1372,#1373,#1374),.UNSPECIFIED.,.F.,.F.,
(4,2,2,2,2,2,4),(-0.002665704376822,0.,0.00856120559631269,0.0755620900896128,
0.168823682936793,0.284376423085482,0.475554919838258),.UNSPECIFIED.);
#231=B_SPLINE_CURVE_WITH_KNOTS('',3,(#1389,#1390,#1391,#1392,#1393,#1394,
#1395,#1396),.UNSPECIFIED.,.F.,.F.,(4,2,2,4),(0.968001743171526,1.50291075863079,
2.03781977409006,2.07913405755321),.UNSPECIFIED.);
#232=ELLIPSE('',#645,398.851779504177,25.9999999999996);
#233=ELLIPSE('',#646,400.652894677735,45.9999999999996);
#234=ELLIPSE('',#647,400.652894677739,46.);
#235=ELLIPSE('',#648,398.851779504181,26.);
#236=ELLIPSE('',#665,20.1331370362235,20.);
#237=ELLIPSE('',#666,226.455983948287,26.);
#238=ELLIPSE('',#667,226.455983948287,26.);
#239=ELLIPSE('',#668,20.1331370362235,20.);
#240=ELLIPSE('',#677,22.4131268813027,20.);
#241=ELLIPSE('',#678,57.601736084948,26.);
#242=ELLIPSE('',#685,57.601736084948,26.);
#243=ELLIPSE('',#686,22.4131268813027,20.);
#244=VERTEX_POINT('',#896);
#245=VERTEX_POINT('',#897);
#246=VERTEX_POINT('',#899);
#247=VERTEX_POINT('',#912);
#248=VERTEX_POINT('',#948);
#249=VERTEX_POINT('',#949);
#250=VERTEX_POINT('',#951);
#251=VERTEX_POINT('',#964);
#252=VERTEX_POINT('',#978);
#253=VERTEX_POINT('',#991);
#254=VERTEX_POINT('',#1006);
#255=VERTEX_POINT('',#1011);
#256=VERTEX_POINT('',#1013);
#257=VERTEX_POINT('',#1017);
#258=VERTEX_POINT('',#1026);
#259=VERTEX_POINT('',#1028);
#260=VERTEX_POINT('',#1035);
#261=VERTEX_POINT('',#1039);
#262=VERTEX_POINT('',#1044);
#263=VERTEX_POINT('',#1048);
#264=VERTEX_POINT('',#1057);
#265=VERTEX_POINT('',#1062);
#266=VERTEX_POINT('',#1066);
#267=VERTEX_POINT('',#1068);
#268=VERTEX_POINT('',#1072);
#269=VERTEX_POINT('',#1074);
#270=VERTEX_POINT('',#1080);
#271=VERTEX_POINT('',#1082);
#272=VERTEX_POINT('',#1084);
#273=VERTEX_POINT('',#1086);
#274=VERTEX_POINT('',#1088);
#275=VERTEX_POINT('',#1097);
#276=VERTEX_POINT('',#1099);
#277=VERTEX_POINT('',#1114);
#278=VERTEX_POINT('',#1116);
#279=VERTEX_POINT('',#1118);
#280=VERTEX_POINT('',#1122);
#281=VERTEX_POINT('',#1126);
#282=VERTEX_POINT('',#1136);
#283=VERTEX_POINT('',#1140);
#284=VERTEX_POINT('',#1142);
#285=VERTEX_POINT('',#1146);
#286=VERTEX_POINT('',#1148);
#287=VERTEX_POINT('',#1159);
#288=VERTEX_POINT('',#1161);
#289=VERTEX_POINT('',#1165);
#290=VERTEX_POINT('',#1167);
#291=VERTEX_POINT('',#1176);
#292=VERTEX_POINT('',#1178);
#293=VERTEX_POINT('',#1180);
#294=VERTEX_POINT('',#1199);
#295=VERTEX_POINT('',#1201);
#296=VERTEX_POINT('',#1203);
#297=VERTEX_POINT('',#1207);
#298=VERTEX_POINT('',#1267);
#299=VERTEX_POINT('',#1360);
#300=VERTEX_POINT('',#1377);
#301=VERTEX_POINT('',#1381);
#302=VERTEX_POINT('',#1383);
#303=VERTEX_POINT('',#1385);
#304=VERTEX_POINT('',#1397);
#305=VERTEX_POINT('',#1403);
#306=EDGE_CURVE('',#244,#245,#232,.T.);
#307=EDGE_CURVE('',#245,#246,#212,.T.);
#308=EDGE_CURVE('',#246,#247,#233,.T.);
#309=EDGE_CURVE('',#247,#244,#213,.T.);
#310=EDGE_CURVE('',#248,#249,#234,.T.);
#311=EDGE_CURVE('',#249,#250,#214,.T.);
#312=EDGE_CURVE('',#250,#251,#235,.T.);
#313=EDGE_CURVE('',#251,#248,#215,.T.);
#314=EDGE_CURVE('',#247,#248,#50,.T.);
#315=EDGE_CURVE('',#251,#252,#216,.T.);
#316=EDGE_CURVE('',#252,#253,#51,.T.);
#317=EDGE_CURVE('',#253,#244,#217,.T.);
#318=EDGE_CURVE('',#254,#245,#218,.T.);
#319=EDGE_CURVE('',#255,#253,#30,.T.);
#320=EDGE_CURVE('',#256,#255,#52,.T.);
#321=EDGE_CURVE('',#254,#256,#31,.T.);
#322=EDGE_CURVE('',#257,#254,#219,.T.);
#323=EDGE_CURVE('',#258,#254,#32,.T.);
#324=EDGE_CURVE('',#258,#259,#53,.T.);
#325=EDGE_CURVE('',#257,#259,#220,.T.);
#326=EDGE_CURVE('',#252,#260,#33,.T.);
#327=EDGE_CURVE('',#260,#255,#54,.T.);
#328=EDGE_CURVE('',#250,#261,#221,.T.);
#329=EDGE_CURVE('',#262,#261,#34,.T.);
#330=EDGE_CURVE('',#262,#260,#55,.T.);
#331=EDGE_CURVE('',#261,#263,#222,.T.);
#332=EDGE_CURVE('',#264,#263,#223,.T.);
#333=EDGE_CURVE('',#265,#264,#56,.T.);
#334=EDGE_CURVE('',#261,#265,#35,.T.);
#335=EDGE_CURVE('',#266,#264,#57,.T.);
#336=EDGE_CURVE('',#267,#266,#58,.T.);
#337=EDGE_CURVE('',#265,#267,#59,.T.);
#338=EDGE_CURVE('',#259,#268,#60,.T.);
#339=EDGE_CURVE('',#269,#258,#61,.T.);
#340=EDGE_CURVE('',#269,#268,#62,.T.);
#341=EDGE_CURVE('',#256,#262,#63,.T.);
#342=EDGE_CURVE('',#270,#246,#236,.T.);
#343=EDGE_CURVE('',#270,#271,#64,.T.);
#344=EDGE_CURVE('',#272,#271,#65,.T.);
#345=EDGE_CURVE('',#272,#273,#237,.T.);
#346=EDGE_CURVE('',#274,#273,#224,.T.);
#347=EDGE_CURVE('',#275,#274,#66,.T.);
#348=EDGE_CURVE('',#276,#275,#225,.T.);
#349=EDGE_CURVE('',#276,#277,#238,.T.);
#350=EDGE_CURVE('',#278,#277,#67,.T.);
#351=EDGE_CURVE('',#278,#279,#68,.T.);
#352=EDGE_CURVE('',#249,#279,#239,.T.);
#353=EDGE_CURVE('',#268,#280,#36,.T.);
#354=EDGE_CURVE('',#280,#270,#69,.T.);
#355=EDGE_CURVE('',#272,#281,#226,.T.);
#356=EDGE_CURVE('',#271,#282,#37,.T.);
#357=EDGE_CURVE('',#281,#282,#70,.T.);
#358=EDGE_CURVE('',#280,#283,#71,.T.);
#359=EDGE_CURVE('',#284,#283,#72,.T.);
#360=EDGE_CURVE('',#282,#284,#73,.T.);
#361=EDGE_CURVE('',#285,#278,#38,.T.);
#362=EDGE_CURVE('',#277,#286,#227,.F.);
#363=EDGE_CURVE('',#285,#286,#74,.T.);
#364=EDGE_CURVE('',#284,#287,#240,.T.);
#365=EDGE_CURVE('',#287,#288,#75,.T.);
#366=EDGE_CURVE('',#281,#288,#241,.T.);
#367=EDGE_CURVE('',#288,#289,#76,.T.);
#368=EDGE_CURVE('',#290,#289,#228,.T.);
#369=EDGE_CURVE('',#290,#291,#39,.T.);
#370=EDGE_CURVE('',#292,#291,#77,.T.);
#371=EDGE_CURVE('',#292,#293,#40,.T.);
#372=EDGE_CURVE('',#273,#293,#229,.T.);
#373=EDGE_CURVE('',#289,#287,#41,.T.);
#374=EDGE_CURVE('',#294,#286,#242,.T.);
#375=EDGE_CURVE('',#294,#295,#78,.T.);
#376=EDGE_CURVE('',#295,#296,#243,.T.);
#377=EDGE_CURVE('',#285,#296,#79,.F.);
#378=EDGE_CURVE('',#297,#294,#80,.T.);
#379=EDGE_CURVE('',#295,#297,#42,.T.);
#380=EDGE_CURVE('',#292,#274,#43,.T.);
#381=EDGE_CURVE('',#298,#275,#44,.T.);
#382=EDGE_CURVE('',#298,#292,#81,.T.);
#383=EDGE_CURVE('',#276,#299,#230,.F.);
#384=EDGE_CURVE('',#299,#298,#45,.T.);
#385=EDGE_CURVE('',#283,#300,#46,.T.);
#386=EDGE_CURVE('',#300,#290,#82,.T.);
#387=EDGE_CURVE('',#300,#301,#83,.T.);
#388=EDGE_CURVE('',#302,#301,#84,.T.);
#389=EDGE_CURVE('',#303,#302,#47,.T.);
#390=EDGE_CURVE('',#291,#303,#85,.T.);
#391=EDGE_CURVE('',#297,#302,#231,.T.);
#392=EDGE_CURVE('',#301,#304,#48,.T.);
#393=EDGE_CURVE('',#304,#296,#86,.T.);
#394=EDGE_CURVE('',#303,#298,#87,.T.);
#395=EDGE_CURVE('',#279,#305,#88,.T.);
#396=EDGE_CURVE('',#305,#266,#49,.T.);
#397=EDGE_CURVE('',#267,#269,#89,.T.);
#398=EDGE_CURVE('',#304,#305,#90,.T.);
#399=ORIENTED_EDGE('',*,*,#306,.T.);
#400=ORIENTED_EDGE('',*,*,#307,.T.);
#401=ORIENTED_EDGE('',*,*,#308,.T.);
#402=ORIENTED_EDGE('',*,*,#309,.T.);
#403=ORIENTED_EDGE('',*,*,#310,.T.);
#404=ORIENTED_EDGE('',*,*,#311,.T.);
#405=ORIENTED_EDGE('',*,*,#312,.T.);
#406=ORIENTED_EDGE('',*,*,#313,.T.);
#407=ORIENTED_EDGE('',*,*,#314,.T.);
#408=ORIENTED_EDGE('',*,*,#313,.F.);
#409=ORIENTED_EDGE('',*,*,#315,.T.);
#410=ORIENTED_EDGE('',*,*,#316,.T.);
#411=ORIENTED_EDGE('',*,*,#317,.T.);
#412=ORIENTED_EDGE('',*,*,#309,.F.);
#413=ORIENTED_EDGE('',*,*,#318,.T.);
#414=ORIENTED_EDGE('',*,*,#306,.F.);
#415=ORIENTED_EDGE('',*,*,#317,.F.);
#416=ORIENTED_EDGE('',*,*,#319,.F.);
#417=ORIENTED_EDGE('',*,*,#320,.F.);
#418=ORIENTED_EDGE('',*,*,#321,.F.);
#419=ORIENTED_EDGE('',*,*,#322,.T.);
#420=ORIENTED_EDGE('',*,*,#323,.F.);
#421=ORIENTED_EDGE('',*,*,#324,.T.);
#422=ORIENTED_EDGE('',*,*,#325,.F.);
#423=ORIENTED_EDGE('',*,*,#316,.F.);
#424=ORIENTED_EDGE('',*,*,#326,.T.);
#425=ORIENTED_EDGE('',*,*,#327,.T.);
#426=ORIENTED_EDGE('',*,*,#319,.T.);
#427=ORIENTED_EDGE('',*,*,#312,.F.);
#428=ORIENTED_EDGE('',*,*,#328,.T.);
#429=ORIENTED_EDGE('',*,*,#329,.F.);
#430=ORIENTED_EDGE('',*,*,#330,.T.);
#431=ORIENTED_EDGE('',*,*,#326,.F.);
#432=ORIENTED_EDGE('',*,*,#315,.F.);
#433=ORIENTED_EDGE('',*,*,#331,.T.);
#434=ORIENTED_EDGE('',*,*,#332,.F.);
#435=ORIENTED_EDGE('',*,*,#333,.F.);
#436=ORIENTED_EDGE('',*,*,#334,.F.);
#437=ORIENTED_EDGE('',*,*,#335,.F.);
#438=ORIENTED_EDGE('',*,*,#336,.F.);
#439=ORIENTED_EDGE('',*,*,#337,.F.);
#440=ORIENTED_EDGE('',*,*,#333,.T.);
#441=ORIENTED_EDGE('',*,*,#338,.F.);
#442=ORIENTED_EDGE('',*,*,#324,.F.);
#443=ORIENTED_EDGE('',*,*,#339,.F.);
#444=ORIENTED_EDGE('',*,*,#340,.T.);
#445=ORIENTED_EDGE('',*,*,#341,.F.);
#446=ORIENTED_EDGE('',*,*,#320,.T.);
#447=ORIENTED_EDGE('',*,*,#327,.F.);
#448=ORIENTED_EDGE('',*,*,#330,.F.);
#449=ORIENTED_EDGE('',*,*,#308,.F.);
#450=ORIENTED_EDGE('',*,*,#342,.F.);
#451=ORIENTED_EDGE('',*,*,#343,.T.);
#452=ORIENTED_EDGE('',*,*,#344,.F.);
#453=ORIENTED_EDGE('',*,*,#345,.T.);
#454=ORIENTED_EDGE('',*,*,#346,.F.);
#455=ORIENTED_EDGE('',*,*,#347,.F.);
#456=ORIENTED_EDGE('',*,*,#348,.F.);
#457=ORIENTED_EDGE('',*,*,#349,.T.);
#458=ORIENTED_EDGE('',*,*,#350,.F.);
#459=ORIENTED_EDGE('',*,*,#351,.T.);
#460=ORIENTED_EDGE('',*,*,#352,.F.);
#461=ORIENTED_EDGE('',*,*,#310,.F.);
#462=ORIENTED_EDGE('',*,*,#314,.F.);
#463=ORIENTED_EDGE('',*,*,#325,.T.);
#464=ORIENTED_EDGE('',*,*,#338,.T.);
#465=ORIENTED_EDGE('',*,*,#353,.T.);
#466=ORIENTED_EDGE('',*,*,#354,.T.);
#467=ORIENTED_EDGE('',*,*,#342,.T.);
#468=ORIENTED_EDGE('',*,*,#307,.F.);
#469=ORIENTED_EDGE('',*,*,#318,.F.);
#470=ORIENTED_EDGE('',*,*,#322,.F.);
#471=ORIENTED_EDGE('',*,*,#355,.F.);
#472=ORIENTED_EDGE('',*,*,#344,.T.);
#473=ORIENTED_EDGE('',*,*,#356,.T.);
#474=ORIENTED_EDGE('',*,*,#357,.F.);
#475=ORIENTED_EDGE('',*,*,#356,.F.);
#476=ORIENTED_EDGE('',*,*,#343,.F.);
#477=ORIENTED_EDGE('',*,*,#354,.F.);
#478=ORIENTED_EDGE('',*,*,#358,.T.);
#479=ORIENTED_EDGE('',*,*,#359,.F.);
#480=ORIENTED_EDGE('',*,*,#360,.F.);
#481=ORIENTED_EDGE('',*,*,#361,.T.);
#482=ORIENTED_EDGE('',*,*,#350,.T.);
#483=ORIENTED_EDGE('',*,*,#362,.T.);
#484=ORIENTED_EDGE('',*,*,#363,.F.);
#485=ORIENTED_EDGE('',*,*,#364,.T.);
#486=ORIENTED_EDGE('',*,*,#365,.T.);
#487=ORIENTED_EDGE('',*,*,#366,.F.);
#488=ORIENTED_EDGE('',*,*,#357,.T.);
#489=ORIENTED_EDGE('',*,*,#360,.T.);
#490=ORIENTED_EDGE('',*,*,#366,.T.);
#491=ORIENTED_EDGE('',*,*,#367,.T.);
#492=ORIENTED_EDGE('',*,*,#368,.F.);
#493=ORIENTED_EDGE('',*,*,#369,.T.);
#494=ORIENTED_EDGE('',*,*,#370,.F.);
#495=ORIENTED_EDGE('',*,*,#371,.T.);
#496=ORIENTED_EDGE('',*,*,#372,.F.);
#497=ORIENTED_EDGE('',*,*,#345,.F.);
#498=ORIENTED_EDGE('',*,*,#355,.T.);
#499=ORIENTED_EDGE('',*,*,#365,.F.);
#500=ORIENTED_EDGE('',*,*,#373,.F.);
#501=ORIENTED_EDGE('',*,*,#367,.F.);
#502=ORIENTED_EDGE('',*,*,#374,.F.);
#503=ORIENTED_EDGE('',*,*,#375,.T.);
#504=ORIENTED_EDGE('',*,*,#376,.T.);
#505=ORIENTED_EDGE('',*,*,#377,.F.);
#506=ORIENTED_EDGE('',*,*,#363,.T.);
#507=ORIENTED_EDGE('',*,*,#375,.F.);
#508=ORIENTED_EDGE('',*,*,#378,.F.);
#509=ORIENTED_EDGE('',*,*,#379,.F.);
#510=ORIENTED_EDGE('',*,*,#372,.T.);
#511=ORIENTED_EDGE('',*,*,#371,.F.);
#512=ORIENTED_EDGE('',*,*,#380,.T.);
#513=ORIENTED_EDGE('',*,*,#346,.T.);
#514=ORIENTED_EDGE('',*,*,#381,.T.);
#515=ORIENTED_EDGE('',*,*,#347,.T.);
#516=ORIENTED_EDGE('',*,*,#380,.F.);
#517=ORIENTED_EDGE('',*,*,#382,.F.);
#518=ORIENTED_EDGE('',*,*,#383,.F.);
#519=ORIENTED_EDGE('',*,*,#348,.T.);
#520=ORIENTED_EDGE('',*,*,#381,.F.);
#521=ORIENTED_EDGE('',*,*,#384,.F.);
#522=ORIENTED_EDGE('',*,*,#373,.T.);
#523=ORIENTED_EDGE('',*,*,#364,.F.);
#524=ORIENTED_EDGE('',*,*,#359,.T.);
#525=ORIENTED_EDGE('',*,*,#385,.T.);
#526=ORIENTED_EDGE('',*,*,#386,.T.);
#527=ORIENTED_EDGE('',*,*,#368,.T.);
#528=ORIENTED_EDGE('',*,*,#386,.F.);
#529=ORIENTED_EDGE('',*,*,#387,.T.);
#530=ORIENTED_EDGE('',*,*,#388,.F.);
#531=ORIENTED_EDGE('',*,*,#389,.F.);
#532=ORIENTED_EDGE('',*,*,#390,.F.);
#533=ORIENTED_EDGE('',*,*,#369,.F.);
#534=ORIENTED_EDGE('',*,*,#391,.T.);
#535=ORIENTED_EDGE('',*,*,#388,.T.);
#536=ORIENTED_EDGE('',*,*,#392,.T.);
#537=ORIENTED_EDGE('',*,*,#393,.T.);
#538=ORIENTED_EDGE('',*,*,#376,.F.);
#539=ORIENTED_EDGE('',*,*,#379,.T.);
#540=ORIENTED_EDGE('',*,*,#374,.T.);
#541=ORIENTED_EDGE('',*,*,#362,.F.);
#542=ORIENTED_EDGE('',*,*,#349,.F.);
#543=ORIENTED_EDGE('',*,*,#383,.T.);
#544=ORIENTED_EDGE('',*,*,#384,.T.);
#545=ORIENTED_EDGE('',*,*,#394,.F.);
#546=ORIENTED_EDGE('',*,*,#389,.T.);
#547=ORIENTED_EDGE('',*,*,#391,.F.);
#548=ORIENTED_EDGE('',*,*,#378,.T.);
#549=ORIENTED_EDGE('',*,*,#332,.T.);
#550=ORIENTED_EDGE('',*,*,#331,.F.);
#551=ORIENTED_EDGE('',*,*,#328,.F.);
#552=ORIENTED_EDGE('',*,*,#311,.F.);
#553=ORIENTED_EDGE('',*,*,#352,.T.);
#554=ORIENTED_EDGE('',*,*,#395,.T.);
#555=ORIENTED_EDGE('',*,*,#396,.T.);
#556=ORIENTED_EDGE('',*,*,#335,.T.);
#557=ORIENTED_EDGE('',*,*,#397,.T.);
#558=ORIENTED_EDGE('',*,*,#339,.T.);
#559=ORIENTED_EDGE('',*,*,#323,.T.);
#560=ORIENTED_EDGE('',*,*,#321,.T.);
#561=ORIENTED_EDGE('',*,*,#341,.T.);
#562=ORIENTED_EDGE('',*,*,#329,.T.);
#563=ORIENTED_EDGE('',*,*,#334,.T.);
#564=ORIENTED_EDGE('',*,*,#337,.T.);
#565=ORIENTED_EDGE('',*,*,#370,.T.);
#566=ORIENTED_EDGE('',*,*,#390,.T.);
#567=ORIENTED_EDGE('',*,*,#394,.T.);
#568=ORIENTED_EDGE('',*,*,#382,.T.);
#569=ORIENTED_EDGE('',*,*,#361,.F.);
#570=ORIENTED_EDGE('',*,*,#377,.T.);
#571=ORIENTED_EDGE('',*,*,#393,.F.);
#572=ORIENTED_EDGE('',*,*,#398,.T.);
#573=ORIENTED_EDGE('',*,*,#395,.F.);
#574=ORIENTED_EDGE('',*,*,#351,.F.);
#575=ORIENTED_EDGE('',*,*,#396,.F.);
#576=ORIENTED_EDGE('',*,*,#398,.F.);
#577=ORIENTED_EDGE('',*,*,#392,.F.);
#578=ORIENTED_EDGE('',*,*,#387,.F.);
#579=ORIENTED_EDGE('',*,*,#385,.F.);
#580=ORIENTED_EDGE('',*,*,#358,.F.);
#581=ORIENTED_EDGE('',*,*,#353,.F.);
#582=ORIENTED_EDGE('',*,*,#340,.F.);
#583=ORIENTED_EDGE('',*,*,#397,.F.);
#584=ORIENTED_EDGE('',*,*,#336,.T.);
#585=B_SPLINE_SURFACE_WITH_KNOTS('',3,3,((#872,#873,#874,#875),(#876,#877,
#878,#879),(#880,#881,#882,#883),(#884,#885,#886,#887),(#888,#889,#890,
#891),(#892,#893,#894,#895)),.UNSPECIFIED.,.F.,.F.,.F.,(4,1,1,4),(4,4),
(0.,0.285714285714286,0.571428571428571,1.),(0.99654826417214,1.11931180216463),
 .UNSPECIFIED.);
#586=B_SPLINE_SURFACE_WITH_KNOTS('',3,3,((#924,#925,#926,#927),(#928,#929,
#930,#931),(#932,#933,#934,#935),(#936,#937,#938,#939),(#940,#941,#942,
#943),(#944,#945,#946,#947)),.UNSPECIFIED.,.F.,.F.,.F.,(4,1,1,4),(4,4),
(0.,0.285714285714286,0.571428571428571,1.),(-1.11917916694461,-0.996548264172145),
 .UNSPECIFIED.);
#587=B_SPLINE_SURFACE_WITH_KNOTS('',3,3,((#1210,#1211,#1212,#1213,#1214,
#1215,#1216,#1217,#1218,#1219,#1220),(#1221,#1222,#1223,#1224,#1225,#1226,
#1227,#1228,#1229,#1230,#1231),(#1232,#1233,#1234,#1235,#1236,#1237,#1238,
#1239,#1240,#1241,#1242),(#1243,#1244,#1245,#1246,#1247,#1248,#1249,#1250,
#1251,#1252,#1253),(#1254,#1255,#1256,#1257,#1258,#1259,#1260,#1261,#1262,
#1263,#1264)),.UNSPECIFIED.,.F.,.F.,.F.,(4,1,4),(4,1,1,1,1,1,1,1,4),(0.,
0.571428571428571,1.),(-14.2294147962789,-13.789591483709,-12.9099448585691,
-12.4701215459992,-12.2502098897142,-12.0302982334292,-11.5904749208593,
-11.3705632645743,-11.1506516082894),.UNSPECIFIED.);
#588=B_SPLINE_SURFACE_WITH_KNOTS('',3,3,((#1270,#1271,#1272,#1273,#1274,
#1275,#1276,#1277,#1278,#1279,#1280,#1281,#1282,#1283,#1284,#1285,#1286,
#1287),(#1288,#1289,#1290,#1291,#1292,#1293,#1294,#1295,#1296,#1297,#1298,
#1299,#1300,#1301,#1302,#1303,#1304,#1305),(#1306,#1307,#1308,#1309,#1310,
#1311,#1312,#1313,#1314,#1315,#1316,#1317,#1318,#1319,#1320,#1321,#1322,
#1323),(#1324,#1325,#1326,#1327,#1328,#1329,#1330,#1331,#1332,#1333,#1334,
#1335,#1336,#1337,#1338,#1339,#1340,#1341),(#1342,#1343,#1344,#1345,#1346,
#1347,#1348,#1349,#1350,#1351,#1352,#1353,#1354,#1355,#1356,#1357,#1358,
#1359)),.UNSPECIFIED.,.F.,.F.,.F.,(4,1,4),(4,1,1,1,1,1,1,1,1,1,1,1,1,1,
1,4),(0.,0.571428571428571,1.),(-15.7899812906209,-15.4602051497885,-15.3502797695111,
-15.1304290089561,-14.9105782484012,-14.6907274878463,-14.4708767272914,
-14.0311752061815,-13.9212498259041,-13.5914736850717,-13.3716229245168,
-12.9319214034069,-12.8219960231294,-12.7670333329907,-12.7395519879213,
-12.712070642852),.UNSPECIFIED.);
#589=ADVANCED_FACE('',(#146),#585,.T.);
#590=ADVANCED_FACE('',(#147),#586,.T.);
#591=ADVANCED_FACE('',(#148),#132,.F.);
#592=ADVANCED_FACE('',(#149),#133,.T.);
#593=ADVANCED_FACE('',(#150),#134,.T.);
#594=ADVANCED_FACE('',(#151),#15,.F.);
#595=ADVANCED_FACE('',(#152),#135,.T.);
#596=ADVANCED_FACE('',(#153),#136,.T.);
#597=ADVANCED_FACE('',(#154),#16,.T.);
#598=ADVANCED_FACE('',(#155),#17,.T.);
#599=ADVANCED_FACE('',(#156),#18,.T.);
#600=ADVANCED_FACE('',(#157),#19,.T.);
#601=ADVANCED_FACE('',(#158),#137,.T.);
#602=ADVANCED_FACE('',(#159),#138,.T.);
#603=ADVANCED_FACE('',(#160),#20,.T.);
#604=ADVANCED_FACE('',(#161),#139,.T.);
#605=ADVANCED_FACE('',(#162),#21,.T.);
#606=ADVANCED_FACE('',(#163),#140,.T.);
#607=ADVANCED_FACE('',(#164),#22,.T.);
#608=ADVANCED_FACE('',(#165),#23,.T.);
#609=ADVANCED_FACE('',(#166),#24,.T.);
#610=ADVANCED_FACE('',(#167),#587,.T.);
#611=ADVANCED_FACE('',(#168),#141,.F.);
#612=ADVANCED_FACE('',(#169),#588,.T.);
#613=ADVANCED_FACE('',(#170),#142,.T.);
#614=ADVANCED_FACE('',(#171),#25,.T.);
#615=ADVANCED_FACE('',(#172),#143,.T.);
#616=ADVANCED_FACE('',(#173),#144,.T.);
#617=ADVANCED_FACE('',(#174),#145,.T.);
#618=ADVANCED_FACE('',(#175),#26,.T.);
#619=ADVANCED_FACE('',(#176),#27,.T.);
#620=ADVANCED_FACE('',(#177),#28,.T.);
#621=ADVANCED_FACE('',(#178),#29,.F.);
#622=CLOSED_SHELL('',(#589,#590,#591,#592,#593,#594,#595,#596,#597,#598,
#599,#600,#601,#602,#603,#604,#605,#606,#607,#608,#609,#610,#611,#612,#613,
#614,#615,#616,#617,#618,#619,#620,#621));
#623=DERIVED_UNIT_ELEMENT(#626,1.);
#624=DERIVED_UNIT_ELEMENT(#1417,-3.);
#625=DIMENSIONAL_EXPONENTS(0.,1.,0.,0.,0.,0.,0.);
#626=(
CONVERSION_BASED_UNIT('gram',#628)
MASS_UNIT()
NAMED_UNIT(#625)
);
#627=(
MASS_UNIT()
NAMED_UNIT(*)
SI_UNIT(.KILO.,.GRAM.)
);
#628=MASS_MEASURE_WITH_UNIT(MASS_MEASURE(0.001),#627);
#629=DERIVED_UNIT((#623,#624));
#630=MEASURE_REPRESENTATION_ITEM('density measure',
POSITIVE_RATIO_MEASURE(1.),#629);
#631=PROPERTY_DEFINITION_REPRESENTATION(#636,#633);
#632=PROPERTY_DEFINITION_REPRESENTATION(#637,#634);
#633=REPRESENTATION('material name',(#635),#1414);
#634=REPRESENTATION('density',(#630),#1414);
#635=DESCRIPTIVE_REPRESENTATION_ITEM('Generic','Generic');
#636=PROPERTY_DEFINITION('material property','material name',#1424);
#637=PROPERTY_DEFINITION('material property','density of part',#1424);
#638=DATE_TIME_ROLE('creation_date');
#639=APPLIED_DATE_AND_TIME_ASSIGNMENT(#640,#638,(#1424));
#640=DATE_AND_TIME(#641,#642);
#641=CALENDAR_DATE(2026,20,9);
#642=LOCAL_TIME(0,0,0.,#643);
#643=COORDINATED_UNIVERSAL_TIME_OFFSET(0,0,.BEHIND.);
#644=AXIS2_PLACEMENT_3D('',#871,#706,#707);
#645=AXIS2_PLACEMENT_3D('',#898,#708,#709);
#646=AXIS2_PLACEMENT_3D('',#913,#710,#711);
#647=AXIS2_PLACEMENT_3D('',#950,#712,#713);
#648=AXIS2_PLACEMENT_3D('',#965,#714,#715);
#649=AXIS2_PLACEMENT_3D('',#976,#716,#717);
#650=AXIS2_PLACEMENT_3D('',#1005,#720,#721);
#651=AXIS2_PLACEMENT_3D('',#1012,#722,#723);
#652=AXIS2_PLACEMENT_3D('',#1015,#725,#726);
#653=AXIS2_PLACEMENT_3D('',#1016,#727,#728);
#654=AXIS2_PLACEMENT_3D('',#1027,#729,#730);
#655=AXIS2_PLACEMENT_3D('',#1034,#732,#733);
#656=AXIS2_PLACEMENT_3D('',#1036,#734,#735);
#657=AXIS2_PLACEMENT_3D('',#1038,#737,#738);
#658=AXIS2_PLACEMENT_3D('',#1045,#739,#740);
#659=AXIS2_PLACEMENT_3D('',#1047,#742,#743);
#660=AXIS2_PLACEMENT_3D('',#1064,#745,#746);
#661=AXIS2_PLACEMENT_3D('',#1065,#747,#748);
#662=AXIS2_PLACEMENT_3D('',#1071,#752,#753);
#663=AXIS2_PLACEMENT_3D('',#1077,#757,#758);
#664=AXIS2_PLACEMENT_3D('',#1079,#760,#761);
#665=AXIS2_PLACEMENT_3D('',#1081,#762,#763);
#666=AXIS2_PLACEMENT_3D('',#1087,#766,#767);
#667=AXIS2_PLACEMENT_3D('',#1115,#769,#770);
#668=AXIS2_PLACEMENT_3D('',#1120,#773,#774);
#669=AXIS2_PLACEMENT_3D('',#1121,#775,#776);
#670=AXIS2_PLACEMENT_3D('',#1123,#777,#778);
#671=AXIS2_PLACEMENT_3D('',#1125,#780,#781);
#672=AXIS2_PLACEMENT_3D('',#1137,#782,#783);
#673=AXIS2_PLACEMENT_3D('',#1139,#785,#786);
#674=AXIS2_PLACEMENT_3D('',#1145,#790,#791);
#675=AXIS2_PLACEMENT_3D('',#1147,#792,#793);
#676=AXIS2_PLACEMENT_3D('',#1158,#795,#796);
#677=AXIS2_PLACEMENT_3D('',#1160,#797,#798);
#678=AXIS2_PLACEMENT_3D('',#1163,#800,#801);
#679=AXIS2_PLACEMENT_3D('',#1164,#802,#803);
#680=AXIS2_PLACEMENT_3D('',#1177,#805,#806);
#681=AXIS2_PLACEMENT_3D('',#1181,#808,#809);
#682=AXIS2_PLACEMENT_3D('',#1196,#810,#811);
#683=AXIS2_PLACEMENT_3D('',#1197,#812,#813);
#684=AXIS2_PLACEMENT_3D('',#1198,#814,#815);
#685=AXIS2_PLACEMENT_3D('',#1200,#816,#817);
#686=AXIS2_PLACEMENT_3D('',#1204,#819,#820);
#687=AXIS2_PLACEMENT_3D('',#1206,#822,#823);
#688=AXIS2_PLACEMENT_3D('',#1209,#825,#826);
#689=AXIS2_PLACEMENT_3D('',#1265,#827,#828);
#690=AXIS2_PLACEMENT_3D('',#1266,#829,#830);
#691=AXIS2_PLACEMENT_3D('',#1268,#831,#832);
#692=AXIS2_PLACEMENT_3D('',#1375,#834,#835);
#693=AXIS2_PLACEMENT_3D('',#1376,#836,#837);
#694=AXIS2_PLACEMENT_3D('',#1378,#838,#839);
#695=AXIS2_PLACEMENT_3D('',#1380,#841,#842);
#696=AXIS2_PLACEMENT_3D('',#1386,#845,#846);
#697=AXIS2_PLACEMENT_3D('',#1388,#848,#849);
#698=AXIS2_PLACEMENT_3D('',#1398,#850,#851);
#699=AXIS2_PLACEMENT_3D('',#1400,#853,#854);
#700=AXIS2_PLACEMENT_3D('',#1402,#856,#857);
#701=AXIS2_PLACEMENT_3D('',#1405,#859,#860);
#702=AXIS2_PLACEMENT_3D('',#1406,#861,#862);
#703=AXIS2_PLACEMENT_3D('',#1408,#864,#865);
#704=AXIS2_PLACEMENT_3D('',#1409,#866,#867);
#705=AXIS2_PLACEMENT_3D('',#1411,#869,#870);
#706=DIRECTION('axis',(0.,0.,1.));
#707=DIRECTION('refdir',(1.,0.,0.));
#708=DIRECTION('center_axis',(-1.74516259836014E-17,-0.997873057556935,
-0.0651871229766628));
#709=DIRECTION('ref_axis',(-1.11341915135021E-16,0.0651871229766628,-0.997873057556935));
#710=DIRECTION('center_axis',(2.91354492693147E-17,0.993387168826001,0.114812598663488));
#711=DIRECTION('ref_axis',(-1.05299313935296E-16,0.114812598663488,-0.993387168826001));
#712=DIRECTION('center_axis',(2.91354492693147E-17,0.993387168826001,0.114812598663488));
#713=DIRECTION('ref_axis',(-1.39482734111292E-16,0.114812598663488,-0.993387168826001));
#714=DIRECTION('center_axis',(-1.95598690199633E-16,-0.997873057556935,
-0.0651871229766633));
#715=DIRECTION('ref_axis',(-1.33610298162024E-16,0.0651871229766633,-0.997873057556935));
#716=DIRECTION('center_axis',(1.,-1.51753129060722E-17,-1.22464679914735E-16));
#717=DIRECTION('ref_axis',(0.,-0.746596476908205,0.665277160789588));
#718=DIRECTION('',(-1.,1.51753129060722E-17,1.22464679914735E-16));
#719=DIRECTION('',(1.,-1.51753129060722E-17,-1.22464679914735E-16));
#720=DIRECTION('center_axis',(-1.00929365875014E-16,0.,-1.));
#721=DIRECTION('ref_axis',(0.903846153846154,0.42785760502475,-9.12246191562628E-17));
#722=DIRECTION('center_axis',(-1.22464679914736E-16,-1.01462595962776E-31,
-1.));
#723=DIRECTION('ref_axis',(0.903846153846154,0.42785760502475,-1.10689229922934E-16));
#724=DIRECTION('',(-1.00929365875014E-16,0.,-1.));
#725=DIRECTION('center_axis',(1.22464679914736E-16,1.01462595962776E-31,
1.));
#726=DIRECTION('ref_axis',(0.903846153846154,0.42785760502475,-1.10689229922934E-16));
#727=DIRECTION('center_axis',(-1.00929365875014E-16,0.,-1.));
#728=DIRECTION('ref_axis',(0.903846153846154,0.42785760502475,-9.12246191562628E-17));
#729=DIRECTION('center_axis',(1.22464679914736E-16,1.01462595962776E-31,
1.));
#730=DIRECTION('ref_axis',(0.903846153846154,0.42785760502475,-1.10689229922934E-16));
#731=DIRECTION('',(-1.00929365875014E-16,0.,-1.));
#732=DIRECTION('center_axis',(1.22464679914735E-16,0.,1.));
#733=DIRECTION('ref_axis',(1.,0.,-1.22464679914735E-16));
#734=DIRECTION('center_axis',(-1.22464679914735E-16,0.,-1.));
#735=DIRECTION('ref_axis',(-3.41607084500048E-16,1.,4.18348022599043E-32));
#736=DIRECTION('',(1.,0.,-1.22464679914735E-16));
#737=DIRECTION('center_axis',(-1.00929365875014E-16,0.,-1.));
#738=DIRECTION('ref_axis',(-3.41607084500048E-16,1.,3.44781864170023E-32));
#739=DIRECTION('center_axis',(1.22464679914735E-16,0.,1.));
#740=DIRECTION('ref_axis',(-3.41607084500048E-16,1.,4.18348022599043E-32));
#741=DIRECTION('',(-1.00929365875014E-16,0.,-1.));
#742=DIRECTION('center_axis',(-1.00929365875014E-16,0.,-1.));
#743=DIRECTION('ref_axis',(-3.41607084500048E-16,1.,3.44781864170023E-32));
#744=DIRECTION('',(-1.00929365875014E-16,0.,-1.));
#745=DIRECTION('center_axis',(1.22464679914735E-16,0.,1.));
#746=DIRECTION('ref_axis',(-3.41607084500048E-16,1.,4.18348022599043E-32));
#747=DIRECTION('center_axis',(-1.,0.,1.00929365875014E-16));
#748=DIRECTION('ref_axis',(0.,1.,0.));
#749=DIRECTION('',(0.,1.,0.));
#750=DIRECTION('',(-1.00929365875014E-16,0.,-1.));
#751=DIRECTION('',(0.,-1.,0.));
#752=DIRECTION('center_axis',(1.,2.96059473233375E-15,-1.00929365875014E-16));
#753=DIRECTION('ref_axis',(2.96059473233375E-15,-1.,-3.62568286252504E-31));
#754=DIRECTION('',(0.,-1.,0.));
#755=DIRECTION('',(-2.96059473233375E-15,1.,3.62568286252504E-31));
#756=DIRECTION('',(-1.00929365875014E-16,0.,-1.));
#757=DIRECTION('center_axis',(0.,1.,0.));
#758=DIRECTION('ref_axis',(1.,0.,-1.22464679914735E-16));
#759=DIRECTION('',(-1.,0.,1.22464679914735E-16));
#760=DIRECTION('center_axis',(2.91354492693147E-17,0.993387168826001,0.114812598663488));
#761=DIRECTION('ref_axis',(2.52087155930931E-16,-0.114812598663488,0.993387168826001));
#762=DIRECTION('center_axis',(-2.91354492693147E-17,-0.993387168826001,
-0.114812598663488));
#763=DIRECTION('ref_axis',(0.,-0.114812598663488,0.993387168826));
#764=DIRECTION('',(-2.52087155930931E-16,0.114812598663488,-0.993387168826001));
#765=DIRECTION('',(1.,0.,-2.53765262771464E-16));
#766=DIRECTION('center_axis',(-2.91354492693147E-17,-0.993387168826001,
-0.114812598663488));
#767=DIRECTION('ref_axis',(-5.46188837850351E-16,0.114812598663488,-0.993387168826001));
#768=DIRECTION('',(1.,-2.89427814621181E-17,-3.34511664383825E-18));
#769=DIRECTION('center_axis',(-2.91354492693147E-17,-0.993387168826001,
-0.114812598663488));
#770=DIRECTION('ref_axis',(-4.20145259884885E-16,0.114812598663488,-0.993387168826001));
#771=DIRECTION('',(1.,2.50837439338356E-17,-4.70796056082073E-16));
#772=DIRECTION('',(4.25791945815884E-16,-0.114812598663488,0.993387168826001));
#773=DIRECTION('center_axis',(-2.91354492693147E-17,-0.993387168826001,
-0.114812598663488));
#774=DIRECTION('ref_axis',(3.30864392159347E-16,-0.114812598663488,0.993387168826));
#775=DIRECTION('center_axis',(0.,1.,0.));
#776=DIRECTION('ref_axis',(0.707106781186547,0.,0.707106781186547));
#777=DIRECTION('center_axis',(0.,1.,0.));
#778=DIRECTION('ref_axis',(0.707106781186547,0.,0.707106781186547));
#779=DIRECTION('',(0.,1.,0.));
#780=DIRECTION('center_axis',(1.,0.,-2.53765262771464E-16));
#781=DIRECTION('ref_axis',(0.,0.979091994745662,-0.203417958462275));
#782=DIRECTION('center_axis',(-1.,0.,2.53765262771464E-16));
#783=DIRECTION('ref_axis',(0.,0.979091994745662,-0.203417958462275));
#784=DIRECTION('',(1.,0.,-2.53765262771464E-16));
#785=DIRECTION('center_axis',(1.,0.,-2.53765262771464E-16));
#786=DIRECTION('ref_axis',(-2.53765262771464E-16,0.,-1.));
#787=DIRECTION('',(-2.53765262771464E-16,0.,-1.));
#788=DIRECTION('',(0.,-1.,0.));
#789=DIRECTION('',(-2.26443426760911E-16,-0.451375284273665,-0.892334215833322));
#790=DIRECTION('center_axis',(1.,2.50837439338356E-17,-4.70796056082073E-16));
#791=DIRECTION('ref_axis',(0.,0.979091994745662,-0.203417958462275));
#792=DIRECTION('center_axis',(1.,0.,-4.28626379701573E-16));
#793=DIRECTION('ref_axis',(0.,0.979091994745662,-0.203417958462275));
#794=DIRECTION('',(1.,0.,-4.73695157173399E-16));
#795=DIRECTION('center_axis',(-1.14543367622251E-16,0.892334215833321,-0.451375284273664));
#796=DIRECTION('ref_axis',(0.,0.451375284273665,0.892334215833322));
#797=DIRECTION('center_axis',(-1.14543367622251E-16,0.892334215833321,-0.451375284273664));
#798=DIRECTION('ref_axis',(-3.96275996831595E-16,-0.451375284273665,-0.892334215833321));
#799=DIRECTION('',(-1.,0.,2.53765262771464E-16));
#800=DIRECTION('center_axis',(-1.14543367622251E-16,0.892334215833321,-0.451375284273664));
#801=DIRECTION('ref_axis',(4.90627424648641E-16,0.451375284273664,0.892334215833321));
#802=DIRECTION('center_axis',(5.49824736004839E-16,0.,1.));
#803=DIRECTION('ref_axis',(1.,0.,-5.49824736004839E-16));
#804=DIRECTION('',(-5.49824736004839E-16,0.,-1.));
#805=DIRECTION('center_axis',(3.5527136788005E-16,0.,1.));
#806=DIRECTION('ref_axis',(1.,0.,-5.49824736004839E-16));
#807=DIRECTION('',(-5.49824736004839E-16,0.,-1.));
#808=DIRECTION('center_axis',(0.,0.,-1.));
#809=DIRECTION('ref_axis',(1.,0.,-5.49824736004839E-16));
#810=DIRECTION('center_axis',(0.,1.,0.));
#811=DIRECTION('ref_axis',(0.,0.,1.));
#812=DIRECTION('center_axis',(0.,-1.,0.));
#813=DIRECTION('ref_axis',(0.707106781186547,0.,-0.707106781186548));
#814=DIRECTION('center_axis',(-2.13814286228201E-16,0.892334215833321,-0.451375284273664));
#815=DIRECTION('ref_axis',(0.,0.451375284273665,0.892334215833322));
#816=DIRECTION('center_axis',(-2.13814286228201E-16,0.892334215833321,-0.451375284273664));
#817=DIRECTION('ref_axis',(3.77405711268186E-16,0.451375284273664,0.892334215833321));
#818=DIRECTION('',(-1.,0.,4.73695157173399E-16));
#819=DIRECTION('center_axis',(-2.13814286228201E-16,0.892334215833321,-0.451375284273664));
#820=DIRECTION('ref_axis',(-5.94413995247392E-16,-0.451375284273664,-0.892334215833321));
#821=DIRECTION('',(3.82477984416479E-16,0.451375284273665,0.892334215833322));
#822=DIRECTION('center_axis',(0.,1.,0.));
#823=DIRECTION('ref_axis',(0.,0.,1.));
#824=DIRECTION('',(4.22942104619107E-16,0.,1.));
#825=DIRECTION('center_axis',(0.,-1.,0.));
#826=DIRECTION('ref_axis',(-0.707106781186548,0.,-0.707106781186547));
#827=DIRECTION('center_axis',(-1.,6.34463353458748E-16,2.24636205683156E-15));
#828=DIRECTION('ref_axis',(-2.22044604925031E-15,-0.555367825514164,-0.831604821044028));
#829=DIRECTION('center_axis',(-1.,2.89427814621181E-17,3.34511664383825E-18));
#830=DIRECTION('ref_axis',(0.,-0.555367825514164,-0.831604821044027));
#831=DIRECTION('center_axis',(-1.,0.,0.));
#832=DIRECTION('ref_axis',(0.,-0.555367825514164,-0.831604821044027));
#833=DIRECTION('',(1.,0.,0.));
#834=DIRECTION('center_axis',(0.,0.,-1.));
#835=DIRECTION('ref_axis',(-1.,0.,4.22942104619107E-16));
#836=DIRECTION('center_axis',(0.,1.,0.));
#837=DIRECTION('ref_axis',(0.707106781186547,0.,-0.707106781186548));
#838=DIRECTION('center_axis',(0.,1.,0.));
#839=DIRECTION('ref_axis',(0.707106781186547,0.,-0.707106781186548));
#840=DIRECTION('',(0.,1.,0.));
#841=DIRECTION('center_axis',(-3.5527136788005E-16,0.,-1.));
#842=DIRECTION('ref_axis',(-1.,0.,3.5527136788005E-16));
#843=DIRECTION('',(-1.,0.,3.5527136788005E-16));
#844=DIRECTION('',(0.,-1.,0.));
#845=DIRECTION('center_axis',(3.5527136788005E-16,0.,1.));
#846=DIRECTION('ref_axis',(-1.,0.,4.22942104619107E-16));
#847=DIRECTION('',(-1.,0.,3.5527136788005E-16));
#848=DIRECTION('center_axis',(0.,1.,0.));
#849=DIRECTION('ref_axis',(-0.707106781186548,0.,-0.707106781186547));
#850=DIRECTION('center_axis',(0.,1.,0.));
#851=DIRECTION('ref_axis',(-0.707106781186548,0.,-0.707106781186547));
#852=DIRECTION('',(0.,1.,0.));
#853=DIRECTION('center_axis',(-4.22942104619107E-16,0.,-1.));
#854=DIRECTION('ref_axis',(-1.,0.,4.22942104619107E-16));
#855=DIRECTION('',(4.22942104619107E-16,0.,1.));
#856=DIRECTION('center_axis',(0.,1.,0.));
#857=DIRECTION('ref_axis',(-0.707106781186547,0.,0.707106781186548));
#858=DIRECTION('',(0.,-1.,0.));
#859=DIRECTION('center_axis',(0.,1.,0.));
#860=DIRECTION('ref_axis',(-0.707106781186547,0.,0.707106781186548));
#861=DIRECTION('center_axis',(1.22464679914735E-16,0.,1.));
#862=DIRECTION('ref_axis',(1.,0.,-1.22464679914735E-16));
#863=DIRECTION('',(1.,0.,-1.22464679914735E-16));
#864=DIRECTION('center_axis',(0.,1.,0.));
#865=DIRECTION('ref_axis',(0.,0.,1.));
#866=DIRECTION('center_axis',(-1.,0.,4.28626379701573E-16));
#867=DIRECTION('ref_axis',(4.28626379701573E-16,0.,1.));
#868=DIRECTION('',(4.28626379701573E-16,0.,1.));
#869=DIRECTION('center_axis',(0.,1.,0.));
#870=DIRECTION('ref_axis',(0.,0.,1.));
#871=CARTESIAN_POINT('',(0.,0.,0.));
#872=CARTESIAN_POINT('Ctrl Pts',(95.1216457628473,8.11962300269511,-44.2962519732697));
#873=CARTESIAN_POINT('Ctrl Pts',(96.1441582634563,6.53917971038182,-30.6218633964313));
#874=CARTESIAN_POINT('Ctrl Pts',(97.0695348384837,4.89590006393288,-16.4037990500275));
#875=CARTESIAN_POINT('Ctrl Pts',(97.8908180933016,3.2021389740871,-1.74895669565254));
#876=CARTESIAN_POINT('Ctrl Pts',(93.2205581677383,8.10340972092819,-44.1559706255841));
#877=CARTESIAN_POINT('Ctrl Pts',(94.1650901938425,6.52365686267185,-30.4884274614923));
#878=CARTESIAN_POINT('Ctrl Pts',(95.012651975056,4.88146234553895,-16.2777236663968));
#879=CARTESIAN_POINT('Ctrl Pts',(95.755998408216,3.18849373628314,-1.63089470325957));
#880=CARTESIAN_POINT('Ctrl Pts',(89.419855740283,8.61747228277794,-43.8123565440864));
#881=CARTESIAN_POINT('Ctrl Pts',(90.2086590957356,7.08390509013166,-30.1533350647384));
#882=CARTESIAN_POINT('Ctrl Pts',(90.9010853630324,5.49092093822269,-15.9519315984935));
#883=CARTESIAN_POINT('Ctrl Pts',(91.4889081412528,3.85008234179362,-1.31529507354595));
#884=CARTESIAN_POINT('Ctrl Pts',(83.3045412789384,11.3481966386637,-43.0394707646667));
#885=CARTESIAN_POINT('Ctrl Pts',(83.8860025465462,10.0382995539242,-29.3801168890351));
#886=CARTESIAN_POINT('Ctrl Pts',(84.3784067878406,8.68125499672101,-15.1784549408338));
#887=CARTESIAN_POINT('Ctrl Pts',(84.7758149482559,7.28885222756861,-0.541639145850874));
#888=CARTESIAN_POINT('Ctrl Pts',(79.8683989681179,14.7448941418881,-42.3899509560285));
#889=CARTESIAN_POINT('Ctrl Pts',(80.4115283808707,13.6907876560528,-28.7212412951748));
#890=CARTESIAN_POINT('Ctrl Pts',(80.8858728459522,12.6004574285852,-14.5093226977426));
#891=CARTESIAN_POINT('Ctrl Pts',(81.2827096614161,11.4815331535843,0.138697663848392));
#892=CARTESIAN_POINT('Ctrl Pts',(78.3296258659571,17.1232940404258,-42.));
#893=CARTESIAN_POINT('Ctrl Pts',(78.9075677141275,16.2300000056401,-28.3256114231615));
#894=CARTESIAN_POINT('Ctrl Pts',(79.4306066478386,15.3011897706907,-14.1075470767578));
#895=CARTESIAN_POINT('Ctrl Pts',(79.8948102266487,14.3438465459953,0.547295277617206));
#896=CARTESIAN_POINT('',(78.9738539130913,16.0738628680671,-25.9354914768656));
#897=CARTESIAN_POINT('',(79.8774285101545,14.3796237307132,-0.000375597780151575));
#898=CARTESIAN_POINT('Origin',(56.5000000000003,3.00000000000003,174.196910729452));
#899=CARTESIAN_POINT('',(97.4058228511667,4.17301841741125,-10.1492471925338));
#900=CARTESIAN_POINT('Ctrl Pts',(79.8774285101545,14.3796237307132,-0.000375597779933411));
#901=CARTESIAN_POINT('Ctrl Pts',(80.9553550386676,12.1652139263272,0.00623067931241055));
#902=CARTESIAN_POINT('Ctrl Pts',(82.4006438284795,10.2182008039141,-0.0699196691463019));
#903=CARTESIAN_POINT('Ctrl Pts',(85.4873211641725,7.31053874459065,-0.714438692223412));
#904=CARTESIAN_POINT('Ctrl Pts',(87.033444769009,6.25682071030072,-1.1927871701914));
#905=CARTESIAN_POINT('Ctrl Pts',(90.1487077566137,4.76707796079973,-2.68538723642563));
#906=CARTESIAN_POINT('Ctrl Pts',(91.6260609513448,4.33471644992553,-3.62613453410751));
#907=CARTESIAN_POINT('Ctrl Pts',(93.7974334000763,3.99591955248131,-5.48339037550544));
#908=CARTESIAN_POINT('Ctrl Pts',(94.5436292589746,3.94736698202345,-6.23046310835127));
#909=CARTESIAN_POINT('Ctrl Pts',(96.0531101560621,3.96024496637631,-8.00355985219072));
#910=CARTESIAN_POINT('Ctrl Pts',(96.7821706524021,4.04565679092448,-9.04728271280286));
#911=CARTESIAN_POINT('Ctrl Pts',(97.4058228511667,4.17301841741125,-10.1492471925338));
#912=CARTESIAN_POINT('',(95.1216457628473,8.1196230026951,-44.2962519732698));
#913=CARTESIAN_POINT('Origin',(56.5000000000003,-16.86774337652,171.900658756182));
#914=CARTESIAN_POINT('Ctrl Pts',(95.1216457628473,8.1196230026951,-44.2962519732697));
#915=CARTESIAN_POINT('Ctrl Pts',(95.1154699255459,8.11885931509237,-44.2896443581266));
#916=CARTESIAN_POINT('Ctrl Pts',(95.1092940731438,8.1180989253701,-44.2830363753184));
#917=CARTESIAN_POINT('Ctrl Pts',(92.98907648287,7.85818410071252,-42.0143444229288));
#918=CARTESIAN_POINT('Ctrl Pts',(90.8601938403438,7.98385694270724,-39.6952957366982));
#919=CARTESIAN_POINT('Ctrl Pts',(86.8074897015582,9.042682467422,-35.1920668040751));
#920=CARTESIAN_POINT('Ctrl Pts',(84.8538729753264,9.96805404274157,-32.9764778288833));
#921=CARTESIAN_POINT('Ctrl Pts',(81.5309224878774,12.5517188451267,-29.0953002248343));
#922=CARTESIAN_POINT('Ctrl Pts',(80.1079208972089,14.1244118155423,-27.3812121427432));
#923=CARTESIAN_POINT('Ctrl Pts',(78.9738539130914,16.073862868067,-25.9354914768655));
#924=CARTESIAN_POINT('Ctrl Pts',(2.11184424402763,3.20762867780012,-1.79645497800701));
#925=CARTESIAN_POINT('Ctrl Pts',(2.93246457686577,4.8994509792809,-16.4345224530806));
#926=CARTESIAN_POINT('Ctrl Pts',(3.85694647148933,6.54088724054298,-30.6366373722164));
#927=CARTESIAN_POINT('Ctrl Pts',(4.8783542371525,8.11962300269511,-44.2962519732697));
#928=CARTESIAN_POINT('Ctrl Pts',(4.24641150809236,3.19398044359497,-1.67836706000543));
#929=CARTESIAN_POINT('Ctrl Pts',(4.98917916949889,4.8850112374692,-16.3084311365356));
#930=CARTESIAN_POINT('Ctrl Pts',(5.83593029004974,6.52536364687965,-30.5031940414102));
#931=CARTESIAN_POINT('Ctrl Pts',(6.77944183226144,8.10340972092819,-44.1559706255841));
#932=CARTESIAN_POINT('Ctrl Pts',(8.51314941880747,3.85522379990667,-1.3627462890802));
#933=CARTESIAN_POINT('Ctrl Pts',(9.1005612037781,5.49418736277142,-15.9826308860706));
#934=CARTESIAN_POINT('Ctrl Pts',(9.79228074839086,7.08544161369113,-30.1680997974793));
#935=CARTESIAN_POINT('Ctrl Pts',(10.5802318711014,8.61735192168465,-43.8123639038411));
#936=CARTESIAN_POINT('Ctrl Pts',(15.2258899351362,7.29301813942017,-0.589095770830897));
#937=CARTESIAN_POINT('Ctrl Pts',(15.6230735615758,8.68384052211639,-15.2091596573096));
#938=CARTESIAN_POINT('Ctrl Pts',(16.1148673692836,10.0394701029559,-29.3948848273198));
#939=CARTESIAN_POINT('Ctrl Pts',(16.6957004190638,11.3479519589485,-43.0394809708405));
#940=CARTESIAN_POINT('Ctrl Pts',(18.718579656665,11.4851585572071,0.0912214136943174));
#941=CARTESIAN_POINT('Ctrl Pts',(19.1151501677222,12.602814607803,-14.540032776587));
#942=CARTESIAN_POINT('Ctrl Pts',(19.5890584227545,13.6919265255247,-28.7360091353901));
#943=CARTESIAN_POINT('Ctrl Pts',(20.1316010318819,14.7448941418882,-42.3899509560285));
#944=CARTESIAN_POINT('Ctrl Pts',(20.1066945727112,14.346949422007,0.49979699526273));
#945=CARTESIAN_POINT('Ctrl Pts',(20.5705234564893,15.3031968098005,-14.1382704798108));
#946=CARTESIAN_POINT('Ctrl Pts',(21.0930567012766,16.2309651313834,-28.3403853989466));
#947=CARTESIAN_POINT('Ctrl Pts',(21.6703741340427,17.1232940404259,-42.));
#948=CARTESIAN_POINT('',(4.87835423715251,8.1196230026951,-44.2962519732697));
#949=CARTESIAN_POINT('',(2.59417714883313,4.17301841741128,-10.1492471925341));
#950=CARTESIAN_POINT('Origin',(43.5,-16.86774337652,171.900658756182));
#951=CARTESIAN_POINT('',(20.1225714898454,14.3796237307133,-0.000375597779825792));
#952=CARTESIAN_POINT('Ctrl Pts',(2.5941771488331,4.17301841741129,-10.1492471925341));
#953=CARTESIAN_POINT('Ctrl Pts',(3.06121289870771,4.07764084502506,-9.32401670646221));
#954=CARTESIAN_POINT('Ctrl Pts',(3.58765355147502,4.00584040976723,-8.53085058205338));
#955=CARTESIAN_POINT('Ctrl Pts',(5.37062995525603,3.90444459362645,-6.2216044040818));
#956=CARTESIAN_POINT('Ctrl Pts',(6.78542439412779,4.00141755899432,-4.86483641296576));
#957=CARTESIAN_POINT('Ctrl Pts',(9.7367110261593,4.74552316372675,-2.74942438295439));
#958=CARTESIAN_POINT('Ctrl Pts',(11.1774058335233,5.3158426213258,-1.98579883111855));
#959=CARTESIAN_POINT('Ctrl Pts',(14.0745710672448,7.00582212758938,-0.832235234561225));
#960=CARTESIAN_POINT('Ctrl Pts',(15.4581670145079,8.10302361850019,-0.482462626006886));
#961=CARTESIAN_POINT('Ctrl Pts',(18.0738157581395,10.8678532314733,-0.0436483367997851));
#962=CARTESIAN_POINT('Ctrl Pts',(19.233183616876,12.5525333180466,0.00507518441718569));
#963=CARTESIAN_POINT('Ctrl Pts',(20.1225714898454,14.3796237307132,-0.000375597779911988));
#964=CARTESIAN_POINT('',(21.0261460869085,16.0738628680671,-25.9354914768653));
#965=CARTESIAN_POINT('Origin',(43.5,3.,174.196910729452));
#966=CARTESIAN_POINT('Ctrl Pts',(21.0261460869085,16.0738628680672,-25.9354914768654));
#967=CARTESIAN_POINT('Ctrl Pts',(19.8920791027909,14.1244118155422,-27.3812121427432));
#968=CARTESIAN_POINT('Ctrl Pts',(18.469077512122,12.5517188451265,-29.0953002248348));
#969=CARTESIAN_POINT('Ctrl Pts',(15.1461270246736,9.96805404274172,-32.976477828883));
#970=CARTESIAN_POINT('Ctrl Pts',(13.192510298442,9.04268246742217,-35.1920668040747));
#971=CARTESIAN_POINT('Ctrl Pts',(9.13980615892742,7.98385694251684,-39.6952957375078));
#972=CARTESIAN_POINT('Ctrl Pts',(7.01092351244068,7.85818410118003,-42.014344427016));
#973=CARTESIAN_POINT('Ctrl Pts',(4.89070592689403,8.11809892536671,-44.2830363752886));
#974=CARTESIAN_POINT('Ctrl Pts',(4.88453007441876,8.11885931509671,-44.2896443581642));
#975=CARTESIAN_POINT('Ctrl Pts',(4.8783542371525,8.11962300269511,-44.2962519732697));
#976=CARTESIAN_POINT('Origin',(49.9999999999999,27.9873663792151,-42.));
#977=CARTESIAN_POINT('',(49.9999999999999,8.1196230026951,-44.2962519732698));
#978=CARTESIAN_POINT('',(36.31449226353,27.9873663792151,-22.));
#979=CARTESIAN_POINT('Ctrl Pts',(21.0261460869085,16.0738628680672,-25.9354914768654));
#980=CARTESIAN_POINT('Ctrl Pts',(21.2855024666443,16.5196941765664,-25.6048612025849));
#981=CARTESIAN_POINT('Ctrl Pts',(21.5694901831972,16.9769970338286,-25.2948241313323));
#982=CARTESIAN_POINT('Ctrl Pts',(22.6322459724426,18.5690333688542,-24.3060466486386));
#983=CARTESIAN_POINT('Ctrl Pts',(23.5327705729324,19.7081362704124,-23.7626907244233));
#984=CARTESIAN_POINT('Ctrl Pts',(25.5942928861012,21.9251917545041,-22.8958865573422));
#985=CARTESIAN_POINT('Ctrl Pts',(26.9003843431765,23.0900379273542,-22.5801543123269));
#986=CARTESIAN_POINT('Ctrl Pts',(29.787716086995,25.1614560636119,-22.1725326211619));
#987=CARTESIAN_POINT('Ctrl Pts',(31.3687084155876,26.068015518045,-22.0788252953677));
#988=CARTESIAN_POINT('Ctrl Pts',(34.0969761241123,27.2680211243563,-22.0074329325807));
#989=CARTESIAN_POINT('Ctrl Pts',(35.1967963282757,27.6659554442688,-22.));
#990=CARTESIAN_POINT('Ctrl Pts',(36.31449226353,27.9873663792151,-22.));
#991=CARTESIAN_POINT('',(63.6855077364689,27.9873663792151,-22.));
#992=CARTESIAN_POINT('',(49.9999999999999,27.9873663792151,-22.));
#993=CARTESIAN_POINT('Ctrl Pts',(63.6855077364689,27.9873663792151,-22.));
#994=CARTESIAN_POINT('Ctrl Pts',(64.8032036717236,27.6659554442687,-22.));
#995=CARTESIAN_POINT('Ctrl Pts',(65.9030238758874,27.2680211243561,-22.0074329325808));
#996=CARTESIAN_POINT('Ctrl Pts',(68.6312915844125,26.0680155180447,-22.0788252953677));
#997=CARTESIAN_POINT('Ctrl Pts',(70.212283913005,25.1614560636115,-22.172532621162));
#998=CARTESIAN_POINT('Ctrl Pts',(73.0996156568235,23.0900379273539,-22.580154312327));
#999=CARTESIAN_POINT('Ctrl Pts',(74.4057071138988,21.9251917545038,-22.8958865573423));
#1000=CARTESIAN_POINT('Ctrl Pts',(76.4672294270676,19.7081362704122,-23.7626907244234));
#1001=CARTESIAN_POINT('Ctrl Pts',(77.3677540275573,18.569033368854,-24.3060466486387));
#1002=CARTESIAN_POINT('Ctrl Pts',(78.4305098168027,16.9769970338284,-25.2948241313324));
#1003=CARTESIAN_POINT('Ctrl Pts',(78.7144975333556,16.5196941765663,-25.604861202585));
#1004=CARTESIAN_POINT('Ctrl Pts',(78.9738539130914,16.073862868067,-25.9354914768655));
#1005=CARTESIAN_POINT('Origin',(56.5000000000003,3.00000000000003,-6.91925441518257E-15));
#1006=CARTESIAN_POINT('',(80.,14.1242977306432,-9.79717439317883E-15));
#1007=CARTESIAN_POINT('Ctrl Pts',(80.,14.1242977306432,-1.55431223447522E-14));
#1008=CARTESIAN_POINT('Ctrl Pts',(79.9596004743417,14.209641441856,-1.55431223447522E-14));
#1009=CARTESIAN_POINT('Ctrl Pts',(79.9187415749368,14.2947533306597,-0.000122402829938092));
#1010=CARTESIAN_POINT('Ctrl Pts',(79.8774285101545,14.3796237307132,-0.000375597779933618));
#1011=CARTESIAN_POINT('',(56.4999999999999,29.,-22.));
#1012=CARTESIAN_POINT('Origin',(56.5000000000003,3.00000000000003,-22.));
#1013=CARTESIAN_POINT('',(56.4999999999999,29.,-6.91925441518253E-15));
#1014=CARTESIAN_POINT('',(56.4999999999999,29.,-6.91925441518253E-15));
#1015=CARTESIAN_POINT('Origin',(56.5000000000003,3.00000000000003,-6.91925441518257E-15));
#1016=CARTESIAN_POINT('Origin',(56.5000000000003,3.00000000000003,-6.91925441518257E-15));
#1017=CARTESIAN_POINT('',(82.4999936789774,3.01812989597246,-0.156864370642622));
#1018=CARTESIAN_POINT('Ctrl Pts',(82.4999936789774,3.01812989597246,-0.156864370642623));
#1019=CARTESIAN_POINT('Ctrl Pts',(82.4987543329763,4.79546983460856,-0.156708228124287));
#1020=CARTESIAN_POINT('Ctrl Pts',(82.3122924919042,6.62452355423738,-0.130336015636853));
#1021=CARTESIAN_POINT('Ctrl Pts',(81.5393607577007,10.2432913702774,-0.0555362282362751));
#1022=CARTESIAN_POINT('Ctrl Pts',(80.9517249945183,12.0329125429647,-0.00781984250096538));
#1023=CARTESIAN_POINT('Ctrl Pts',(80.1221866494125,13.8633816144111,-0.000284805038889646));
#1024=CARTESIAN_POINT('Ctrl Pts',(80.0616273221821,13.9941104499405,-1.62115007679754E-14));
#1025=CARTESIAN_POINT('Ctrl Pts',(80.,14.1242977306432,-1.6214785590607E-14));
#1026=CARTESIAN_POINT('',(82.4999999999999,3.,-1.01033360929656E-14));
#1027=CARTESIAN_POINT('Origin',(56.5000000000003,3.00000000000003,-6.91925441518257E-15));
#1028=CARTESIAN_POINT('',(82.4999999999999,3.,-0.15686516701557));
#1029=CARTESIAN_POINT('',(82.4999999999999,3.,-1.01033360929656E-14));
#1030=CARTESIAN_POINT('Ctrl Pts',(82.4999936789774,3.01812989597246,-0.156864370642624));
#1031=CARTESIAN_POINT('Ctrl Pts',(82.4999978935459,3.01208580434597,-0.156864901626972));
#1032=CARTESIAN_POINT('Ctrl Pts',(82.4999999999999,3.00604250453098,-0.156865167015576));
#1033=CARTESIAN_POINT('Ctrl Pts',(82.4999999999999,3.00000000000003,-0.156865167015576));
#1034=CARTESIAN_POINT('Origin',(49.9999999999999,14.5,-22.));
#1035=CARTESIAN_POINT('',(43.4999999999999,29.,-22.));
#1036=CARTESIAN_POINT('Origin',(43.4999999999999,3.,-22.));
#1037=CARTESIAN_POINT('',(56.4999999999999,29.,-22.));
#1038=CARTESIAN_POINT('Origin',(43.4999999999999,3.,-5.32721357629098E-15));
#1039=CARTESIAN_POINT('',(20.,14.1242977306436,-2.44929359829471E-15));
#1040=CARTESIAN_POINT('Ctrl Pts',(20.1225714898454,14.3796237307132,-0.000375597779915831));
#1041=CARTESIAN_POINT('Ctrl Pts',(20.0812583641285,14.2947532054805,-0.00012240245647159));
#1042=CARTESIAN_POINT('Ctrl Pts',(20.0403996032507,14.2096416057698,-2.22493130622178E-15));
#1043=CARTESIAN_POINT('Ctrl Pts',(20.,14.1242977306436,-2.22044604925031E-15));
#1044=CARTESIAN_POINT('',(43.4999999999999,29.,-5.32721357629098E-15));
#1045=CARTESIAN_POINT('Origin',(43.4999999999999,3.,-5.32721357629098E-15));
#1046=CARTESIAN_POINT('',(43.4999999999999,29.,-5.32721357629098E-15));
#1047=CARTESIAN_POINT('Origin',(43.4999999999999,3.,-5.32721357629098E-15));
#1048=CARTESIAN_POINT('',(17.5000063210224,3.01812989597246,-0.156864370642624));
#1049=CARTESIAN_POINT('Ctrl Pts',(20.,14.1242977306436,-8.61940727125976E-16));
#1050=CARTESIAN_POINT('Ctrl Pts',(19.9383725594547,13.9941101998995,-8.54057152810139E-16));
#1051=CARTESIAN_POINT('Ctrl Pts',(19.8778133505874,13.8633816144113,-0.000284805038873275));
#1052=CARTESIAN_POINT('Ctrl Pts',(19.0482750054816,12.0329125429648,-0.00781984250095468));
#1053=CARTESIAN_POINT('Ctrl Pts',(18.4606392422992,10.2432913702775,-0.0555362282362687));
#1054=CARTESIAN_POINT('Ctrl Pts',(17.6877075080957,6.62452355423741,-0.130336015636852));
#1055=CARTESIAN_POINT('Ctrl Pts',(17.5012456670235,4.79546983460857,-0.156708228124288));
#1056=CARTESIAN_POINT('Ctrl Pts',(17.5000063210224,3.01812989597246,-0.156864370642625));
#1057=CARTESIAN_POINT('',(17.4999999999999,3.,-0.156865167015576));
#1058=CARTESIAN_POINT('Ctrl Pts',(17.4999999999999,3.,-0.156865167015577));
#1059=CARTESIAN_POINT('Ctrl Pts',(17.4999999999999,3.00604250453096,-0.156865167015577));
#1060=CARTESIAN_POINT('Ctrl Pts',(17.500002106454,3.01208580434596,-0.156864901626972));
#1061=CARTESIAN_POINT('Ctrl Pts',(17.5000063210224,3.01812989597246,-0.156864370642625));
#1062=CARTESIAN_POINT('',(17.4999999999999,3.,-2.14313189850786E-15));
#1063=CARTESIAN_POINT('',(17.4999999999999,3.,-2.14313189850786E-15));
#1064=CARTESIAN_POINT('Origin',(43.4999999999999,3.,-5.32721357629098E-15));
#1065=CARTESIAN_POINT('Origin',(17.4999999999999,0.,-2.14313189850786E-15));
#1066=CARTESIAN_POINT('',(17.4999999999999,0.,-0.156865167015576));
#1067=CARTESIAN_POINT('',(17.4999999999999,0.,-0.156865167015576));
#1068=CARTESIAN_POINT('',(17.4999999999999,0.,-2.14313189850786E-15));
#1069=CARTESIAN_POINT('',(17.4999999999999,0.,-2.14313189850786E-15));
#1070=CARTESIAN_POINT('',(17.4999999999999,3.,-2.14313189850786E-15));
#1071=CARTESIAN_POINT('Origin',(82.4999999999999,3.,-1.01033360929656E-14));
#1072=CARTESIAN_POINT('',(82.4999999999999,1.63714265763111E-16,-0.156865167015572));
#1073=CARTESIAN_POINT('',(82.4999999999999,0.,-0.156865167015572));
#1074=CARTESIAN_POINT('',(82.4999999999999,1.63714265763111E-16,-1.01033360929657E-14));
#1075=CARTESIAN_POINT('',(82.4999999999999,0.,-1.01033360929657E-14));
#1076=CARTESIAN_POINT('',(82.4999999999999,1.63714265763111E-16,-1.01033360929657E-14));
#1077=CARTESIAN_POINT('Origin',(43.4999999999999,29.,-5.32721357629098E-15));
#1078=CARTESIAN_POINT('',(56.4999999999999,29.,-6.91925441518253E-15));
#1079=CARTESIAN_POINT('Origin',(49.9999999999999,21.8965054379098,-163.497266468893));
#1080=CARTESIAN_POINT('',(100.,5.31153778237694,-20.));
#1081=CARTESIAN_POINT('Origin',(80.,5.31153778237695,-20.));
#1082=CARTESIAN_POINT('',(100.,21.1609034816068,-157.132655326378));
#1083=CARTESIAN_POINT('',(100.,17.1723790784324,-122.62294985167));
#1084=CARTESIAN_POINT('',(75.1059556253303,21.1609034816068,-157.132655326378));
#1085=CARTESIAN_POINT('',(49.9999999999999,21.1609034816068,-157.132655326378));
#1086=CARTESIAN_POINT('',(75.4504794461935,20.801104706124,-154.019586803546));
#1087=CARTESIAN_POINT('Origin',(56.5,3.,0.));
#1088=CARTESIAN_POINT('',(56.5,20.2396131337633,-149.161422021282));
#1089=CARTESIAN_POINT('Ctrl Pts',(56.5,20.2396131337633,-149.161422021282));
#1090=CARTESIAN_POINT('Ctrl Pts',(57.9672594653019,20.2396131337633,-149.161422021282));
#1091=CARTESIAN_POINT('Ctrl Pts',(62.3595078374111,20.2615851323526,-149.351529219675));
#1092=CARTESIAN_POINT('Ctrl Pts',(68.1884859709328,20.3817780175164,-150.391467965908));
#1093=CARTESIAN_POINT('Ctrl Pts',(72.9419875008403,20.6128105233184,-152.390418686623));
#1094=CARTESIAN_POINT('Ctrl Pts',(74.8378602375315,20.7501758165016,-153.578937379507));
#1095=CARTESIAN_POINT('Ctrl Pts',(75.4437547386106,20.8003856438076,-154.013365297482));
#1096=CARTESIAN_POINT('Ctrl Pts',(75.4511452890187,20.8009990816516,-154.018672914331));
#1097=CARTESIAN_POINT('',(43.4999999999999,20.2396131337633,-149.161422021282));
#1098=CARTESIAN_POINT('',(43.4999999999999,20.2396131337633,-149.161422021282));
#1099=CARTESIAN_POINT('',(24.5495205537822,20.801104706126,-154.019586803563));
#1100=CARTESIAN_POINT('Ctrl Pts',(24.5499068246127,20.801082816806,-154.01939741172));
#1101=CARTESIAN_POINT('Ctrl Pts',(24.5569040615231,20.8005016196105,-154.014368748984));
#1102=CARTESIAN_POINT('Ctrl Pts',(25.1594182033193,20.7505331017343,-153.582028700232));
#1103=CARTESIAN_POINT('Ctrl Pts',(27.0414131955082,20.6140932933565,-152.401517532143));
#1104=CARTESIAN_POINT('Ctrl Pts',(29.4429893715796,20.4967389862362,-151.386138869376));
#1105=CARTESIAN_POINT('Ctrl Pts',(32.2348582150907,20.3952127816805,-150.507708888004));
#1106=CARTESIAN_POINT('Ctrl Pts',(34.3827587567728,20.335982892441,-149.995237150002));
#1107=CARTESIAN_POINT('Ctrl Pts',(37.6421960667403,20.2743431703296,-149.461914938431));
#1108=CARTESIAN_POINT('Ctrl Pts',(40.2003346244575,20.2487663928273,-149.24061829602));
#1109=CARTESIAN_POINT('Ctrl Pts',(42.2172204009245,20.2411991047502,-149.175144236848));
#1110=CARTESIAN_POINT('Ctrl Pts',(42.8586399485782,20.2400113468673,-149.164867460133));
#1111=CARTESIAN_POINT('Ctrl Pts',(43.2251719284767,20.239669567032,-149.161910295964));
#1112=CARTESIAN_POINT('Ctrl Pts',(43.4083955164353,20.2396131337633,-149.161422021282));
#1113=CARTESIAN_POINT('Ctrl Pts',(43.4999999999999,20.2396131337633,-149.161422021282));
#1114=CARTESIAN_POINT('',(24.8940443746696,21.1609034816068,-157.132655326378));
#1115=CARTESIAN_POINT('Origin',(43.5,3.,0.));
#1116=CARTESIAN_POINT('',(-7.20358513235273E-14,21.1609034816068,-157.132655326378));
#1117=CARTESIAN_POINT('',(49.9999999999999,21.1609034816068,-157.132655326378));
#1118=CARTESIAN_POINT('',(-1.32571777321183E-14,5.31153778237694,-20.));
#1119=CARTESIAN_POINT('',(-2.22044604925031E-14,7.72412635947746,-40.8743166172232));
#1120=CARTESIAN_POINT('Origin',(20.,5.31153778237694,-20.));
#1121=CARTESIAN_POINT('Origin',(80.,0.,-20.));
#1122=CARTESIAN_POINT('',(100.,0.,-20.));
#1123=CARTESIAN_POINT('Origin',(80.,0.,-20.));
#1124=CARTESIAN_POINT('',(100.,0.,-20.));
#1125=CARTESIAN_POINT('Origin',(49.9999999999999,1.29316010508675,-159.428907299647));
#1126=CARTESIAN_POINT('',(75.380793812761,20.875,-163.497266468893));
#1127=CARTESIAN_POINT('Ctrl Pts',(75.1059556253303,21.1609034816068,-157.132655326378));
#1128=CARTESIAN_POINT('Ctrl Pts',(75.019710942688,21.249261681395,-157.897152454323));
#1129=CARTESIAN_POINT('Ctrl Pts',(74.975938227047,21.2931601050868,-158.665447688268));
#1130=CARTESIAN_POINT('Ctrl Pts',(74.975938227047,21.2931601050868,-159.428907299647));
#1131=CARTESIAN_POINT('Ctrl Pts',(74.975938227047,21.2931601050868,-160.751968153274));
#1132=CARTESIAN_POINT('Ctrl Pts',(75.110156765306,21.1602750204074,-162.089958915255));
#1133=CARTESIAN_POINT('Ctrl Pts',(75.3679656677256,20.8885425767082,-163.431669782975));
#1134=CARTESIAN_POINT('Ctrl Pts',(75.3743443641513,20.8818123473794,-163.464477255812));
#1135=CARTESIAN_POINT('Ctrl Pts',(75.380793812761,20.875,-163.497266468893));
#1136=CARTESIAN_POINT('',(100.,20.875,-163.497266468893));
#1137=CARTESIAN_POINT('Origin',(100.,1.29316010508675,-159.428907299647));
#1138=CARTESIAN_POINT('',(49.9999999999999,20.875,-163.497266468893));
#1139=CARTESIAN_POINT('Origin',(100.,0.,-1.22464679914735E-14));
#1140=CARTESIAN_POINT('',(99.9999999999999,0.,-190.));
#1141=CARTESIAN_POINT('',(100.,0.,-1.22464679914735E-14));
#1142=CARTESIAN_POINT('',(99.9999999999999,7.46894801928435,-190.));
#1143=CARTESIAN_POINT('',(99.9999999999999,0.,-190.));
#1144=CARTESIAN_POINT('',(100.,47.2062365744356,-111.44243724097));
#1145=CARTESIAN_POINT('Origin',(49.9999999999999,1.29316010508675,-159.428907299647));
#1146=CARTESIAN_POINT('',(-7.105427357601E-14,20.875,-163.497266468893));
#1147=CARTESIAN_POINT('Origin',(-6.21724893790088E-14,1.29316010508675,
-159.428907299647));
#1148=CARTESIAN_POINT('',(24.6192061872388,20.875,-163.497266468893));
#1149=CARTESIAN_POINT('Ctrl Pts',(24.6192061872448,20.8750000000064,-163.497266468862));
#1150=CARTESIAN_POINT('Ctrl Pts',(24.6256556358525,20.8818123473836,-163.464477255791));
#1151=CARTESIAN_POINT('Ctrl Pts',(24.6320343322762,20.8885425767103,-163.431669782965));
#1152=CARTESIAN_POINT('Ctrl Pts',(24.8898432346939,21.1602750204074,-162.089958915255));
#1153=CARTESIAN_POINT('Ctrl Pts',(25.0240617729528,21.2931601050868,-160.751968153274));
#1154=CARTESIAN_POINT('Ctrl Pts',(25.0240617729528,21.2931601050868,-158.665447688268));
#1155=CARTESIAN_POINT('Ctrl Pts',(24.9802890573118,21.249261681395,-157.897152454323));
#1156=CARTESIAN_POINT('Ctrl Pts',(24.8940443746696,21.1609034816068,-157.132655326378));
#1157=CARTESIAN_POINT('',(49.9999999999999,20.875,-163.497266468893));
#1158=CARTESIAN_POINT('Origin',(49.9999999999999,11.9375,-181.166016468893));
#1159=CARTESIAN_POINT('',(97.9428788503998,3.,-198.834766468893));
#1160=CARTESIAN_POINT('Origin',(79.9999999999999,7.46894801928435,-190.));
#1161=CARTESIAN_POINT('',(82.4999999999999,3.,-198.834766468893));
#1162=CARTESIAN_POINT('',(49.9999999999999,3.,-198.834766468893));
#1163=CARTESIAN_POINT('Origin',(56.4999999999999,3.,-198.834766468893));
#1164=CARTESIAN_POINT('Origin',(56.4999999999999,3.,-210.));
#1165=CARTESIAN_POINT('',(82.4999999999999,3.,-209.843134832984));
#1166=CARTESIAN_POINT('',(82.4999999999999,3.,-134.248633234446));
#1167=CARTESIAN_POINT('',(79.9999999999999,14.1242977306434,-210.));
#1168=CARTESIAN_POINT('Ctrl Pts',(79.9999999999999,14.1242977306434,-210.));
#1169=CARTESIAN_POINT('Ctrl Pts',(80.061627322182,13.9941104499407,-210.));
#1170=CARTESIAN_POINT('Ctrl Pts',(80.1221866494124,13.8633816144112,-209.999715194961));
#1171=CARTESIAN_POINT('Ctrl Pts',(80.9517249945182,12.0329125429647,-209.992180157499));
#1172=CARTESIAN_POINT('Ctrl Pts',(81.5393607577006,10.2432913702775,-209.944463771764));
#1173=CARTESIAN_POINT('Ctrl Pts',(82.3136044499761,6.61838113384434,-209.869537020777));
#1174=CARTESIAN_POINT('Ctrl Pts',(82.4999999999999,4.78303005153089,-209.843134832984));
#1175=CARTESIAN_POINT('Ctrl Pts',(82.4999999999999,3.,-209.843134832984));
#1176=CARTESIAN_POINT('',(56.4999999999999,29.,-210.));
#1177=CARTESIAN_POINT('Origin',(56.4999999999999,3.,-210.));
#1178=CARTESIAN_POINT('',(56.5,29.,-163.497266468893));
#1179=CARTESIAN_POINT('',(56.5,29.,0.));
#1180=CARTESIAN_POINT('',(70.4018684729538,24.9713006661119,-163.497266468893));
#1181=CARTESIAN_POINT('Origin',(56.4999999999999,3.,-163.497266468893));
#1182=CARTESIAN_POINT('Ctrl Pts',(75.450479446218,20.8011047061261,-154.019586803563));
#1183=CARTESIAN_POINT('Ctrl Pts',(75.2008442573762,21.0668582418362,-156.318952513579));
#1184=CARTESIAN_POINT('Ctrl Pts',(74.6820253106686,21.6110884286298,-158.345724516088));
#1185=CARTESIAN_POINT('Ctrl Pts',(73.5140784352125,22.6691988307877,-160.922159163798));
#1186=CARTESIAN_POINT('Ctrl Pts',(73.0080044030331,23.0985483199835,-161.710270531224));
#1187=CARTESIAN_POINT('Ctrl Pts',(72.1914279396452,23.7341060223338,-162.604484087812));
#1188=CARTESIAN_POINT('Ctrl Pts',(71.8813385336769,23.9662382276527,-162.881602508757));
#1189=CARTESIAN_POINT('Ctrl Pts',(71.3730715823745,24.3269052377269,-163.206784778765));
#1190=CARTESIAN_POINT('Ctrl Pts',(71.1891743428605,24.4541411320211,-163.303247346801));
#1191=CARTESIAN_POINT('Ctrl Pts',(70.7642441984312,24.7396393024872,-163.463124974304));
#1192=CARTESIAN_POINT('Ctrl Pts',(70.5673754495977,24.8664041052869,-163.494813168272));
#1193=CARTESIAN_POINT('Ctrl Pts',(70.4135803898228,24.9638869224948,-163.49721963916));
#1194=CARTESIAN_POINT('Ctrl Pts',(70.4077241629549,24.9675956040653,-163.497266468893));
#1195=CARTESIAN_POINT('Ctrl Pts',(70.4018684729538,24.9713006661119,-163.497266468893));
#1196=CARTESIAN_POINT('Origin',(50.,3.,-105.));
#1197=CARTESIAN_POINT('Origin',(79.9999999999999,3.,-190.));
#1198=CARTESIAN_POINT('Origin',(49.9999999999999,11.9375,-181.166016468893));
#1199=CARTESIAN_POINT('',(17.4999999999999,3.,-198.834766468893));
#1200=CARTESIAN_POINT('Origin',(43.4999999999999,3.,-198.834766468893));
#1201=CARTESIAN_POINT('',(2.05712114960011,3.,-198.834766468893));
#1202=CARTESIAN_POINT('',(49.9999999999999,3.,-198.834766468893));
#1203=CARTESIAN_POINT('',(-7.99360577730113E-14,7.46894801928436,-190.));
#1204=CARTESIAN_POINT('Origin',(19.9999999999999,7.46894801928436,-190.));
#1205=CARTESIAN_POINT('',(-8.43769498715119E-14,4.91458748885286,-195.049774279391));
#1206=CARTESIAN_POINT('Origin',(50.,3.,-105.));
#1207=CARTESIAN_POINT('',(17.4999999999999,3.,-209.843134832984));
#1208=CARTESIAN_POINT('',(17.4999999999999,3.,-157.5));
#1209=CARTESIAN_POINT('Origin',(19.9999999999999,3.,-190.));
#1210=CARTESIAN_POINT('Ctrl Pts',(56.5,29.,-163.497266468893));
#1211=CARTESIAN_POINT('Ctrl Pts',(57.5280642353835,29.,-163.497266468893));
#1212=CARTESIAN_POINT('Ctrl Pts',(60.6127775895893,28.8193297449332,-163.497266468893));
#1213=CARTESIAN_POINT('Ctrl Pts',(64.3964141660473,27.8763911868008,-163.497266468893));
#1214=CARTESIAN_POINT('Ctrl Pts',(66.968493993744,26.8171680174788,-163.497266468893));
#1215=CARTESIAN_POINT('Ctrl Pts',(68.1999092060012,26.2255634210279,-163.497266468893));
#1216=CARTESIAN_POINT('Ctrl Pts',(69.2304536821932,25.6811224891753,-163.497266468893));
#1217=CARTESIAN_POINT('Ctrl Pts',(69.9647758047453,25.244681303237,-163.497266468893));
#1218=CARTESIAN_POINT('Ctrl Pts',(70.3381352322794,25.0117919783683,-163.497266468893));
#1219=CARTESIAN_POINT('Ctrl Pts',(70.4018684729538,24.9713006661119,-163.497266468893));
#1220=CARTESIAN_POINT('Ctrl Pts',(70.4018711825581,24.9713015883621,-163.497269263083));
#1221=CARTESIAN_POINT('Ctrl Pts',(56.5,26.2535664095869,-161.66312504447));
#1222=CARTESIAN_POINT('Ctrl Pts',(57.5895179335031,26.2535664095869,-161.66312504447));
#1223=CARTESIAN_POINT('Ctrl Pts',(60.8570498769838,26.1320080577128,-161.664548309895));
#1224=CARTESIAN_POINT('Ctrl Pts',(64.9518431631081,25.5061051609987,-161.680874317587));
#1225=CARTESIAN_POINT('Ctrl Pts',(67.9033522355162,24.8339499171684,-161.867563821398));
#1226=CARTESIAN_POINT('Ctrl Pts',(69.3695014572692,24.4722227255967,-162.060411283037));
#1227=CARTESIAN_POINT('Ctrl Pts',(70.6327099298729,24.1494631272514,-162.313067934734));
#1228=CARTESIAN_POINT('Ctrl Pts',(71.5818473615597,23.910727386076,-162.675755858599));
#1229=CARTESIAN_POINT('Ctrl Pts',(72.0946226289209,23.8138752928424,-163.126153913727));
#1230=CARTESIAN_POINT('Ctrl Pts',(72.1954419579201,23.8163866661418,-163.373267629644));
#1231=CARTESIAN_POINT('Ctrl Pts',(72.2045098434394,23.8307180662366,-163.497266468893));
#1232=CARTESIAN_POINT('Ctrl Pts',(56.5,22.2642985087711,-157.240325306734));
#1233=CARTESIAN_POINT('Ctrl Pts',(57.7294151730845,22.2642985087711,-157.240325306734));
#1234=CARTESIAN_POINT('Ctrl Pts',(61.4128386895209,22.2401466413701,-157.289899889991));
#1235=CARTESIAN_POINT('Ctrl Pts',(66.1672725936274,22.1188200982204,-157.581081736617));
#1236=CARTESIAN_POINT('Ctrl Pts',(69.8370605531578,22.0407252807296,-158.36057418431));
#1237=CARTESIAN_POINT('Ctrl Pts',(71.7298308843501,22.0266163376383,-159.040565622348));
#1238=CARTESIAN_POINT('Ctrl Pts',(73.4070114071027,22.03856010887,-159.874651267353));
#1239=CARTESIAN_POINT('Ctrl Pts',(74.7288016445198,22.1009417685206,-160.990882075382));
#1240=CARTESIAN_POINT('Ctrl Pts',(75.4838900991666,22.2200675542388,-162.3282823012));
#1241=CARTESIAN_POINT('Ctrl Pts',(75.6513186391832,22.2976907174181,-163.05257419429));
#1242=CARTESIAN_POINT('Ctrl Pts',(75.677866086728,22.3396478077947,-163.415597379084));
#1243=CARTESIAN_POINT('Ctrl Pts',(56.5,20.5239956640162,-151.621970426945));
#1244=CARTESIAN_POINT('Ctrl Pts',(57.8959306374245,20.5239956640162,-151.621970426945));
#1245=CARTESIAN_POINT('Ctrl Pts',(62.0755726784188,20.5408851183902,-151.768886992802));
#1246=CARTESIAN_POINT('Ctrl Pts',(67.582232234954,20.6346325244757,-152.579086435183));
#1247=CARTESIAN_POINT('Ctrl Pts',(72.0106073482667,20.8227138173371,-154.206552207035));
#1248=CARTESIAN_POINT('Ctrl Pts',(74.3406493951151,20.9736744310995,-155.512190564446));
#1249=CARTESIAN_POINT('Ctrl Pts',(76.4352724855292,21.1520695168582,-157.055579839843));
#1250=CARTESIAN_POINT('Ctrl Pts',(78.1255010012953,21.3805947666465,-159.033414800759));
#1251=CARTESIAN_POINT('Ctrl Pts',(79.1208439415732,21.6473365425818,-161.341181614496));
#1252=CARTESIAN_POINT('Ctrl Pts',(79.3560173249831,21.7904101928645,-162.579304012435));
#1253=CARTESIAN_POINT('Ctrl Pts',(79.401299472527,21.8619766646973,-163.198514932355));
#1254=CARTESIAN_POINT('Ctrl Pts',(56.5,20.2396131337633,-149.161422021282));
#1255=CARTESIAN_POINT('Ctrl Pts',(57.9672594653019,20.2396131337633,-149.161422021282));
#1256=CARTESIAN_POINT('Ctrl Pts',(62.3595078374111,20.2615851323526,-149.351529219675));
#1257=CARTESIAN_POINT('Ctrl Pts',(68.1884859709328,20.3817780175164,-150.391467965908));
#1258=CARTESIAN_POINT('Ctrl Pts',(72.9419875008403,20.6128105233184,-152.390418686623));
#1259=CARTESIAN_POINT('Ctrl Pts',(75.4594490106303,20.7952129766461,-153.96861009425));
#1260=CARTESIAN_POINT('Ctrl Pts',(77.7329956672534,21.0091962526703,-155.820046637105));
#1261=CARTESIAN_POINT('Ctrl Pts',(79.5811410014278,21.2808433732029,-158.17040510932));
#1262=CARTESIAN_POINT('Ctrl Pts',(80.6794612514738,21.5958282851682,-160.895732935381));
#1263=CARTESIAN_POINT('Ctrl Pts',(80.9436668224823,21.7644127386005,-162.354367570018));
#1264=CARTESIAN_POINT('Ctrl Pts',(80.9969773883936,21.8486677777412,-163.083363131182));
#1265=CARTESIAN_POINT('Origin',(56.5,40.1073565102833,-146.865170048012));
#1266=CARTESIAN_POINT('Origin',(43.4999999999999,40.1073565102833,-146.865170048012));
#1267=CARTESIAN_POINT('',(43.4999999999999,29.,-163.497266468893));
#1268=CARTESIAN_POINT('Origin',(43.4999999999999,40.1073565102833,-146.865170048012));
#1269=CARTESIAN_POINT('',(43.4999999999999,29.,-163.497266468893));
#1270=CARTESIAN_POINT('Ctrl Pts',(29.5981288174418,24.9713015883621,-163.497269263083));
#1271=CARTESIAN_POINT('Ctrl Pts',(29.598131527046,24.9713006661119,-163.497266468893));
#1272=CARTESIAN_POINT('Ctrl Pts',(29.6933941351441,25.032277752447,-163.497266468893));
#1273=CARTESIAN_POINT('Ctrl Pts',(30.0188648873979,25.2327581050713,-163.497266468893));
#1274=CARTESIAN_POINT('Ctrl Pts',(30.3997689099649,25.4614583957898,-163.497266468893));
#1275=CARTESIAN_POINT('Ctrl Pts',(31.0297510075658,25.819085593253,-163.497266468893));
#1276=CARTESIAN_POINT('Ctrl Pts',(31.8013616571212,26.2257091172899,-163.497266468893));
#1277=CARTESIAN_POINT('Ctrl Pts',(33.0216719852477,26.814072129504,-163.497266468893));
#1278=CARTESIAN_POINT('Ctrl Pts',(34.3248150917226,27.3473078213058,-163.497266468893));
#1279=CARTESIAN_POINT('Ctrl Pts',(35.9645349035599,27.8963712095798,-163.497266468893));
#1280=CARTESIAN_POINT('Ctrl Pts',(37.2960019147331,28.2704397567886,-163.497266468893));
#1281=CARTESIAN_POINT('Ctrl Pts',(39.4313714045533,28.7125835009065,-163.497266468893));
#1282=CARTESIAN_POINT('Ctrl Pts',(41.1921464549844,28.9242828254917,-163.497266468893));
#1283=CARTESIAN_POINT('Ctrl Pts',(42.601580257033,28.9866691567494,-163.497266468893));
#1284=CARTESIAN_POINT('Ctrl Pts',(43.0506577261076,28.9966773298662,-163.497266468893));
#1285=CARTESIAN_POINT('Ctrl Pts',(43.3074369977598,28.9995236176512,-163.497266468893));
#1286=CARTESIAN_POINT('Ctrl Pts',(43.4358155148556,29.,-163.497266468893));
#1287=CARTESIAN_POINT('Ctrl Pts',(43.4999999999999,29.,-163.497266468893));
#1288=CARTESIAN_POINT('Ctrl Pts',(27.7954901565604,23.8307180662366,-163.497266468893));
#1289=CARTESIAN_POINT('Ctrl Pts',(27.8090426467038,23.8092989428796,-163.311942884565));
#1290=CARTESIAN_POINT('Ctrl Pts',(27.9511345199702,23.8200111095771,-163.065681405234));
#1291=CARTESIAN_POINT('Ctrl Pts',(28.3907149410572,23.9107051003873,-162.739521137439));
#1292=CARTESIAN_POINT('Ctrl Pts',(28.8896235348304,24.0291897012809,-162.494450107289));
#1293=CARTESIAN_POINT('Ctrl Pts',(29.6862928699717,24.2311376046277,-162.250101058216));
#1294=CARTESIAN_POINT('Ctrl Pts',(30.631752675919,24.4720819196945,-162.060877782458));
#1295=CARTESIAN_POINT('Ctrl Pts',(32.0856048066854,24.8323240885294,-161.868863340677));
#1296=CARTESIAN_POINT('Ctrl Pts',(33.5797340030272,25.1704797010808,-161.77323984638));
#1297=CARTESIAN_POINT('Ctrl Pts',(35.4105076539994,25.5242763351804,-161.708925805631));
#1298=CARTESIAN_POINT('Ctrl Pts',(36.8721484149092,25.7692570243579,-161.681417584963));
#1299=CARTESIAN_POINT('Ctrl Pts',(39.1777621833138,26.0612282922845,-161.664833354009));
#1300=CARTESIAN_POINT('Ctrl Pts',(41.0528929660108,26.2028261091908,-161.66363932293));
#1301=CARTESIAN_POINT('Ctrl Pts',(42.5477494174263,26.244633846622,-161.663159129013));
#1302=CARTESIAN_POINT('Ctrl Pts',(43.0237799188945,26.2513377686918,-161.663142465539));
#1303=CARTESIAN_POINT('Ctrl Pts',(43.2959232939071,26.2532439799675,-161.663129902888));
#1304=CARTESIAN_POINT('Ctrl Pts',(43.4319788149313,26.2535664095869,-161.66312504447));
#1305=CARTESIAN_POINT('Ctrl Pts',(43.4999999999999,26.2535664095869,-161.66312504447));
#1306=CARTESIAN_POINT('Ctrl Pts',(24.3221360378176,22.3396412348821,-163.415598294127));
#1307=CARTESIAN_POINT('Ctrl Pts',(24.3618127651445,22.2769338867841,-162.873038716895));
#1308=CARTESIAN_POINT('Ctrl Pts',(24.5867014094995,22.2026275038788,-162.150787206495));
#1309=CARTESIAN_POINT('Ctrl Pts',(25.2244924214859,22.1206357011966,-161.177204047927));
#1310=CARTESIAN_POINT('Ctrl Pts',(25.9281807325154,22.0695894611055,-160.433472093378));
#1311=CARTESIAN_POINT('Ctrl Pts',(27.0166448818393,22.0358423613722,-159.665419625474));
#1312=CARTESIAN_POINT('Ctrl Pts',(28.2714402751792,22.0267690938207,-159.040938090297));
#1313=CARTESIAN_POINT('Ctrl Pts',(30.1497292268022,22.0407167444771,-158.365685564028));
#1314=CARTESIAN_POINT('Ctrl Pts',(32.0054941336437,22.0795246947216,-157.968552875573));
#1315=CARTESIAN_POINT('Ctrl Pts',(34.2128686135735,22.1311584484459,-157.650179706509));
#1316=CARTESIAN_POINT('Ctrl Pts',(35.9394341718143,22.1720305712271,-157.480239770224));
#1317=CARTESIAN_POINT('Ctrl Pts',(38.6072971531679,22.2259161069881,-157.319188166498));
#1318=CARTESIAN_POINT('Ctrl Pts',(40.7370141781471,22.2541738284332,-157.261091052507));
#1319=CARTESIAN_POINT('Ctrl Pts',(42.4253330232242,22.2624704544955,-157.243882526104));
#1320=CARTESIAN_POINT('Ctrl Pts',(42.9626236417442,22.2638211652653,-157.241240930384));
#1321=CARTESIAN_POINT('Ctrl Pts',(43.2697230435214,22.2642027048081,-157.240471407983));
#1322=CARTESIAN_POINT('Ctrl Pts',(43.4232446989232,22.2642659635238,-157.240347408013));
#1323=CARTESIAN_POINT('Ctrl Pts',(43.4999999999999,22.2642659635238,-157.240347408013));
#1324=CARTESIAN_POINT('Ctrl Pts',(20.5987005274729,21.8619766646973,-163.198514932355));
#1325=CARTESIAN_POINT('Ctrl Pts',(20.6663773697699,21.75501634831,-162.273067663418));
#1326=CARTESIAN_POINT('Ctrl Pts',(20.9744035157461,21.6122018734577,-161.037135067577));
#1327=CARTESIAN_POINT('Ctrl Pts',(21.8085537227195,21.4172604293068,-159.350461344271));
#1328=CARTESIAN_POINT('Ctrl Pts',(22.7148190848473,21.2665350068411,-158.046245769537));
#1329=CARTESIAN_POINT('Ctrl Pts',(24.0939015500879,21.1072241886799,-156.667925599161));
#1330=CARTESIAN_POINT('Ctrl Pts',(25.6606632261972,20.9737010920573,-155.512828776327));
#1331=CARTESIAN_POINT('Ctrl Pts',(27.9738127818064,20.8238268693431,-154.215850793542));
#1332=CARTESIAN_POINT('Ctrl Pts',(30.2116399764991,20.728234229904,-153.388784370688));
#1333=CARTESIAN_POINT('Ctrl Pts',(32.828172820752,20.6463616313911,-152.68128458553));
#1334=CARTESIAN_POINT('Ctrl Pts',(34.8496684600583,20.5993300657425,-152.273626369505));
#1335=CARTESIAN_POINT('Ctrl Pts',(37.9316660164344,20.5508111049149,-151.854372713044));
#1336=CARTESIAN_POINT('Ctrl Pts',(40.3612964167085,20.5310495974465,-151.683206381128));
#1337=CARTESIAN_POINT('Ctrl Pts',(42.2796347520516,20.5252177033372,-151.63256243606));
#1338=CARTESIAN_POINT('Ctrl Pts',(42.8898250255532,20.5243020376944,-151.624631596562));
#1339=CARTESIAN_POINT('Ctrl Pts',(43.2385329705916,20.5240383751125,-151.622346530588));
#1340=CARTESIAN_POINT('Ctrl Pts',(43.4128487440992,20.5239956640162,-151.621970426945));
#1341=CARTESIAN_POINT('Ctrl Pts',(43.4999999999999,20.5239956640162,-151.621970426945));
#1342=CARTESIAN_POINT('Ctrl Pts',(19.0030226116062,21.8486677777412,-163.083363131182));
#1343=CARTESIAN_POINT('Ctrl Pts',(19.0826983990333,21.7227436485657,-161.993836235834));
#1344=CARTESIAN_POINT('Ctrl Pts',(19.4263527472706,21.5544013016507,-160.537296367021));
#1345=CARTESIAN_POINT('Ctrl Pts',(20.3446652853058,21.3239698125856,-158.543545792647));
#1346=CARTESIAN_POINT('Ctrl Pts',(21.337757266334,21.1452744789875,-156.997429307246));
#1347=CARTESIAN_POINT('Ctrl Pts',(22.8414053789309,20.9554381346505,-155.354918025065));
#1348=CARTESIAN_POINT('Ctrl Pts',(24.5418819369458,20.7953028966593,-153.969388104576));
#1349=CARTESIAN_POINT('Ctrl Pts',(27.0414131955082,20.6140932933565,-152.401517532143));
#1350=CARTESIAN_POINT('Ctrl Pts',(29.4429893715796,20.4967389862362,-151.386138869376));
#1351=CARTESIAN_POINT('Ctrl Pts',(32.2348582150907,20.3952127816805,-150.507708888004));
#1352=CARTESIAN_POINT('Ctrl Pts',(34.3827587567728,20.335982892441,-149.995237150002));
#1353=CARTESIAN_POINT('Ctrl Pts',(37.6421960667403,20.2743431703296,-149.461914938431));
#1354=CARTESIAN_POINT('Ctrl Pts',(40.2003346244575,20.2487663928273,-149.24061829602));
#1355=CARTESIAN_POINT('Ctrl Pts',(42.2172204009245,20.2411991047502,-149.175144236848));
#1356=CARTESIAN_POINT('Ctrl Pts',(42.8586399485782,20.2400113468673,-149.164867460133));
#1357=CARTESIAN_POINT('Ctrl Pts',(43.2251719284767,20.239669567032,-149.161910295964));
#1358=CARTESIAN_POINT('Ctrl Pts',(43.4083955164353,20.2396131337633,-149.161422021282));
#1359=CARTESIAN_POINT('Ctrl Pts',(43.4999999999999,20.2396131337633,-149.161422021282));
#1360=CARTESIAN_POINT('',(29.598131527046,24.9713006661119,-163.497266468893));
#1361=CARTESIAN_POINT('Ctrl Pts',(29.598131527046,24.9713006661119,-163.497266468893));
#1362=CARTESIAN_POINT('Ctrl Pts',(29.590622681873,24.966549605646,-163.497266468893));
#1363=CARTESIAN_POINT('Ctrl Pts',(29.5831121379636,24.9617920755215,-163.497189466194));
#1364=CARTESIAN_POINT('Ctrl Pts',(29.5515128204148,24.9417528823562,-163.496559160793));
#1365=CARTESIAN_POINT('Ctrl Pts',(29.52736178044,24.9263812017711,-163.495326781761));
#1366=CARTESIAN_POINT('Ctrl Pts',(29.3154858187346,24.7910361208378,-163.47881860567));
#1367=CARTESIAN_POINT('Ctrl Pts',(29.0732741552395,24.6329899266795,-163.42020146496));
#1368=CARTESIAN_POINT('Ctrl Pts',(28.3995520856883,24.1707941710531,-163.097210298257));
#1369=CARTESIAN_POINT('Ctrl Pts',(27.9699140956235,23.8594711350601,-162.779717717172));
#1370=CARTESIAN_POINT('Ctrl Pts',(27.0001317909804,23.1051384856715,-161.720951705194));
#1371=CARTESIAN_POINT('Ctrl Pts',(26.495456100124,22.677409639014,-160.938156714545));
#1372=CARTESIAN_POINT('Ctrl Pts',(25.3228564239308,21.6162048164327,-158.364672341021));
#1373=CARTESIAN_POINT('Ctrl Pts',(24.800332136754,21.068110592921,-156.329788166747));
#1374=CARTESIAN_POINT('Ctrl Pts',(24.5495205537818,20.8011047061261,-154.019586803563));
#1375=CARTESIAN_POINT('Origin',(43.4999999999999,3.,-163.497266468893));
#1376=CARTESIAN_POINT('Origin',(79.9999999999999,0.,-190.));
#1377=CARTESIAN_POINT('',(79.9999999999999,0.,-210.));
#1378=CARTESIAN_POINT('Origin',(79.9999999999999,0.,-190.));
#1379=CARTESIAN_POINT('',(79.9999999999999,0.,-210.));
#1380=CARTESIAN_POINT('Origin',(99.9999999999999,0.,-210.));
#1381=CARTESIAN_POINT('',(19.9999999999999,0.,-210.));
#1382=CARTESIAN_POINT('',(99.9999999999999,0.,-210.));
#1383=CARTESIAN_POINT('',(19.9999999999999,14.1242977306435,-210.));
#1384=CARTESIAN_POINT('',(19.9999999999999,0.,-210.));
#1385=CARTESIAN_POINT('',(43.4999999999999,29.,-210.));
#1386=CARTESIAN_POINT('Origin',(43.4999999999999,3.,-210.));
#1387=CARTESIAN_POINT('',(99.9999999999999,29.,-210.));
#1388=CARTESIAN_POINT('Origin',(19.9999999999999,0.,-190.));
#1389=CARTESIAN_POINT('Ctrl Pts',(17.4999999999999,3.,-209.843134832984));
#1390=CARTESIAN_POINT('Ctrl Pts',(17.4999999999999,4.78303005153089,-209.843134832984));
#1391=CARTESIAN_POINT('Ctrl Pts',(17.6863955500237,6.61838113384434,-209.869537020777));
#1392=CARTESIAN_POINT('Ctrl Pts',(18.4606392422991,10.2432913702775,-209.944463771764));
#1393=CARTESIAN_POINT('Ctrl Pts',(19.0482750054816,12.0329125429647,-209.992180157499));
#1394=CARTESIAN_POINT('Ctrl Pts',(19.8778133505873,13.8633816144113,-209.999715194961));
#1395=CARTESIAN_POINT('Ctrl Pts',(19.9383726778178,13.9941104499407,-210.));
#1396=CARTESIAN_POINT('Ctrl Pts',(19.9999999999999,14.1242977306435,-210.));
#1397=CARTESIAN_POINT('',(-8.14390121432989E-14,0.,-190.));
#1398=CARTESIAN_POINT('Origin',(19.9999999999999,0.,-190.));
#1399=CARTESIAN_POINT('',(-7.99360577730113E-14,0.,-190.));
#1400=CARTESIAN_POINT('Origin',(43.4999999999999,3.,-163.497266468893));
#1401=CARTESIAN_POINT('',(43.4999999999999,29.,-210.));
#1402=CARTESIAN_POINT('Origin',(20.,0.,-20.));
#1403=CARTESIAN_POINT('',(-8.57252759403146E-15,0.,-20.));
#1404=CARTESIAN_POINT('',(-6.66133814775094E-15,0.,-20.));
#1405=CARTESIAN_POINT('Origin',(20.,0.,-20.));
#1406=CARTESIAN_POINT('Origin',(0.,0.,0.));
#1407=CARTESIAN_POINT('',(-1.11022302462516E-14,0.,0.));
#1408=CARTESIAN_POINT('Origin',(49.9999999999999,29.,-186.748633234446));
#1409=CARTESIAN_POINT('Origin',(-9.00115397373304E-14,0.,-210.));
#1410=CARTESIAN_POINT('',(-9.00115397373304E-14,0.,-210.));
#1411=CARTESIAN_POINT('Origin',(50.,0.,-105.));
#1412=UNCERTAINTY_MEASURE_WITH_UNIT(LENGTH_MEASURE(0.01),#1416,
'DISTANCE_ACCURACY_VALUE',
'Maximum model space distance between geometric entities at asserted c
onnectivities');
#1413=UNCERTAINTY_MEASURE_WITH_UNIT(LENGTH_MEASURE(0.01),#1416,
'DISTANCE_ACCURACY_VALUE',
'Maximum model space distance between geometric entities at asserted c
onnectivities');
#1414=(
GEOMETRIC_REPRESENTATION_CONTEXT(3)
GLOBAL_UNCERTAINTY_ASSIGNED_CONTEXT((#1412))
GLOBAL_UNIT_ASSIGNED_CONTEXT((#1416,#1418,#1419))
REPRESENTATION_CONTEXT('','3D')
);
#1415=(
GEOMETRIC_REPRESENTATION_CONTEXT(3)
GLOBAL_UNCERTAINTY_ASSIGNED_CONTEXT((#1413))
GLOBAL_UNIT_ASSIGNED_CONTEXT((#1416,#1418,#1419))
REPRESENTATION_CONTEXT('','3D')
);
#1416=(
LENGTH_UNIT()
NAMED_UNIT(*)
SI_UNIT(.MILLI.,.METRE.)
);
#1417=(
LENGTH_UNIT()
NAMED_UNIT(*)
SI_UNIT(.CENTI.,.METRE.)
);
#1418=(
NAMED_UNIT(*)
PLANE_ANGLE_UNIT()
SI_UNIT($,.RADIAN.)
);
#1419=(
NAMED_UNIT(*)
SI_UNIT($,.STERADIAN.)
SOLID_ANGLE_UNIT()
);
#1420=SHAPE_DEFINITION_REPRESENTATION(#1421,#1422);
#1421=PRODUCT_DEFINITION_SHAPE('',$,#1424);
#1422=SHAPE_REPRESENTATION('',(#644),#1414);
#1423=PRODUCT_DEFINITION_CONTEXT('part definition',#1428,'design');
#1424=PRODUCT_DEFINITION('htn_floor','htn_floor',#1425,#1423);
#1425=PRODUCT_DEFINITION_FORMATION('',$,#1430);
#1426=PRODUCT_RELATED_PRODUCT_CATEGORY('htn_floor','htn_floor',(#1430));
#1427=APPLICATION_PROTOCOL_DEFINITION('international standard',
'automotive_design',2009,#1428);
#1428=APPLICATION_CONTEXT(
'Core Data for Automotive Mechanical Design Process');
#1429=PRODUCT_CONTEXT('part definition',#1428,'mechanical');
#1430=PRODUCT('htn_floor','htn_floor',$,(#1429));
#1431=PRESENTATION_STYLE_ASSIGNMENT((#1432));
#1432=SURFACE_STYLE_USAGE(.BOTH.,#1435);
#1433=SURFACE_STYLE_RENDERING_WITH_PROPERTIES($,#1439,(#1434));
#1434=SURFACE_STYLE_TRANSPARENT(0.);
#1435=SURFACE_SIDE_STYLE('',(#1436,#1433));
#1436=SURFACE_STYLE_FILL_AREA(#1437);
#1437=FILL_AREA_STYLE('',(#1438));
#1438=FILL_AREA_STYLE_COLOUR('',#1439);
#1439=COLOUR_RGB('',0.749019607843137,0.749019607843137,0.749019607843137);
ENDSEC;
END-ISO-10303-21;
